<svg width="168" height="165" viewBox="0 0 168 165" fill="none" xmlns="http://www.w3.org/2000/svg">
<path opacity="0.5" d="M29.723 82.4864C29.723 98.2518 16.6228 111.111 0.364749 111.111C-15.8933 111.111 -28.9935 98.2518 -28.9935 82.4864C-28.9935 66.7212 -15.8933 53.8622 0.364749 53.8622C16.6228 53.8622 29.723 66.7212 29.723 82.4864Z" stroke="white" stroke-width="3.91443"/>
<path opacity="0.5" d="M18.5388 82.4864C18.5388 92.2196 10.446 100.189 0.364622 100.189C-9.71661 100.189 -17.8094 92.2196 -17.8094 82.4864C-17.8094 72.7531 -9.71661 64.7841 0.364622 64.7841C10.446 64.7841 18.5388 72.7531 18.5388 82.4864Z" stroke="white" stroke-width="3.91443"/>
<path opacity="0.5" d="M7.35527 82.4865C7.35527 86.1878 4.26973 89.2669 0.365199 89.2669C-3.53933 89.2669 -6.62488 86.1878 -6.62488 82.4865C-6.62488 78.7855 -3.53933 75.7063 0.365199 75.7063C4.26973 75.7063 7.35527 78.7855 7.35527 82.4865Z" stroke="white" stroke-width="3.91443"/>
<path opacity="0.5" d="M196.739 82.4864C196.739 98.2518 183.639 111.111 167.381 111.111C151.123 111.111 138.022 98.2518 138.022 82.4864C138.022 66.7212 151.123 53.8622 167.381 53.8622C183.639 53.8622 196.739 66.7212 196.739 82.4864Z" stroke="white" stroke-width="3.91443"/>
<path opacity="0.5" d="M185.555 82.4864C185.555 92.2196 177.463 100.189 167.381 100.189C157.299 100.189 149.206 92.2196 149.206 82.4864C149.206 72.7531 157.299 64.7841 167.381 64.7841C177.463 64.7841 185.555 72.7531 185.555 82.4864Z" stroke="white" stroke-width="3.91443"/>
<path opacity="0.5" d="M174.371 82.4865C174.371 86.1878 171.286 89.2669 167.381 89.2669C163.477 89.2669 160.39 86.1878 160.39 82.4865C160.39 78.7855 163.477 75.7063 167.381 75.7063C171.286 75.7063 174.371 78.7855 174.371 82.4865Z" stroke="white" stroke-width="3.91443"/>
<path opacity="0.5" d="M113.231 0.935723C113.231 16.701 100.131 29.56 83.8727 29.56C67.6146 29.56 54.5145 16.701 54.5145 0.935723C54.5145 -14.8296 67.6146 -27.6886 83.8727 -27.6886C100.131 -27.6886 113.231 -14.8296 113.231 0.935723Z" stroke="white" stroke-width="3.91443"/>
<path opacity="0.5" d="M102.047 0.935573C102.047 10.6688 93.9544 18.6379 83.8727 18.6379C73.7916 18.6379 65.6988 10.6688 65.6988 0.935573C65.6988 -8.79762 73.7916 -16.7667 83.8727 -16.7667C93.9544 -16.7667 102.047 -8.79762 102.047 0.935573Z" stroke="white" stroke-width="3.91443"/>
<path opacity="0.5" d="M90.863 0.935911C90.863 4.63714 87.7778 7.7163 83.8727 7.7163C79.9691 7.7163 76.8831 4.63714 76.8831 0.935911C76.8831 -2.76531 79.9691 -5.84448 83.8727 -5.84448C87.7778 -5.84448 90.863 -2.76531 90.863 0.935911Z" stroke="white" stroke-width="3.91443"/>
<path opacity="0.5" d="M113.231 164.037C113.231 179.802 100.131 192.661 83.8727 192.661C67.6146 192.661 54.5145 179.802 54.5145 164.037C54.5145 148.273 67.6146 135.412 83.8727 135.412C100.131 135.412 113.231 148.273 113.231 164.037Z" stroke="white" stroke-width="3.91443"/>
<path opacity="0.5" d="M102.047 164.037C102.047 173.77 93.9544 181.74 83.8727 181.74C73.7916 181.74 65.6988 173.77 65.6988 164.037C65.6988 154.303 73.7916 146.335 83.8727 146.335C93.9544 146.335 102.047 154.303 102.047 164.037Z" stroke="white" stroke-width="3.91443"/>
<path opacity="0.5" d="M90.863 164.037C90.863 167.739 87.7778 170.818 83.8727 170.818C79.9691 170.818 76.8831 167.739 76.8831 164.037C76.8831 160.336 79.9691 157.257 83.8727 157.257C87.7778 157.257 90.863 160.336 90.863 164.037Z" stroke="white" stroke-width="3.91443"/>
<path d="M86.0317 74.0115V53.3967C86.0317 52.2051 86.0317 51.6093 85.8389 51.4178C85.6718 51.2526 85.4289 51.1899 85.2027 51.2535C84.9415 51.3273 84.6531 51.8486 84.0746 52.8911L64.7115 87.8627C64.1468 88.8824 63.8646 89.3923 63.9138 89.8095C63.9566 90.1734 64.1506 90.5026 64.4484 90.7165C64.7895 90.9616 65.3723 90.9616 66.5379 90.9616H81.7136V111.576C81.7136 112.768 81.7136 113.364 81.9064 113.555C82.0734 113.72 82.3163 113.783 82.5426 113.719C82.8037 113.646 83.0922 113.124 83.6707 112.082L103.034 77.1104C103.599 76.0906 103.881 75.5808 103.831 75.1636C103.789 74.7995 103.594 74.4703 103.297 74.2565C102.956 74.0114 102.373 74.0115 101.207 74.0115H86.0317Z" fill="white" stroke="white" stroke-width="2.60962"/>
</svg>
