<svg width="301" height="91" viewBox="0 0 301 91" fill="none" xmlns="http://www.w3.org/2000/svg">
<g clip-path="url(#clip0)">
<path d="M58.6508 69.3105C71.8127 69.3105 82.4826 58.6406 82.4826 45.4788C82.4826 32.3169 71.8127 21.647 58.6508 21.647C45.4889 21.647 34.8191 32.3169 34.8191 45.4788C34.8191 58.6406 45.4889 69.3105 58.6508 69.3105Z" fill="#8DC351"/>
<path d="M66.3962 37.2866C65.2046 34.3076 62.3746 34.1587 58.9488 34.7545L57.7572 30.5839L55.2251 31.3287L56.4167 35.3503C55.8209 35.4992 55.0761 35.7971 54.3314 35.9461L53.1398 31.7755L50.6077 32.5203L51.7993 36.6908C51.2035 36.8397 50.7566 36.9887 50.1608 37.1376L46.735 38.3292L47.4798 41.0103C47.4798 41.0103 49.4161 40.4145 49.2671 40.4145C50.3098 40.1166 50.7566 40.5635 51.0545 41.1592L52.395 45.9256C52.395 45.9256 52.544 45.9256 52.6929 45.9256L52.395 46.0745L54.3314 52.7772C54.3314 53.0751 54.3314 53.6709 53.5866 53.9688L51.7993 54.5646L52.0972 57.6925L55.374 56.7988C55.9698 56.6499 56.5656 56.5009 57.1614 56.352L58.353 60.5225L60.8851 59.7778L59.6935 55.6072C60.4383 55.4583 61.034 55.3093 61.7788 55.0114L62.9704 59.182L65.5025 58.4372L64.3109 54.2667C68.4815 52.7772 71.1625 50.8409 70.4178 46.6703C69.822 43.3935 67.8857 42.3508 65.2046 42.4998C66.6941 41.0103 67.2899 39.5208 66.3962 37.2866ZM65.5025 47.4151C66.3962 50.543 60.8851 51.7346 59.0977 52.3304L57.4593 46.6703C59.2467 46.2235 64.4599 44.1382 65.5025 47.4151ZM61.9277 39.8187C62.8214 42.6487 58.204 43.6914 56.7145 44.1382L55.2251 39.074C56.7145 38.6271 61.183 36.8397 61.9277 39.8187Z" fill="white"/>
</g>
<path d="M109.534 42.8855C110.613 42.8855 111.545 43.0764 112.331 43.4583C113.117 43.8402 113.769 44.3569 114.286 45.0083C114.802 45.6597 115.184 46.4235 115.431 47.2996C115.678 48.1757 115.802 49.1191 115.802 50.13C115.802 51.68 115.51 53.1513 114.926 54.5441C114.364 55.9143 113.589 57.1161 112.601 58.1495C111.612 59.1603 110.444 59.969 109.096 60.5755C107.749 61.1596 106.288 61.4516 104.716 61.4516C104.514 61.4516 104.154 61.4404 103.638 61.4179C103.144 61.4179 102.571 61.373 101.919 61.2831C101.268 61.1933 100.572 61.0585 99.8302 60.8788C99.1114 60.6991 98.4263 60.452 97.7748 60.1375L103.604 35.641L108.827 34.8323L106.738 43.5257C107.187 43.3235 107.636 43.1663 108.086 43.054C108.535 42.9417 109.018 42.8855 109.534 42.8855ZM105.154 57.3071C105.94 57.3071 106.682 57.1161 107.378 56.7343C108.074 56.3524 108.67 55.8469 109.164 55.218C109.68 54.5665 110.085 53.8365 110.377 53.0278C110.669 52.2191 110.815 51.3767 110.815 50.5006C110.815 49.4224 110.635 48.58 110.276 47.9735C109.916 47.367 109.254 47.0637 108.288 47.0637C107.973 47.0637 107.558 47.1199 107.041 47.2322C106.547 47.3445 106.098 47.5804 105.693 47.9398L103.469 57.1723C103.604 57.1948 103.716 57.2172 103.806 57.2397C103.919 57.2621 104.031 57.2846 104.143 57.3071C104.256 57.3071 104.39 57.3071 104.548 57.3071C104.705 57.3071 104.907 57.3071 105.154 57.3071ZM122.143 60.9799H117.156L121.368 43.2561H126.389L122.143 60.9799ZM124.569 41.0996C123.873 41.0996 123.244 40.8975 122.682 40.4931C122.121 40.0663 121.84 39.4261 121.84 38.5725C121.84 38.1008 121.93 37.6627 122.109 37.2584C122.312 36.8316 122.57 36.4722 122.884 36.1801C123.199 35.8656 123.558 35.6185 123.963 35.4388C124.389 35.2591 124.839 35.1693 125.31 35.1693C126.007 35.1693 126.636 35.3827 127.197 35.8095C127.759 36.2138 128.04 36.8428 128.04 37.6964C128.04 38.1682 127.939 38.6174 127.737 39.0442C127.557 39.4486 127.31 39.808 126.995 40.1225C126.681 40.4145 126.31 40.6504 125.883 40.8301C125.479 41.0098 125.041 41.0996 124.569 41.0996ZM131.517 38.8421L136.74 38.0334L135.46 43.2561H141.053L140.042 47.367H134.482L133 53.5669C132.865 54.0836 132.775 54.5665 132.73 55.0158C132.708 55.4651 132.764 55.8582 132.899 56.1951C133.056 56.5096 133.314 56.7567 133.674 56.9364C134.033 57.1161 134.527 57.206 135.156 57.206C135.695 57.206 136.212 57.1611 136.706 57.0712C137.223 56.9589 137.74 56.8129 138.256 56.6332L138.627 60.4744C137.953 60.7215 137.223 60.9349 136.437 61.1146C135.651 61.2943 134.718 61.3842 133.64 61.3842C132.09 61.3842 130.888 61.1596 130.035 60.7103C129.181 60.2386 128.574 59.6096 128.215 58.8234C127.856 58.0147 127.698 57.0937 127.743 56.0603C127.788 55.027 127.946 53.9375 128.215 52.7919L131.517 38.8421ZM141.234 53.9038C141.234 52.3763 141.481 50.9387 141.975 49.5909C142.469 48.243 143.177 47.0637 144.098 46.0528C145.019 45.042 146.131 44.2445 147.434 43.6605C148.759 43.0764 150.23 42.7844 151.848 42.7844C152.859 42.7844 153.757 42.8855 154.543 43.0877C155.352 43.2674 156.082 43.5145 156.734 43.829L155.015 47.7376C154.566 47.5579 154.094 47.4007 153.6 47.2659C153.128 47.1086 152.544 47.03 151.848 47.03C150.163 47.03 148.838 47.6028 147.872 48.7485C146.906 49.8716 146.423 51.4104 146.423 53.3647C146.423 54.5104 146.67 55.4426 147.164 56.1614C147.658 56.8578 148.568 57.206 149.894 57.206C150.545 57.206 151.174 57.1386 151.78 57.0038C152.387 56.869 152.926 56.7006 153.398 56.4984L153.768 60.5081C153.139 60.7552 152.443 60.9686 151.679 61.1483C150.938 61.3505 150.028 61.4516 148.95 61.4516C147.557 61.4516 146.378 61.2494 145.412 60.8451C144.446 60.4407 143.649 59.9016 143.02 59.2277C142.391 58.5313 141.93 57.7226 141.638 56.8016C141.369 55.8806 141.234 54.9147 141.234 53.9038ZM163.576 61.4516C162.386 61.4516 161.353 61.2719 160.476 60.9125C159.6 60.5531 158.87 60.0476 158.286 59.3962C157.725 58.7447 157.298 57.981 157.006 57.1049C156.714 56.2064 156.568 55.218 156.568 54.1397C156.568 52.7919 156.781 51.4441 157.208 50.0963C157.657 48.7485 158.309 47.5354 159.162 46.4572C160.016 45.3789 161.061 44.5029 162.296 43.829C163.532 43.1326 164.947 42.7844 166.542 42.7844C167.71 42.7844 168.732 42.9641 169.608 43.3235C170.506 43.6829 171.236 44.1884 171.798 44.8398C172.382 45.4913 172.82 46.2663 173.112 47.1648C173.404 48.0409 173.55 49.018 173.55 50.0963C173.55 51.4441 173.337 52.7919 172.91 54.1397C172.483 55.4875 171.854 56.7006 171.023 57.7788C170.192 58.8571 169.147 59.7444 167.889 60.4407C166.654 61.1146 165.216 61.4516 163.576 61.4516ZM166.07 47.03C165.329 47.03 164.677 47.2434 164.116 47.6702C163.554 48.097 163.082 48.6362 162.7 49.2876C162.318 49.939 162.026 50.6579 161.824 51.4441C161.645 52.2079 161.555 52.9379 161.555 53.6343C161.555 54.7799 161.734 55.6672 162.094 56.2962C162.453 56.9027 163.105 57.206 164.048 57.206C164.789 57.206 165.441 56.9926 166.002 56.5658C166.564 56.139 167.036 55.5998 167.418 54.9484C167.8 54.297 168.08 53.5894 168.26 52.8256C168.462 52.0394 168.563 51.2981 168.563 50.6017C168.563 49.4561 168.384 48.58 168.024 47.9735C167.665 47.3445 167.013 47.03 166.07 47.03ZM179.892 60.9799H174.905L179.117 43.2561H184.138L179.892 60.9799ZM182.318 41.0996C181.622 41.0996 180.993 40.8975 180.431 40.4931C179.87 40.0663 179.589 39.4261 179.589 38.5725C179.589 38.1008 179.679 37.6627 179.859 37.2584C180.061 36.8316 180.319 36.4722 180.634 36.1801C180.948 35.8656 181.308 35.6185 181.712 35.4388C182.139 35.2591 182.588 35.1693 183.06 35.1693C183.756 35.1693 184.385 35.3827 184.947 35.8095C185.508 36.2138 185.789 36.8428 185.789 37.6964C185.789 38.1682 185.688 38.6174 185.486 39.0442C185.306 39.4486 185.059 39.808 184.744 40.1225C184.43 40.4145 184.059 40.6504 183.633 40.8301C183.228 41.0098 182.79 41.0996 182.318 41.0996ZM188.525 44.0648C188.907 43.9525 189.323 43.829 189.772 43.6942C190.244 43.5369 190.76 43.4022 191.322 43.2898C191.906 43.1551 192.546 43.054 193.243 42.9866C193.961 42.8967 194.77 42.8518 195.669 42.8518C198.319 42.8518 200.139 43.6156 201.127 45.1431C202.116 46.6706 202.284 48.7597 201.633 51.4104L199.341 60.9799H194.321L196.545 51.6126C196.679 51.0285 196.781 50.4669 196.848 49.9278C196.938 49.3662 196.938 48.8833 196.848 48.4789C196.758 48.0521 196.545 47.7151 196.208 47.468C195.893 47.1985 195.399 47.0637 194.725 47.0637C194.074 47.0637 193.411 47.1311 192.737 47.2659L189.469 60.9799H184.448L188.525 44.0648ZM215.865 60.1375C215.416 60.4295 214.719 60.7103 213.776 60.9799C212.855 61.2494 211.821 61.3842 210.676 61.3842C208.632 61.3842 207.093 60.8002 206.06 59.632C205.026 58.4639 204.51 56.8578 204.51 54.8136C204.51 53.2861 204.745 51.826 205.217 50.4332C205.689 49.018 206.374 47.7713 207.273 46.6931C208.194 45.6148 209.317 44.7612 210.642 44.1322C211.968 43.4808 213.473 43.1551 215.157 43.1551C216.325 43.1551 217.482 43.346 218.628 43.7279L217.718 45.7159C217.202 45.5137 216.685 45.3789 216.168 45.3116C215.674 45.2217 215.191 45.1768 214.719 45.1768C213.529 45.1768 212.439 45.4351 211.451 45.9518C210.485 46.446 209.654 47.1311 208.957 48.0072C208.261 48.8608 207.722 49.8604 207.34 51.0061C206.958 52.1292 206.767 53.3198 206.767 54.5778C206.767 56.0603 207.104 57.2285 207.778 58.0821C208.474 58.9357 209.575 59.3625 211.08 59.3625C211.552 59.3625 212.024 59.3176 212.495 59.2277C212.99 59.1378 213.439 59.0368 213.843 58.9244C214.248 58.7897 214.607 58.6549 214.921 58.5201C215.236 58.3853 215.472 58.2618 215.629 58.1495L215.865 60.1375ZM232.655 45.4463C232.251 45.3565 231.88 45.2891 231.543 45.2442C231.206 45.1992 230.858 45.1768 230.498 45.1768C229.106 45.1768 227.87 45.4463 226.792 45.9855C225.714 46.5246 224.804 47.2322 224.063 48.1083C223.321 48.9843 222.749 49.984 222.344 51.1071C221.962 52.2303 221.771 53.376 221.771 54.5441C221.771 55.4651 221.861 56.2401 222.041 56.869C222.221 57.4755 222.468 57.9697 222.782 58.3516C223.097 58.711 223.456 58.9806 223.86 59.1603C224.287 59.3176 224.737 59.3962 225.208 59.3962C226.129 59.3962 226.994 59.1828 227.803 58.756C228.611 58.3067 229.375 57.6777 230.094 56.869C230.094 56.2625 230.184 55.5661 230.364 54.7799C230.543 53.9937 230.712 53.2861 230.869 52.6571L232.655 45.4463ZM230.701 61.182C230.566 60.9125 230.442 60.6092 230.33 60.2723C230.24 59.9128 230.173 59.5534 230.128 59.194C229.342 59.9578 228.51 60.5194 227.634 60.8788C226.781 61.2382 225.893 61.4179 224.972 61.4179C224.254 61.4179 223.568 61.2943 222.917 61.0472C222.266 60.8002 221.693 60.4183 221.199 59.9016C220.704 59.3849 220.3 58.7223 219.985 57.9136C219.693 57.0824 219.547 56.1053 219.547 54.9821C219.547 53.185 219.839 51.5564 220.424 50.0963C221.008 48.6362 221.816 47.4007 222.85 46.3898C223.905 45.3565 225.141 44.559 226.556 43.9974C227.994 43.4358 229.555 43.1551 231.24 43.1551C232.632 43.1551 233.969 43.3909 235.249 43.8627L232.655 54.3419C232.52 54.9035 232.408 55.4314 232.318 55.9256C232.228 56.4198 232.183 56.8915 232.183 57.3408C232.183 57.9473 232.239 58.5201 232.352 59.0592C232.464 59.5984 232.666 60.1936 232.958 60.8451L230.701 61.182ZM236.411 58.2168C237.242 58.6661 237.972 58.9694 238.601 59.1266C239.23 59.2839 239.937 59.3625 240.724 59.3625C241.285 59.3625 241.824 59.3063 242.341 59.194C242.858 59.0592 243.307 58.8683 243.689 58.6212C244.071 58.3741 244.374 58.0484 244.599 57.644C244.823 57.2397 244.936 56.7679 244.936 56.2288C244.936 55.6448 244.767 55.1618 244.43 54.7799C244.116 54.398 243.711 54.0723 243.217 53.8028C242.745 53.5107 242.229 53.2299 241.667 52.9604C241.106 52.6908 240.578 52.3763 240.083 52.0169C239.612 51.6575 239.207 51.2082 238.87 50.6691C238.556 50.13 238.399 49.4336 238.399 48.58C238.399 47.6141 238.578 46.7941 238.938 46.1202C239.297 45.4239 239.78 44.8623 240.387 44.4355C240.993 43.9862 241.69 43.6605 242.476 43.4583C243.262 43.2561 244.071 43.1551 244.902 43.1551C245.621 43.1551 246.328 43.2224 247.025 43.3572C247.743 43.4695 248.429 43.6493 249.08 43.8963L248.204 45.8507C247.732 45.6485 247.193 45.4913 246.587 45.3789C245.98 45.2442 245.351 45.1768 244.7 45.1768C244.161 45.1768 243.633 45.2329 243.116 45.3452C242.622 45.4576 242.184 45.6485 241.802 45.9181C241.42 46.1652 241.106 46.4909 240.858 46.8952C240.634 47.2771 240.521 47.7488 240.521 48.3104C240.521 48.8945 240.679 49.3774 240.993 49.7593C241.33 50.1412 241.734 50.4782 242.206 50.7702C242.678 51.0622 243.195 51.343 243.756 51.6126C244.34 51.8597 244.868 52.1629 245.34 52.5223C245.812 52.8818 246.205 53.3198 246.519 53.8365C246.856 54.3307 247.025 54.9709 247.025 55.7571C247.025 56.7455 246.834 57.5991 246.452 58.3179C246.092 59.0368 245.609 59.6208 245.003 60.0701C244.396 60.5194 243.7 60.8451 242.914 61.0472C242.128 61.2719 241.319 61.3842 240.488 61.3842C239.612 61.3842 238.736 61.2831 237.86 61.0809C236.983 60.9012 236.186 60.6092 235.467 60.2049L236.411 58.2168ZM252.328 60.9799H250.138L256.27 35.2367L258.562 34.8323L256.338 44.0311C257.753 43.4471 259.089 43.1551 260.347 43.1551C261.111 43.1551 261.819 43.2674 262.47 43.492C263.122 43.7166 263.695 44.0536 264.189 44.5029C264.683 44.9521 265.065 45.525 265.334 46.2213C265.626 46.8952 265.772 47.7039 265.772 48.6474C265.772 49.2314 265.727 49.838 265.638 50.4669C265.548 51.0734 265.424 51.6912 265.267 52.3202L263.178 60.9799H260.988L262.841 53.2299C263.021 52.4886 263.189 51.7361 263.346 50.9724C263.504 50.2086 263.582 49.4785 263.582 48.7822C263.582 48.1083 263.47 47.5467 263.245 47.0974C263.043 46.6257 262.762 46.255 262.403 45.9855C262.066 45.6934 261.662 45.4913 261.19 45.3789C260.718 45.2442 260.224 45.1768 259.707 45.1768C259.056 45.1768 258.393 45.2442 257.719 45.3789C257.068 45.5137 256.45 45.6822 255.866 45.8844L252.328 60.9799Z" fill="#8DC351"/>
<rect x="2.05774" y="2.14868" width="297.106" height="87.1686" rx="18.3918" stroke="#8DC351" stroke-width="3.19361"/>
<defs>
<clipPath id="clip0">
<rect width="47.6634" height="47.6634" fill="white" transform="translate(34.8191 21.647)"/>
</clipPath>
</defs>
</svg>
