<svg width="302" height="91" viewBox="0 0 302 91" fill="none" xmlns="http://www.w3.org/2000/svg">
<rect x="2.4032" y="2.07391" width="297.106" height="87.1686" rx="18.3918" stroke="#F7931A" stroke-width="3.19361"/>
<g clip-path="url(#clip0)">
<path d="M96.7476 50.4682C94.1597 60.8482 83.6465 67.1654 73.2652 64.5769C62.8882 61.989 56.5711 51.4751 59.1602 41.0957C61.7469 30.7145 72.2601 24.3967 82.6383 26.9846C93.019 29.5725 99.3355 40.0876 96.7476 50.4682Z" fill="#F7931A"/>
<path d="M86.4985 43.018C86.8842 40.4398 84.9212 39.0538 82.237 38.1292L83.1077 34.6367L80.9818 34.1069L80.1341 37.5074C79.5752 37.3681 79.0012 37.2367 78.4308 37.1066L79.2846 33.6837L77.1599 33.1539L76.2886 36.6452C75.826 36.5398 75.3719 36.4357 74.9311 36.3261L74.9335 36.3152L72.0017 35.5831L71.4362 37.8537C71.4362 37.8537 73.0135 38.2152 72.9802 38.2376C73.8412 38.4526 73.9968 39.0223 73.9708 39.474L72.979 43.4528C73.0383 43.4679 73.1152 43.4897 73.2 43.5236C73.1291 43.5061 73.0534 43.4867 72.9753 43.4679L71.5851 49.0415C71.4797 49.3031 71.2127 49.6954 70.6109 49.5465C70.6321 49.5774 69.0656 49.1608 69.0656 49.1608L68.0103 51.5943L70.7768 52.2839C71.2914 52.4129 71.7958 52.5479 72.2923 52.6751L71.4126 56.2076L73.536 56.7374L74.4073 53.2424C74.9874 53.3999 75.5505 53.5452 76.1015 53.682L75.2332 57.1606L77.3591 57.6904L78.2389 54.1646C81.864 54.8506 84.59 54.5739 85.7374 51.2952C86.662 48.6552 85.6914 47.1324 83.784 46.1394C85.1731 45.8191 86.2194 44.9054 86.4985 43.018ZM81.6412 49.8293C80.9842 52.4692 76.5393 51.0421 75.0982 50.6842L76.2656 46.0043C77.7067 46.364 82.3278 47.0761 81.6412 49.8293ZM82.2988 42.9799C81.6993 45.3813 77.9997 44.1612 76.7996 43.8621L77.8581 39.6176C79.0582 39.9167 82.923 40.4749 82.2988 42.9799Z" fill="white"/>
<path d="M115.363 38.1258C116.934 38.1258 118.291 38.4073 119.432 38.9601C120.578 39.5184 121.524 40.2704 122.283 41.2162C123.031 42.1669 123.588 43.2779 123.948 44.5513C124.305 45.8283 124.484 47.201 124.484 48.6705C124.484 50.9278 124.071 53.0604 123.236 55.0706C122.401 57.0839 121.268 58.8301 119.827 60.3196C118.387 61.8073 116.687 62.9802 114.726 63.8467C112.769 64.7137 110.64 65.1473 108.355 65.1473C108.06 65.1473 107.54 65.1388 106.806 65.1237C106.073 65.1085 105.229 65.0328 104.285 64.9051C103.334 64.7725 102.329 64.5763 101.267 64.3135C100.206 64.0556 99.1989 63.6941 98.2501 63.2351L106.734 27.5859L114.333 26.4082L111.296 39.0588C111.946 38.7658 112.601 38.5387 113.255 38.3734C113.909 38.2105 114.612 38.1258 115.363 38.1258ZM108.989 59.1189C110.133 59.1189 111.211 58.8374 112.224 58.2846C113.24 57.7311 114.117 56.984 114.852 56.0533C115.586 55.1184 116.167 54.0655 116.591 52.889C117.015 51.7125 117.229 50.4852 117.229 49.2082C117.229 47.6393 116.967 46.4156 116.445 45.531C115.922 44.65 114.955 44.2068 113.551 44.2068C113.091 44.2068 112.498 44.2946 111.763 44.4514C111.025 44.6179 110.365 44.9636 109.774 45.4838L106.539 58.9185C106.734 58.953 106.907 58.9857 107.054 59.0166C107.198 59.0499 107.357 59.0735 107.516 59.0899C107.684 59.1087 107.876 59.1183 108.108 59.1183C108.34 59.1183 108.63 59.1189 108.989 59.1189Z" fill="#F7931A"/>
<path d="M132.365 64.4647H125.107L131.236 38.6723H138.544L132.365 64.4647ZM135.897 35.5298C134.884 35.5298 133.965 35.2283 133.15 34.624C132.329 34.0233 131.922 33.0987 131.922 31.8526C131.922 31.1672 132.061 30.5242 132.337 29.9175C132.618 29.312 132.984 28.7906 133.443 28.3474C133.901 27.9078 134.432 27.5566 135.035 27.292C135.642 27.0317 136.287 26.9015 136.975 26.9015C137.988 26.9015 138.901 27.203 139.719 27.8073C140.534 28.4146 140.944 29.3392 140.944 30.5787C140.944 31.2665 140.806 31.912 140.527 32.5175C140.25 33.123 139.884 33.6443 139.425 34.0875C138.97 34.5277 138.435 34.8777 137.833 35.1399C137.225 35.4045 136.582 35.5298 135.897 35.5298Z" fill="#F7931A"/>
<path d="M144.905 32.2463L152.507 31.0686L150.64 38.6712H158.781L157.311 44.6523H149.219L147.063 53.6742C146.865 54.4263 146.752 55.1286 146.721 55.7813C146.685 56.4371 146.768 57.0002 146.964 57.4743C147.159 57.9496 147.51 58.316 148.018 58.5751C148.524 58.8385 149.249 58.9711 150.2 58.9711C150.983 58.9711 151.746 58.8966 152.483 58.7489C153.216 58.6036 153.959 58.4013 154.711 58.1367L155.253 63.7291C154.272 64.0888 153.21 64.3982 152.065 64.6585C150.919 64.9225 149.562 65.0497 147.994 65.0497C145.739 65.0497 143.991 64.7148 142.745 64.0482C141.502 63.3767 140.623 62.4594 140.096 61.298C139.578 60.1409 139.346 58.807 139.41 57.3042C139.478 55.7977 139.705 54.2143 140.096 52.5468L144.905 32.2463Z" fill="#F7931A"/>
<path d="M158.462 54.1653C158.462 51.9437 158.821 49.8487 159.54 47.8875C160.258 45.9245 161.291 44.2079 162.632 42.7347C163.969 41.2688 165.597 40.1074 167.513 39.2549C169.421 38.4072 171.556 37.9797 173.91 37.9797C175.383 37.9797 176.699 38.119 177.856 38.3981C179.019 38.6797 180.071 39.0436 181.022 39.5001L178.519 45.1918C177.865 44.9266 177.186 44.6929 176.484 44.481C175.782 44.2648 174.925 44.1607 173.91 44.1607C171.488 44.1607 169.573 44.9956 168.147 46.6601C166.727 48.3259 166.012 50.568 166.012 53.3805C166.012 55.0475 166.372 56.3953 167.094 57.4265C167.812 58.4576 169.139 58.9705 171.065 58.9705C172.015 58.9705 172.933 58.8712 173.811 58.6774C174.696 58.4813 175.478 58.2342 176.167 57.9424L176.708 63.7769C175.791 64.133 174.778 64.4545 173.668 64.736C172.555 65.0079 171.23 65.149 169.694 65.149C167.666 65.149 165.949 64.8523 164.545 64.268C163.14 63.6746 161.98 62.8868 161.065 61.889C160.146 60.8887 159.486 59.7207 159.078 58.3801C158.67 57.0408 158.462 55.6336 158.462 54.1653Z" fill="#F7931A"/>
<path d="M190.705 65.149C188.972 65.149 187.468 64.885 186.191 64.3624C184.918 63.8399 183.864 63.1066 183.031 62.156C182.196 61.2102 181.571 60.0894 181.143 58.7979C180.715 57.507 180.509 56.0774 180.509 54.511C180.509 52.5462 180.824 50.5819 181.462 48.6232C182.096 46.6601 183.038 44.8963 184.284 43.3287C185.52 41.7587 187.046 40.475 188.842 39.4741C190.636 38.4799 192.699 37.9797 195.017 37.9797C196.718 37.9797 198.215 38.2443 199.509 38.7669C200.796 39.2882 201.857 40.0275 202.696 40.9733C203.525 41.9239 204.156 43.0399 204.58 44.3332C205.006 45.6217 205.217 47.0549 205.217 48.6225C205.217 50.5813 204.906 52.5456 204.288 54.5104C203.67 56.4655 202.753 58.2336 201.542 59.8049C200.333 61.3725 198.822 62.6556 197.007 63.6522C195.194 64.6488 193.091 65.149 190.705 65.149ZM194.332 44.1613C193.256 44.1613 192.305 44.4737 191.491 45.0907C190.673 45.7149 189.986 46.4997 189.433 47.4461C188.874 48.3967 188.459 49.4333 188.178 50.5601C187.901 51.6894 187.764 52.7569 187.764 53.7711C187.764 55.4078 188.028 56.6823 188.547 57.5997C189.073 58.5121 190.019 58.9711 191.392 58.9711C192.472 58.9711 193.418 58.6611 194.238 58.0374C195.05 57.418 195.738 56.6327 196.295 55.6845C196.851 54.7387 197.269 53.699 197.55 52.5704C197.824 51.4448 197.964 50.3712 197.964 49.3588C197.964 47.7264 197.701 46.4488 197.177 45.5327C196.654 44.6202 195.705 44.1613 194.332 44.1613Z" fill="#F7931A"/>
<path d="M213.126 64.4647H205.862L211.992 38.6723H219.303L213.126 64.4647ZM216.653 35.5298C215.64 35.5298 214.722 35.2283 213.909 34.624C213.091 34.0233 212.681 33.0987 212.681 31.8526C212.681 31.1672 212.822 30.5242 213.098 29.9175C213.375 29.312 213.744 28.7906 214.203 28.3474C214.659 27.9078 215.195 27.5566 215.796 27.292C216.4 27.0317 217.045 26.9015 217.73 26.9015C218.745 26.9015 219.662 27.203 220.478 27.8073C221.295 28.4146 221.707 29.3392 221.707 30.5787C221.707 31.2665 221.561 31.912 221.287 32.5175C221.012 33.123 220.643 33.6443 220.186 34.0875C219.726 34.5277 219.197 34.8777 218.594 35.1399C217.986 35.4045 217.342 35.5298 216.653 35.5298Z" fill="#F7931A"/>
<path d="M224.534 39.8453C225.085 39.6842 225.7 39.4905 226.369 39.2797C227.041 39.069 227.791 38.8729 228.629 38.696C229.458 38.5138 230.393 38.366 231.422 38.2516C232.451 38.1347 233.623 38.0778 234.925 38.0778C238.753 38.0778 241.392 39.1926 242.849 41.4153C244.305 43.6381 244.556 46.6801 243.612 50.5359L240.273 64.4623H232.967L236.203 50.829C236.4 49.9777 236.555 49.1548 236.67 48.3507C236.786 47.5538 236.779 46.8515 236.644 46.2436C236.515 45.6429 236.211 45.1512 235.739 44.7704C235.26 44.3956 234.537 44.2073 233.555 44.2073C232.609 44.2073 231.646 44.309 230.663 44.5052L225.906 64.4617H218.597L224.534 39.8453Z" fill="#F7931A"/>
</g>
<defs>
<clipPath id="clip0">
<rect width="185.585" height="38.7524" fill="white" transform="translate(58.5837 26.4001)"/>
</clipPath>
</defs>
</svg>
