<svg xmlns="http://www.w3.org/2000/svg" viewBox="0 0 100 100"><defs><style>.cls-1{fill:#fff;}</style></defs><g id="Layer_2" data-name="Layer 2"><g id="Layer_1-2" data-name="Layer 1"><path class="cls-1" d="M38.23,45.51c-3.56,0-6.38,3.21-6.38,7.16s2.88,7.16,6.38,7.16,6.38-3.22,6.38-7.16S41.81,45.51,38.23,45.51Z"/><path class="cls-1" d="M61.82,45.51c-3.56,0-6.38,3.21-6.38,7.16s2.88,7.16,6.38,7.16,6.38-3.22,6.38-7.16S65.4,45.51,61.82,45.51Z"/><path class="cls-1" d="M50,0a50,50,0,1,0,50,50A50,50,0,0,0,50,0ZM85.19,67.89a.2.2,0,0,1-.09.17,58.75,58.75,0,0,1-17.75,9,.22.22,0,0,1-.25-.09A47.72,47.72,0,0,1,63.47,71a.24.24,0,0,1,.12-.32,36.52,36.52,0,0,0,5.54-2.63.23.23,0,0,0,0-.38c-.37-.28-.74-.57-1.1-.87a.21.21,0,0,0-.23,0,42,42,0,0,1-35.68,0,.2.2,0,0,0-.23,0l-1.1.86a.23.23,0,0,0,0,.38,40.22,40.22,0,0,0,5.54,2.64.22.22,0,0,1,.12.31,41.53,41.53,0,0,1-3.63,5.9.23.23,0,0,1-.25.08,59,59,0,0,1-17.72-9,.27.27,0,0,1-.1-.17c-1.23-13.25,1.29-26.66,10.49-40.41a.16.16,0,0,1,.1-.08,58.23,58.23,0,0,1,14.45-4.48.21.21,0,0,1,.23.11,36.14,36.14,0,0,1,1.83,3.69,53.85,53.85,0,0,1,16.23,0A40.45,40.45,0,0,1,59.92,23a.21.21,0,0,1,.23-.11A58,58,0,0,1,74.6,27.4a.16.16,0,0,1,.1.08A59.58,59.58,0,0,1,85.19,67.89Z"/></g></g></svg>