<svg width="115" height="63" viewBox="0 0 115 63" fill="none" xmlns="http://www.w3.org/2000/svg">
<g clip-path="url(#clip0)">
<path d="M52.1648 42.8175C52.2282 42.8262 52.2419 42.8287 52.3037 42.8367C53.3353 42.9769 54.349 43.1628 55.125 43.5097C55.8441 43.8272 56.2657 44.2291 56.6505 44.9453C57.2358 46.0315 57.2739 47.5532 56.745 48.7048C56.35 49.5618 55.4827 50.2803 54.691 50.6612C53.8687 51.0598 53.0586 51.2496 52.1295 51.3557C50.5046 51.5346 48.7496 51.198 47.2873 50.4908C46.4223 50.0683 45.3659 49.3408 44.833 48.4036C44.4411 47.717 44.4536 46.8236 44.9304 46.171C45.6903 45.1309 47.3179 44.9019 48.5438 44.9453C49.4784 44.9815 51.1613 45.2704 52.0487 45.5861C52.2946 45.675 53.2017 46.0284 53.36 46.1905C53.4715 46.3032 53.5438 46.467 53.4937 46.6184C53.2909 47.2386 51.7839 47.5655 51.3488 47.6312C50.1838 47.8096 49.5793 47.3687 48.2549 46.8458C47.9262 46.7171 47.488 46.5742 47.1533 46.5433C46.5521 46.486 45.8258 46.6544 45.711 47.3108C45.654 47.649 46.0507 47.9654 46.3532 48.0984C47.0636 48.4036 47.6412 48.5133 48.3404 48.5227C50.4059 48.5567 52.7273 48.2166 54.4167 47.0196C54.648 46.8545 54.8752 46.6129 54.8776 46.3084C54.8849 45.6933 53.8066 45.3173 53.8066 45.3173C52.6686 44.8428 50.5658 44.6119 49.4825 44.5227C48.3458 44.4243 46.5571 44.2771 46.1276 44.2138C45.6855 44.1507 45.2052 44.0615 44.8223 43.8899C44.4376 43.7161 44.0613 43.3272 43.9496 42.897C43.7516 42.1214 44.0043 41.1697 44.435 40.5501C45.5638 38.9272 48.2082 38.3108 50.1837 38.066C52.0957 37.8281 55.1868 37.8305 57.0649 38.8284C57.3548 38.9839 57.5029 39.1284 57.4423 39.4384C57.32 40.0203 56.8826 40.3954 56.3525 40.5597C55.7964 40.7367 54.6459 40.8057 54.1407 40.8375C51.8765 40.9644 49.1404 40.8979 46.9838 41.486C46.8148 41.5342 46.523 41.6129 46.4281 41.7188C46.0905 42.0853 47.0547 42.19 47.2612 42.2319C47.3226 42.2466 47.3345 42.2486 47.3986 42.2556L52.1648 42.8175ZM38.6952 32.7215C38.6952 32.7215 39.0634 32.1692 39.372 31.7501C39.9339 30.987 40.9507 29.9287 41.7165 29.2735C41.9507 29.0734 42.2269 28.8467 42.2269 28.8467C42.2269 28.8467 41.795 28.8913 41.5502 28.9414C40.9692 29.0545 40.1173 29.6207 39.6916 29.9865C38.9892 30.5878 38.2168 31.5653 38.5663 32.4338C38.617 32.5564 38.6952 32.7215 38.6952 32.7215ZM42.5999 33.7664C43.7095 33.6899 44.7489 33.3704 45.7166 32.8337C46.6657 32.3026 48.0616 31.2671 47.9168 30.0498C47.8728 29.6557 47.6148 29.3582 47.2892 29.2194C46.8659 29.036 46.6452 29.0656 46.1045 29.2263C45.7117 29.3412 45.5347 29.4109 45.1638 29.6232C44.0753 30.2556 42.5319 31.6091 41.6939 32.6893C41.5006 32.9441 41.3047 33.229 41.1514 33.4243C41.0547 33.5447 40.9796 33.6552 40.989 33.6846C41.0224 33.8071 42.1666 33.7959 42.5999 33.7664ZM39.7747 35.8416C39.6602 35.9627 39.5392 36.2545 39.4136 36.4659C39.3465 36.5789 39.2222 36.7245 39.14 36.7829C38.8512 36.9953 38.6065 37.0052 38.3277 36.7598C37.9367 36.414 37.7106 35.8792 37.6946 35.3589C37.6862 35.1318 37.7252 34.8806 37.6822 34.6892C37.6111 34.3661 37.2877 34.0332 37.1134 33.7243C36.9087 33.3603 36.743 32.7257 36.7224 32.316C36.6522 31.0384 37.3256 29.8616 38.2004 28.9334C39.0814 27.9948 40.234 27.2147 41.4875 26.6836C42.6724 26.1846 44.4087 25.8443 45.7099 26.295C46.1335 26.4401 46.7236 26.8006 47.0202 27.1783C47.0832 27.2566 47.1345 27.3414 47.1991 27.3829C47.257 27.4197 47.4083 27.4343 47.5287 27.4564C47.9437 27.5283 48.5412 27.8425 48.7853 28.0518C49.2757 28.4748 49.5443 28.8792 49.6686 29.466C49.9178 30.6468 49.2379 31.9422 48.4634 32.7307C47.1373 34.0876 45.8276 35.0417 44.1312 35.7058C43.386 35.9969 42.2255 36.2689 41.3802 36.1928C41.1176 36.171 40.848 36.1018 40.5923 36.0849C40.4618 36.0737 39.9849 35.9506 39.9339 35.9159C39.8707 35.8674 39.789 35.8251 39.7747 35.8416ZM41.2898 38.4595C41.3415 38.4682 41.4211 38.4913 41.4896 38.5177C42.0843 38.7439 42.329 39.2943 42.4755 39.8989C42.815 41.3028 42.9599 44.4087 43.0164 45.6244C43.0579 46.5369 43.0807 47.4346 43.1189 48.3366C43.1513 49.1004 43.2123 50.1158 43.053 50.8314C42.9952 51.0888 42.823 51.3881 42.5765 51.5414C42.2942 51.7222 41.6514 51.7359 41.2982 51.6631C40.4274 51.483 40.1444 50.9231 40.0201 50.0619C39.7247 48.007 39.867 43.9741 40.0413 42.2723C40.0993 41.7103 40.311 39.9093 40.6045 39.1542C40.7047 38.8996 40.9181 38.3867 41.2898 38.4595ZM14.7988 41.8784C14.7988 41.8784 13.5028 41.9702 12.6108 42.0691C11.476 42.1914 9.34367 42.5595 8.11285 42.999C7.74366 43.1312 6.99371 43.4451 6.92853 43.8247C6.86003 44.2182 7.10425 44.5259 7.37584 44.8442C7.53289 45.0291 8.42178 45.8842 8.67104 46.092C9.71584 46.9643 11.8344 48.3095 13.3948 48.9628C13.9309 49.1846 14.8177 49.5021 14.8177 49.5021C14.8177 49.5021 14.7519 46.977 14.7637 44.4897C14.7705 43.1775 14.7988 41.8784 14.7988 41.8784ZM38.5624 42.8833C38.6366 43.5617 38.4623 44.8443 38.432 45.0135C38.3768 45.4034 38.0828 46.3029 38.034 46.4126C37.7966 46.9592 37.5626 47.4071 37.3146 47.8538C36.8896 48.6187 35.8791 49.8312 35.2792 50.3501C33.0484 52.2783 29.595 53.3761 26.6323 53.7378C24.6219 53.9806 22.312 53.945 20.1818 53.5508C19.4487 53.4175 18.3577 53.166 18.3577 53.166C18.3577 53.166 18.3613 53.6022 18.3263 53.909C18.3094 54.049 18.204 54.4174 18.1449 54.5367C17.99 54.8567 17.7357 55.0217 17.366 55.0928C16.9197 55.1756 16.4464 55.2032 16.034 55.0269C15.3569 54.742 15.1138 54.1085 14.9958 53.378C14.9004 52.7936 14.8005 51.7779 14.8005 51.7779C14.8005 51.7779 14.294 51.5381 13.8717 51.3273C12.5744 50.6881 11.3423 49.9137 10.2644 49.1172C9.96579 48.8943 8.68284 47.8198 8.39968 47.553C7.60562 46.7992 6.8913 46.0492 6.34788 45.0869C5.92543 44.3351 5.80377 43.6679 6.12508 42.8713C6.56816 41.761 8.16004 40.925 9.24951 40.4486C10.0492 40.0956 12.5357 39.2837 13.5686 39.1331C14.0564 39.0634 14.8131 38.9279 14.8596 38.8976C14.8787 38.8831 14.8918 38.8707 14.9056 38.855C14.9294 38.8215 14.9696 37.7224 14.9618 37.3203C14.9517 36.925 15.2544 34.3286 15.3516 33.7796C15.4024 33.4827 15.6272 32.3397 15.8568 32.0397C16.007 31.837 16.2725 31.8533 16.489 31.9864C17.6736 32.7231 18.0336 35.2779 18.1216 36.5778C18.1743 37.3698 18.2006 38.5611 18.2006 38.5611C18.2006 38.5611 19.5596 38.5209 20.3956 38.5446C21.2079 38.5635 22.1034 38.6917 22.9466 38.826C24.0261 38.9991 26.1302 39.4581 27.337 40.0699C28.3307 40.5737 29.2608 41.4225 29.5622 42.3208C29.8422 43.1443 29.8002 43.7142 29.3738 44.4574C28.8943 45.2965 27.9873 45.9203 27.0677 45.9724C26.794 45.9882 25.764 45.8513 25.447 45.6059C25.3228 45.5081 25.3292 45.3316 25.4189 45.2119C25.4529 45.1699 25.9343 44.9138 26.2185 44.7645C26.361 44.687 26.4789 44.6035 26.5901 44.5022C26.8262 44.2942 27.0387 44.0654 27.015 43.7971C26.9823 43.4489 26.6138 43.2341 26.2626 43.096C24.6147 42.4413 21.3245 41.8979 19.7346 41.8038C19.1123 41.7673 18.227 41.736 18.227 41.736L18.4142 50.5157C18.4142 50.5157 19.1461 50.6551 19.7228 50.7486C20.0537 50.7988 21.4559 50.925 21.8286 50.9342C24.6657 51.0091 27.8323 50.755 30.436 49.5264C31.5791 48.9885 32.6277 48.3187 33.4217 47.412C34.4681 46.2124 35.0161 44.5705 34.8711 42.8556C34.7121 40.9828 33.394 38.7595 32.3414 37.4057C29.5602 33.8292 24.7931 30.8871 20.599 29.1622C16.3172 27.4024 12.0853 26.3901 7.54102 26.2205C6.36953 26.1771 3.81521 26.2362 2.52402 26.5934C2.33959 26.6454 2.15368 26.7075 1.98243 26.746C1.84715 26.7791 1.63397 26.8686 1.57544 26.916C1.54302 26.9422 1.51095 26.9785 1.51095 26.9785C1.51095 26.9785 1.59056 27.0225 1.66662 27.0547C1.80339 27.1143 2.37911 27.1501 2.67705 27.2046C2.94361 27.2548 3.22116 27.3948 3.33101 27.5901C3.43537 27.7758 3.44843 27.9221 3.32368 28.077C3.03112 28.4328 1.92997 28.3728 1.44508 28.296C0.941184 28.2157 0.313801 28.0616 0.198565 27.6228C0.064887 27.1061 0.310365 26.5996 0.575545 26.1313C1.10831 25.1944 1.87143 24.7071 2.98897 24.402C4.57627 23.9652 6.58053 23.6598 8.0794 23.6025C11.4719 23.4743 14.6827 24.0676 17.9696 25.0655C19.8509 25.6344 22.3138 26.5889 24.1169 27.4571C25.4107 28.0809 27.4492 29.2281 28.5944 29.9778C28.9555 30.2162 31.0691 31.7692 31.3974 32.0421C32.0823 32.602 32.978 33.4069 33.6267 34.0505C34.8817 35.2942 36.4427 37.2005 37.201 38.7136C37.3835 39.0759 37.5248 39.4323 37.7602 39.8523C37.8412 39.9961 38.1876 40.8566 38.2452 41.1052C38.3023 41.3511 38.3859 41.7127 38.3977 41.727C38.4144 41.8591 38.575 42.5984 38.5624 42.8833ZM81.2115 40.9421C79.6228 41.3084 75.4451 41.5119 75.4451 41.5119L74.9183 43.162C74.9183 43.162 77.0061 42.9838 78.5249 43.1425C78.5249 43.1425 79.017 43.0853 79.0748 43.7011C79.0944 44.2755 79.026 44.8917 79.026 44.8917C79.026 44.8917 78.9945 45.2646 78.4661 45.3594C77.8935 45.4549 73.9662 45.6067 73.9662 45.6067L73.3302 47.7577C73.3302 47.7577 73.0939 48.255 73.6236 48.1131C74.1157 47.9813 78.2307 47.2092 78.7667 47.3203C79.341 47.4629 79.9767 48.2287 79.7929 48.9265C79.5739 49.7914 75.4668 52.4108 72.9656 52.228C72.9656 52.228 71.6513 52.3128 70.5404 50.539C69.5058 48.8487 70.9325 45.6482 70.9325 45.6482C70.9325 45.6482 70.2785 44.1542 70.7524 43.6477C70.7524 43.6477 71.0344 43.3918 71.8565 43.334L72.8632 41.2514C72.8632 41.2514 71.7166 41.3303 71.0344 40.4868C70.399 39.6865 70.3458 39.3187 70.8329 39.0977C71.3539 38.8405 76.129 37.969 79.4148 38.0795C79.4148 38.0795 80.5567 37.9674 81.5471 39.9482C81.5474 39.9483 82.0271 40.7493 81.2115 40.9421ZM68.8527 48.9497C68.4316 49.9402 67.3193 50.9973 65.9374 50.3402C64.5732 49.6818 62.4003 45.2346 62.4003 45.2346C62.4003 45.2346 61.5755 43.5763 61.4168 43.619C61.4168 43.619 61.2386 43.2952 61.1293 45.1073C61.0157 46.9118 61.1512 50.4304 60.4313 50.9842C59.7494 51.5396 58.9238 51.3185 58.4956 50.6697C58.1063 50.0305 57.9444 48.5117 58.1567 45.8442C58.4063 43.1716 59.0272 40.328 59.8205 39.4425C60.6126 38.563 61.2485 39.2015 61.4964 39.4331C61.4964 39.4331 62.556 40.3935 64.3033 43.2136L64.6117 43.7352C64.6117 43.7352 66.1996 46.3995 66.3654 46.3934C66.3654 46.3934 66.4952 46.5158 66.6109 46.4278C66.7776 46.3802 66.7103 45.5259 66.7103 45.5259C66.7103 45.5259 66.3809 42.6223 64.9323 37.7077C64.9323 37.7077 64.7133 37.0949 64.8614 36.5206C65.0085 35.9403 65.5902 36.2127 65.5902 36.2127C65.5902 36.2127 67.8353 37.3416 68.9251 40.997C70.0077 44.6535 69.2802 47.9518 68.8527 48.9497ZM93.0162 46.7605C91.9942 48.5437 89.1089 52.2775 85.2745 51.3959C84.0083 54.4665 82.9446 57.5727 82.3364 62.2207C82.3364 62.2207 82.2027 63.1239 81.4521 62.8101C80.7082 62.5498 79.4828 61.313 79.235 59.602C78.9683 57.3544 79.9689 53.5549 82.0139 49.1983C81.4175 48.2287 81.0108 46.8433 81.3589 44.8707C81.3589 44.8707 81.8726 41.2075 85.5515 37.9059C85.5515 37.9059 85.9925 37.525 86.2482 37.6423C86.5299 37.7604 86.3994 38.9524 86.1759 39.532C85.9437 40.1083 84.3059 42.9437 84.3059 42.9437C84.3059 42.9437 83.2843 44.8593 83.5718 46.3702C85.5012 43.4037 89.8873 37.4218 92.6059 39.3082C93.5191 39.9616 93.94 41.3828 93.94 42.9142C93.9406 44.2593 93.6162 45.689 93.0162 46.7605ZM92.2228 42.0624C92.2228 42.0624 92.0715 40.883 90.9185 42.1823C89.9267 43.2788 88.1379 45.3331 86.6979 48.1234C88.2088 47.9537 89.6661 47.134 90.1068 46.7165C90.8232 46.0809 92.492 44.3563 92.2228 42.0624ZM114.139 41.7939H107.112C106.972 39.4054 106.683 37.0788 106.23 34.6827C106.184 34.4347 105.968 34.2549 105.717 34.2549H104.096C103.955 34.2549 103.822 34.3182 103.731 34.4287C103.639 34.5411 103.603 34.6841 103.63 34.824C104.09 37.1427 104.382 39.4249 104.526 41.7962H97.765C97.45 41.7962 97.1941 42.0513 97.1941 42.365V43.8262C97.1941 44.1406 97.45 44.3976 97.765 44.3976H104.623C104.627 44.7582 104.631 45.0811 104.631 45.3841C104.631 47.4899 104.54 49.2247 104.327 51.1823C104.311 51.3336 104.36 51.4842 104.463 51.5952C104.562 51.7072 104.705 51.771 104.854 51.771H106.357C106.65 51.771 106.893 51.5503 106.922 51.2583C107.128 49.2874 107.216 47.5312 107.216 45.3839C107.216 45.0821 107.212 44.7581 107.208 44.3975H114.139C114.453 44.3975 114.71 44.1405 114.71 43.8261V42.3649C114.71 42.0498 114.453 41.7939 114.139 41.7939Z" fill="white"/>
<path d="M20.1743 22.2137C20.0748 22.3617 20.0507 22.5433 20.1079 22.7139C20.1676 22.8841 20.2973 23.0135 20.465 23.0723L21.7247 23.4962C21.8009 23.5201 21.8766 23.5325 21.9509 23.5325C22.1843 23.5325 22.4034 23.417 22.5332 23.2229C26.6595 17.1611 32.244 12.114 38.6839 8.62712C45.3323 5.02686 52.8649 3.12249 60.4697 3.12249C69.6551 3.12249 78.5177 5.83202 86.1001 10.9576C93.4984 15.9572 99.2442 22.9325 102.716 31.1298C102.82 31.3751 103.06 31.5333 103.325 31.5333H104.83C105.003 31.5333 105.166 31.446 105.264 31.3011C105.363 31.1566 105.381 30.9729 105.316 30.8104C101.735 21.9967 95.6809 14.4833 87.8047 9.08543C79.7418 3.55926 70.2895 0.637695 60.4697 0.637695C44.2357 0.637695 29.1715 8.70375 20.1743 22.2137Z" fill="white"/>
</g>
<defs>
<clipPath id="clip0">
<rect width="114.549" height="62.2387" fill="white" transform="translate(0.161194 0.637573)"/>
</clipPath>
</defs>
</svg>
