<svg width="132" height="132" viewBox="0 0 132 132" fill="none" xmlns="http://www.w3.org/2000/svg">
<path d="M5.31191 0.10614H2.78877C1.39528 0.10614 0.265625 1.23579 0.265625 2.62929V5.15242C0.265625 6.54592 1.39528 7.67557 2.78877 7.67557H5.31191C6.7054 7.67557 7.83506 6.54592 7.83506 5.15242V2.62929C7.83506 1.23579 6.7054 0.10614 5.31191 0.10614Z" fill="white"/>
<path d="M22.9741 0.10614H20.451C19.0575 0.10614 17.9279 1.23579 17.9279 2.62929V5.15242C17.9279 6.54592 19.0575 7.67557 20.451 7.67557H22.9741C24.3676 7.67557 25.4973 6.54592 25.4973 5.15242V2.62929C25.4973 1.23579 24.3676 0.10614 22.9741 0.10614Z" fill="white"/>
<path d="M40.6365 0.10614H38.1134C36.7199 0.10614 35.5902 1.23579 35.5902 2.62929V5.15242C35.5902 6.54592 36.7199 7.67557 38.1134 7.67557H40.6365C42.03 7.67557 43.1596 6.54592 43.1596 5.15242V2.62929C43.1596 1.23579 42.03 0.10614 40.6365 0.10614Z" fill="white"/>
<path d="M58.2976 0.10614H55.7745C54.381 0.10614 53.2513 1.23579 53.2513 2.62929V5.15242C53.2513 6.54592 54.381 7.67557 55.7745 7.67557H58.2976C59.6911 7.67557 60.8208 6.54592 60.8208 5.15242V2.62929C60.8208 1.23579 59.6911 0.10614 58.2976 0.10614Z" fill="white"/>
<path d="M75.9605 0.10614H73.4373C72.0438 0.10614 70.9142 1.23579 70.9142 2.62929V5.15242C70.9142 6.54592 72.0438 7.67557 73.4373 7.67557H75.9605C77.354 7.67557 78.4836 6.54592 78.4836 5.15242V2.62929C78.4836 1.23579 77.354 0.10614 75.9605 0.10614Z" fill="white"/>
<path d="M93.6225 0.10614H91.0993C89.7058 0.10614 88.5762 1.23579 88.5762 2.62929V5.15242C88.5762 6.54592 89.7058 7.67557 91.0993 7.67557H93.6225C95.0159 7.67557 96.1456 6.54592 96.1456 5.15242V2.62929C96.1456 1.23579 95.0159 0.10614 93.6225 0.10614Z" fill="white"/>
<path d="M111.284 0.10614H108.761C107.368 0.10614 106.238 1.23579 106.238 2.62929V5.15242C106.238 6.54592 107.368 7.67557 108.761 7.67557H111.284C112.678 7.67557 113.808 6.54592 113.808 5.15242V2.62929C113.808 1.23579 112.678 0.10614 111.284 0.10614Z" fill="white"/>
<path d="M128.946 0.10614H126.422C125.029 0.10614 123.899 1.23579 123.899 2.62929V5.15242C123.899 6.54592 125.029 7.67557 126.422 7.67557H128.946C130.339 7.67557 131.469 6.54592 131.469 5.15242V2.62929C131.469 1.23579 130.339 0.10614 128.946 0.10614Z" fill="white"/>
<path d="M5.31191 17.7681H2.78877C1.39528 17.7681 0.265625 18.8978 0.265625 20.2913V22.8144C0.265625 24.2079 1.39528 25.3376 2.78877 25.3376H5.31191C6.7054 25.3376 7.83506 24.2079 7.83506 22.8144V20.2913C7.83506 18.8978 6.7054 17.7681 5.31191 17.7681Z" fill="white"/>
<path d="M22.9741 17.7681H20.451C19.0575 17.7681 17.9279 18.8978 17.9279 20.2913V22.8144C17.9279 24.2079 19.0575 25.3376 20.451 25.3376H22.9741C24.3676 25.3376 25.4973 24.2079 25.4973 22.8144V20.2913C25.4973 18.8978 24.3676 17.7681 22.9741 17.7681Z" fill="#345DED"/>
<path d="M40.6365 17.7681H38.1134C36.7199 17.7681 35.5902 18.8978 35.5902 20.2913V22.8144C35.5902 24.2079 36.7199 25.3376 38.1134 25.3376H40.6365C42.03 25.3376 43.1596 24.2079 43.1596 22.8144V20.2913C43.1596 18.8978 42.03 17.7681 40.6365 17.7681Z" fill="white"/>
<path d="M58.2976 17.7681H55.7745C54.381 17.7681 53.2513 18.8978 53.2513 20.2913V22.8144C53.2513 24.2079 54.381 25.3376 55.7745 25.3376H58.2976C59.6911 25.3376 60.8208 24.2079 60.8208 22.8144V20.2913C60.8208 18.8978 59.6911 17.7681 58.2976 17.7681Z" fill="white"/>
<path d="M75.9605 17.7681H73.4373C72.0438 17.7681 70.9142 18.8978 70.9142 20.2913V22.8144C70.9142 24.2079 72.0438 25.3376 73.4373 25.3376H75.9605C77.354 25.3376 78.4836 24.2079 78.4836 22.8144V20.2913C78.4836 18.8978 77.354 17.7681 75.9605 17.7681Z" fill="white"/>
<path d="M93.6225 17.7681H91.0993C89.7058 17.7681 88.5762 18.8978 88.5762 20.2913V22.8144C88.5762 24.2079 89.7058 25.3376 91.0993 25.3376H93.6225C95.0159 25.3376 96.1456 24.2079 96.1456 22.8144V20.2913C96.1456 18.8978 95.0159 17.7681 93.6225 17.7681Z" fill="white"/>
<path d="M111.284 17.7681H108.761C107.368 17.7681 106.238 18.8978 106.238 20.2913V22.8144C106.238 24.2079 107.368 25.3376 108.761 25.3376H111.284C112.678 25.3376 113.808 24.2079 113.808 22.8144V20.2913C113.808 18.8978 112.678 17.7681 111.284 17.7681Z" fill="#345DED"/>
<path d="M128.946 17.7681H126.422C125.029 17.7681 123.899 18.8978 123.899 20.2913V22.8144C123.899 24.2079 125.029 25.3376 126.422 25.3376H128.946C130.339 25.3376 131.469 24.2079 131.469 22.8144V20.2913C131.469 18.8978 130.339 17.7681 128.946 17.7681Z" fill="white"/>
<path d="M5.31191 35.4301H2.78877C1.39528 35.4301 0.265625 36.5598 0.265625 37.9533V40.4764C0.265625 41.8699 1.39528 42.9995 2.78877 42.9995H5.31191C6.7054 42.9995 7.83506 41.8699 7.83506 40.4764V37.9533C7.83506 36.5598 6.7054 35.4301 5.31191 35.4301Z" fill="white"/>
<path d="M22.9741 35.4301H20.451C19.0575 35.4301 17.9279 36.5598 17.9279 37.9533V40.4764C17.9279 41.8699 19.0575 42.9995 20.451 42.9995H22.9741C24.3676 42.9995 25.4973 41.8699 25.4973 40.4764V37.9533C25.4973 36.5598 24.3676 35.4301 22.9741 35.4301Z" fill="white"/>
<path d="M40.6365 35.4301H38.1134C36.7199 35.4301 35.5902 36.5598 35.5902 37.9533V40.4764C35.5902 41.8699 36.7199 42.9995 38.1134 42.9995H40.6365C42.03 42.9995 43.1596 41.8699 43.1596 40.4764V37.9533C43.1596 36.5598 42.03 35.4301 40.6365 35.4301Z" fill="white"/>
<path d="M58.2976 35.4301H55.7745C54.381 35.4301 53.2513 36.5598 53.2513 37.9533V40.4764C53.2513 41.8699 54.381 42.9995 55.7745 42.9995H58.2976C59.6911 42.9995 60.8208 41.8699 60.8208 40.4764V37.9533C60.8208 36.5598 59.6911 35.4301 58.2976 35.4301Z" fill="white"/>
<path d="M75.9605 35.4301H73.4373C72.0438 35.4301 70.9142 36.5598 70.9142 37.9533V40.4764C70.9142 41.8699 72.0438 42.9995 73.4373 42.9995H75.9605C77.354 42.9995 78.4836 41.8699 78.4836 40.4764V37.9533C78.4836 36.5598 77.354 35.4301 75.9605 35.4301Z" fill="white"/>
<path d="M93.6225 35.4301H91.0993C89.7058 35.4301 88.5762 36.5598 88.5762 37.9533V40.4764C88.5762 41.8699 89.7058 42.9995 91.0993 42.9995H93.6225C95.0159 42.9995 96.1456 41.8699 96.1456 40.4764V37.9533C96.1456 36.5598 95.0159 35.4301 93.6225 35.4301Z" fill="white"/>
<path d="M111.284 35.4301H108.761C107.368 35.4301 106.238 36.5598 106.238 37.9533V40.4764C106.238 41.8699 107.368 42.9995 108.761 42.9995H111.284C112.678 42.9995 113.808 41.8699 113.808 40.4764V37.9533C113.808 36.5598 112.678 35.4301 111.284 35.4301Z" fill="white"/>
<path d="M128.946 35.4301H126.422C125.029 35.4301 123.899 36.5598 123.899 37.9533V40.4764C123.899 41.8699 125.029 42.9995 126.422 42.9995H128.946C130.339 42.9995 131.469 41.8699 131.469 40.4764V37.9533C131.469 36.5598 130.339 35.4301 128.946 35.4301Z" fill="white"/>
<path d="M5.31191 53.092H2.78877C1.39528 53.092 0.265625 54.2217 0.265625 55.6152V58.1383C0.265625 59.5318 1.39528 60.6615 2.78877 60.6615H5.31191C6.7054 60.6615 7.83506 59.5318 7.83506 58.1383V55.6152C7.83506 54.2217 6.7054 53.092 5.31191 53.092Z" fill="white"/>
<path d="M22.9741 53.092H20.451C19.0575 53.092 17.9279 54.2217 17.9279 55.6152V58.1383C17.9279 59.5318 19.0575 60.6615 20.451 60.6615H22.9741C24.3676 60.6615 25.4973 59.5318 25.4973 58.1383V55.6152C25.4973 54.2217 24.3676 53.092 22.9741 53.092Z" fill="#345DED"/>
<path d="M40.6365 53.092H38.1134C36.7199 53.092 35.5902 54.2217 35.5902 55.6152V58.1383C35.5902 59.5318 36.7199 60.6615 38.1134 60.6615H40.6365C42.03 60.6615 43.1596 59.5318 43.1596 58.1383V55.6152C43.1596 54.2217 42.03 53.092 40.6365 53.092Z" fill="white"/>
<path d="M58.2976 53.092H55.7745C54.381 53.092 53.2513 54.2217 53.2513 55.6152V58.1383C53.2513 59.5318 54.381 60.6615 55.7745 60.6615H58.2976C59.6911 60.6615 60.8208 59.5318 60.8208 58.1383V55.6152C60.8208 54.2217 59.6911 53.092 58.2976 53.092Z" fill="white"/>
<path d="M75.9605 53.092H73.4373C72.0438 53.092 70.9142 54.2217 70.9142 55.6152V58.1383C70.9142 59.5318 72.0438 60.6615 73.4373 60.6615H75.9605C77.354 60.6615 78.4836 59.5318 78.4836 58.1383V55.6152C78.4836 54.2217 77.354 53.092 75.9605 53.092Z" fill="white"/>
<path d="M93.6225 53.092H91.0993C89.7058 53.092 88.5762 54.2217 88.5762 55.6152V58.1383C88.5762 59.5318 89.7058 60.6615 91.0993 60.6615H93.6225C95.0159 60.6615 96.1456 59.5318 96.1456 58.1383V55.6152C96.1456 54.2217 95.0159 53.092 93.6225 53.092Z" fill="white"/>
<path d="M111.284 53.092H108.761C107.368 53.092 106.238 54.2217 106.238 55.6152V58.1383C106.238 59.5318 107.368 60.6615 108.761 60.6615H111.284C112.678 60.6615 113.808 59.5318 113.808 58.1383V55.6152C113.808 54.2217 112.678 53.092 111.284 53.092Z" fill="white"/>
<path d="M128.946 53.092H126.422C125.029 53.092 123.899 54.2217 123.899 55.6152V58.1383C123.899 59.5318 125.029 60.6615 126.422 60.6615H128.946C130.339 60.6615 131.469 59.5318 131.469 58.1383V55.6152C131.469 54.2217 130.339 53.092 128.946 53.092Z" fill="#345DED"/>
<path d="M5.31191 70.754H2.78877C1.39528 70.754 0.265625 71.8837 0.265625 73.2772V75.8003C0.265625 77.1938 1.39528 78.3235 2.78877 78.3235H5.31191C6.7054 78.3235 7.83506 77.1938 7.83506 75.8003V73.2772C7.83506 71.8837 6.7054 70.754 5.31191 70.754Z" fill="white"/>
<path d="M22.9741 70.754H20.451C19.0575 70.754 17.9279 71.8837 17.9279 73.2772V75.8003C17.9279 77.1938 19.0575 78.3235 20.451 78.3235H22.9741C24.3676 78.3235 25.4973 77.1938 25.4973 75.8003V73.2772C25.4973 71.8837 24.3676 70.754 22.9741 70.754Z" fill="white"/>
<path d="M40.6365 70.754H38.1134C36.7199 70.754 35.5902 71.8837 35.5902 73.2772V75.8003C35.5902 77.1938 36.7199 78.3235 38.1134 78.3235H40.6365C42.03 78.3235 43.1596 77.1938 43.1596 75.8003V73.2772C43.1596 71.8837 42.03 70.754 40.6365 70.754Z" fill="white"/>
<path d="M58.2976 70.754H55.7745C54.381 70.754 53.2513 71.8837 53.2513 73.2772V75.8003C53.2513 77.1938 54.381 78.3235 55.7745 78.3235H58.2976C59.6911 78.3235 60.8208 77.1938 60.8208 75.8003V73.2772C60.8208 71.8837 59.6911 70.754 58.2976 70.754Z" fill="white"/>
<path d="M75.9605 70.754H73.4373C72.0438 70.754 70.9142 71.8837 70.9142 73.2772V75.8003C70.9142 77.1938 72.0438 78.3235 73.4373 78.3235H75.9605C77.354 78.3235 78.4836 77.1938 78.4836 75.8003V73.2772C78.4836 71.8837 77.354 70.754 75.9605 70.754Z" fill="white"/>
<path d="M93.6225 70.754H91.0993C89.7058 70.754 88.5762 71.8837 88.5762 73.2772V75.8003C88.5762 77.1938 89.7058 78.3235 91.0993 78.3235H93.6225C95.0159 78.3235 96.1456 77.1938 96.1456 75.8003V73.2772C96.1456 71.8837 95.0159 70.754 93.6225 70.754Z" fill="white"/>
<path d="M111.284 70.754H108.761C107.368 70.754 106.238 71.8837 106.238 73.2772V75.8003C106.238 77.1938 107.368 78.3235 108.761 78.3235H111.284C112.678 78.3235 113.808 77.1938 113.808 75.8003V73.2772C113.808 71.8837 112.678 70.754 111.284 70.754Z" fill="white"/>
<path d="M128.946 70.754H126.422C125.029 70.754 123.899 71.8837 123.899 73.2772V75.8003C123.899 77.1938 125.029 78.3235 126.422 78.3235H128.946C130.339 78.3235 131.469 77.1938 131.469 75.8003V73.2772C131.469 71.8837 130.339 70.754 128.946 70.754Z" fill="white"/>
<path d="M5.31191 88.416H2.78877C1.39528 88.416 0.265625 89.5457 0.265625 90.9392V93.4623C0.265625 94.8558 1.39528 95.9854 2.78877 95.9854H5.31191C6.7054 95.9854 7.83506 94.8558 7.83506 93.4623V90.9392C7.83506 89.5457 6.7054 88.416 5.31191 88.416Z" fill="white"/>
<path d="M22.9741 88.416H20.451C19.0575 88.416 17.9279 89.5457 17.9279 90.9392V93.4623C17.9279 94.8558 19.0575 95.9854 20.451 95.9854H22.9741C24.3676 95.9854 25.4973 94.8558 25.4973 93.4623V90.9392C25.4973 89.5457 24.3676 88.416 22.9741 88.416Z" fill="white"/>
<path d="M40.6365 88.416H38.1134C36.7199 88.416 35.5902 89.5457 35.5902 90.9392V93.4623C35.5902 94.8558 36.7199 95.9854 38.1134 95.9854H40.6365C42.03 95.9854 43.1596 94.8558 43.1596 93.4623V90.9392C43.1596 89.5457 42.03 88.416 40.6365 88.416Z" fill="white"/>
<path d="M58.2976 88.416H55.7745C54.381 88.416 53.2513 89.5457 53.2513 90.9392V93.4623C53.2513 94.8558 54.381 95.9854 55.7745 95.9854H58.2976C59.6911 95.9854 60.8208 94.8558 60.8208 93.4623V90.9392C60.8208 89.5457 59.6911 88.416 58.2976 88.416Z" fill="#345DED"/>
<path d="M75.9605 88.416H73.4373C72.0438 88.416 70.9142 89.5457 70.9142 90.9392V93.4623C70.9142 94.8558 72.0438 95.9854 73.4373 95.9854H75.9605C77.354 95.9854 78.4836 94.8558 78.4836 93.4623V90.9392C78.4836 89.5457 77.354 88.416 75.9605 88.416Z" fill="white"/>
<path d="M93.6225 88.416H91.0993C89.7058 88.416 88.5762 89.5457 88.5762 90.9392V93.4623C88.5762 94.8558 89.7058 95.9854 91.0993 95.9854H93.6225C95.0159 95.9854 96.1456 94.8558 96.1456 93.4623V90.9392C96.1456 89.5457 95.0159 88.416 93.6225 88.416Z" fill="white"/>
<path d="M111.284 88.416H108.761C107.368 88.416 106.238 89.5457 106.238 90.9392V93.4623C106.238 94.8558 107.368 95.9854 108.761 95.9854H111.284C112.678 95.9854 113.808 94.8558 113.808 93.4623V90.9392C113.808 89.5457 112.678 88.416 111.284 88.416Z" fill="white"/>
<path d="M128.946 88.416H126.422C125.029 88.416 123.899 89.5457 123.899 90.9392V93.4623C123.899 94.8558 125.029 95.9854 126.422 95.9854H128.946C130.339 95.9854 131.469 94.8558 131.469 93.4623V90.9392C131.469 89.5457 130.339 88.416 128.946 88.416Z" fill="white"/>
<path d="M5.31191 106.078H2.78877C1.39528 106.078 0.265625 107.208 0.265625 108.601V111.124C0.265625 112.518 1.39528 113.647 2.78877 113.647H5.31191C6.7054 113.647 7.83506 112.518 7.83506 111.124V108.601C7.83506 107.208 6.7054 106.078 5.31191 106.078Z" fill="white"/>
<path d="M22.9741 106.078H20.451C19.0575 106.078 17.9279 107.208 17.9279 108.601V111.124C17.9279 112.518 19.0575 113.647 20.451 113.647H22.9741C24.3676 113.647 25.4973 112.518 25.4973 111.124V108.601C25.4973 107.208 24.3676 106.078 22.9741 106.078Z" fill="#345DED"/>
<path d="M40.6365 106.078H38.1134C36.7199 106.078 35.5902 107.208 35.5902 108.601V111.124C35.5902 112.518 36.7199 113.647 38.1134 113.647H40.6365C42.03 113.647 43.1596 112.518 43.1596 111.124V108.601C43.1596 107.208 42.03 106.078 40.6365 106.078Z" fill="white"/>
<path d="M58.2976 106.078H55.7745C54.381 106.078 53.2513 107.208 53.2513 108.601V111.124C53.2513 112.518 54.381 113.647 55.7745 113.647H58.2976C59.6911 113.647 60.8208 112.518 60.8208 111.124V108.601C60.8208 107.208 59.6911 106.078 58.2976 106.078Z" fill="white"/>
<path d="M75.9605 106.078H73.4373C72.0438 106.078 70.9142 107.208 70.9142 108.601V111.124C70.9142 112.518 72.0438 113.647 73.4373 113.647H75.9605C77.354 113.647 78.4836 112.518 78.4836 111.124V108.601C78.4836 107.208 77.354 106.078 75.9605 106.078Z" fill="white"/>
<path d="M93.6225 106.078H91.0993C89.7058 106.078 88.5762 107.208 88.5762 108.601V111.124C88.5762 112.518 89.7058 113.647 91.0993 113.647H93.6225C95.0159 113.647 96.1456 112.518 96.1456 111.124V108.601C96.1456 107.208 95.0159 106.078 93.6225 106.078Z" fill="white"/>
<path d="M111.284 106.078H108.761C107.368 106.078 106.238 107.208 106.238 108.601V111.124C106.238 112.518 107.368 113.647 108.761 113.647H111.284C112.678 113.647 113.808 112.518 113.808 111.124V108.601C113.808 107.208 112.678 106.078 111.284 106.078Z" fill="#345DED"/>
<path d="M128.946 106.078H126.422C125.029 106.078 123.899 107.208 123.899 108.601V111.124C123.899 112.518 125.029 113.647 126.422 113.647H128.946C130.339 113.647 131.469 112.518 131.469 111.124V108.601C131.469 107.208 130.339 106.078 128.946 106.078Z" fill="white"/>
<path d="M5.31191 123.74H2.78877C1.39528 123.74 0.265625 124.869 0.265625 126.263V128.786C0.265625 130.179 1.39528 131.309 2.78877 131.309H5.31191C6.7054 131.309 7.83506 130.179 7.83506 128.786V126.263C7.83506 124.869 6.7054 123.74 5.31191 123.74Z" fill="white"/>
<path d="M22.9741 123.74H20.451C19.0575 123.74 17.9279 124.869 17.9279 126.263V128.786C17.9279 130.179 19.0575 131.309 20.451 131.309H22.9741C24.3676 131.309 25.4973 130.179 25.4973 128.786V126.263C25.4973 124.869 24.3676 123.74 22.9741 123.74Z" fill="white"/>
<path d="M40.6365 123.74H38.1134C36.7199 123.74 35.5902 124.869 35.5902 126.263V128.786C35.5902 130.179 36.7199 131.309 38.1134 131.309H40.6365C42.03 131.309 43.1596 130.179 43.1596 128.786V126.263C43.1596 124.869 42.03 123.74 40.6365 123.74Z" fill="white"/>
<path d="M58.2976 123.74H55.7745C54.381 123.74 53.2513 124.869 53.2513 126.263V128.786C53.2513 130.179 54.381 131.309 55.7745 131.309H58.2976C59.6911 131.309 60.8208 130.179 60.8208 128.786V126.263C60.8208 124.869 59.6911 123.74 58.2976 123.74Z" fill="white"/>
<path d="M75.9605 123.74H73.4373C72.0438 123.74 70.9142 124.869 70.9142 126.263V128.786C70.9142 130.179 72.0438 131.309 73.4373 131.309H75.9605C77.354 131.309 78.4836 130.179 78.4836 128.786V126.263C78.4836 124.869 77.354 123.74 75.9605 123.74Z" fill="white"/>
<path d="M93.6225 123.74H91.0993C89.7058 123.74 88.5762 124.869 88.5762 126.263V128.786C88.5762 130.179 89.7058 131.309 91.0993 131.309H93.6225C95.0159 131.309 96.1456 130.179 96.1456 128.786V126.263C96.1456 124.869 95.0159 123.74 93.6225 123.74Z" fill="#345DED"/>
<path d="M111.284 123.74H108.761C107.368 123.74 106.238 124.869 106.238 126.263V128.786C106.238 130.179 107.368 131.309 108.761 131.309H111.284C112.678 131.309 113.808 130.179 113.808 128.786V126.263C113.808 124.869 112.678 123.74 111.284 123.74Z" fill="white"/>
<path d="M128.946 123.74H126.422C125.029 123.74 123.899 124.869 123.899 126.263V128.786C123.899 130.179 125.029 131.309 126.422 131.309H128.946C130.339 131.309 131.469 130.179 131.469 128.786V126.263C131.469 124.869 130.339 123.74 128.946 123.74Z" fill="white"/>
</svg>
