<svg width="302" height="91" viewBox="0 0 302 91" fill="none" xmlns="http://www.w3.org/2000/svg">
<rect x="2.45715" y="2.07391" width="297.106" height="87.1686" rx="18.3918" stroke="white" stroke-width="3.19361"/>
<g opacity="0.6">
<path opacity="0.6" d="M44.8922 41.6388L34.2849 46.463L44.8922 52.7299L55.4955 46.463L44.8922 41.6388Z" fill="white"/>
</g>
<g opacity="0.45">
<path opacity="0.45" d="M34.285 46.4637L44.8924 52.7306V28.864L34.285 46.4637Z" fill="white"/>
</g>
<g opacity="0.8">
<path opacity="0.8" d="M44.892 28.8634V52.73L55.4953 46.4632L44.892 28.8634Z" fill="white"/>
</g>
<g opacity="0.45">
<path opacity="0.45" d="M34.2849 48.4726L44.8922 63.4163V54.7395L34.2849 48.4726Z" fill="white"/>
</g>
<g opacity="0.8">
<path opacity="0.8" d="M44.892 54.7395V63.4163L55.5036 48.4726L44.892 54.7395Z" fill="white"/>
</g>
<mask id="path-7-outside-1" maskUnits="userSpaceOnUse" x="72.1358" y="28.2524" width="197" height="36" fill="black">
<rect fill="white" x="72.1358" y="28.2524" width="197" height="36"/>
<path d="M90.6997 53.4726C90.6997 53.9017 90.3404 54.251 89.9113 54.251H74.7225C75.1018 58.0033 77.9259 61.4263 81.8978 61.4263C84.6122 61.4263 86.628 60.3884 88.1449 58.2228C88.3645 57.9235 88.6938 57.7339 89.1129 57.9135C89.3425 58.0133 89.5021 58.2228 89.5421 58.4624C89.582 58.7118 89.5121 58.8515 89.4423 58.9913C87.9154 61.6558 84.8717 62.9631 81.8878 62.9631C76.7783 62.9631 73.1358 58.3925 73.1358 53.5025C73.1358 48.6126 76.7783 44.042 81.8878 44.042C86.9973 44.032 90.6897 48.5927 90.6997 53.4726ZM89.073 52.7341C88.7437 48.9819 85.8696 45.5589 81.8978 45.5589C77.9259 45.5589 75.1018 48.9819 74.7225 52.7341H89.073ZM109.132 44.4113C109.571 44.4113 109.89 44.7905 109.89 45.1697C109.89 45.6088 109.561 45.9281 109.132 45.9281H105.06V61.9053C105.06 62.2845 104.731 62.6637 104.302 62.6637C103.863 62.6637 103.543 62.2845 103.543 61.9053V45.9281H99.6313C99.1922 45.9281 98.8729 45.5988 98.8729 45.1697C98.8729 44.7905 99.2022 44.4113 99.6313 44.4113H103.543V38.5633C103.543 38.194 103.793 37.8547 104.152 37.7949C104.661 37.715 105.06 38.0643 105.06 38.5433V44.4113H109.132ZM133.971 52.1354V61.8155C133.971 62.2545 133.591 62.5739 133.212 62.5739C132.773 62.5739 132.454 62.2446 132.454 61.8155V52.1354C132.454 48.8721 130.608 45.6088 126.965 45.6088C122.295 45.6088 120.279 49.6904 120.548 53.8718C120.548 53.9816 120.598 54.4706 120.598 54.5205V61.7855C120.598 62.1547 120.349 62.4941 119.989 62.5539C119.48 62.6338 119.081 62.2845 119.081 61.8055V30.0109C119.081 29.6317 119.411 29.2524 119.84 29.2524C120.279 29.2524 120.598 29.6317 120.598 30.0109V48.0039C121.905 45.6687 124.241 44.0919 126.955 44.0919C131.416 44.0919 133.971 48.0039 133.971 52.1354ZM161.205 53.4726C161.205 53.9017 160.845 54.251 160.416 54.251H145.218C145.597 58.0033 148.421 61.4263 152.393 61.4263C155.107 61.4263 157.123 60.3884 158.64 58.2228C158.859 57.9235 159.189 57.7339 159.608 57.9135C159.837 58.0133 159.997 58.2228 160.037 58.4624C160.077 58.7118 160.007 58.8515 159.937 58.9913C158.41 61.6558 155.367 62.9631 152.383 62.9631C147.273 62.9631 143.631 58.3925 143.631 53.5025C143.631 48.6126 147.273 44.042 152.383 44.042C157.502 44.032 161.195 48.5927 161.205 53.4726ZM159.568 52.7341C159.239 48.9819 156.365 45.5589 152.393 45.5589C148.421 45.5589 145.597 48.9819 145.218 52.7341H159.568ZM179.846 45.1198C179.846 45.6088 179.577 45.8782 179.138 45.9381C174.677 46.5868 172.671 50.2293 172.671 54.4706V61.7356C172.671 62.1049 172.422 62.4442 172.062 62.504C171.553 62.5839 171.154 62.2346 171.154 61.7556V45.1996C171.154 44.8304 171.404 44.4911 171.763 44.4312C172.272 44.3514 172.671 44.7007 172.671 45.1797V48.5527C173.918 46.4371 176.423 44.4212 179.028 44.4212C179.407 44.4113 179.846 44.6907 179.846 45.1198ZM204.795 53.4726C204.795 53.9017 204.436 54.251 204.007 54.251H188.818C189.197 58.0033 192.021 61.4263 195.993 61.4263C198.707 61.4263 200.723 60.3884 202.24 58.2228C202.46 57.9235 202.789 57.7339 203.208 57.9135C203.438 58.0133 203.597 58.2228 203.637 58.4624C203.677 58.7118 203.607 58.8515 203.538 58.9913C202.011 61.6558 198.967 62.9631 195.983 62.9631C190.874 62.9631 187.231 58.3925 187.231 53.5025C187.231 48.6126 190.874 44.042 195.983 44.042C201.093 44.032 204.785 48.5927 204.795 53.4726ZM203.168 52.7341C202.839 48.9819 199.965 45.5589 195.993 45.5589C192.021 45.5589 189.197 48.9819 188.818 52.7341H203.168ZM229.315 45.3094V61.9053C229.315 62.3444 228.935 62.6637 228.556 62.6637C228.117 62.6637 227.798 62.3344 227.798 61.9053V58.7518C226.55 61.2566 224.315 63.0429 221.491 63.0429C216.98 63.0429 214.475 59.131 214.475 54.9995V45.2695C214.475 44.8903 214.804 44.511 215.233 44.511C215.673 44.511 215.992 44.8903 215.992 45.2695V54.9995C215.992 58.2628 217.838 61.526 221.481 61.526C226.59 61.526 227.788 56.7459 227.788 51.4667V45.2695C227.788 44.8304 228.227 44.3813 228.766 44.541C229.095 44.6508 229.315 44.9701 229.315 45.3094ZM267.735 52.0755V61.8055C267.735 62.2446 267.356 62.5639 266.977 62.5639C266.538 62.5639 266.219 62.2346 266.219 61.8055V52.0755C266.219 48.8122 264.372 45.6088 260.73 45.6088C256.159 45.6088 254.423 50.4987 254.423 54.3009V61.8055C254.423 62.2446 254.044 62.5639 253.664 62.5639C253.225 62.5639 252.906 62.2346 252.906 61.8055V52.0755C252.906 48.8122 251.06 45.6088 247.417 45.6088C242.797 45.6088 240.891 49.2513 241.06 54.0913C241.06 54.2011 241.11 54.4207 241.06 54.4706V61.7855C241.06 62.1547 240.811 62.4941 240.442 62.5539C239.933 62.6338 239.533 62.2845 239.533 61.8055V45.1996C239.533 44.8304 239.783 44.4911 240.142 44.4312C240.651 44.3514 241.05 44.7007 241.05 45.1797V47.954C242.358 45.6188 244.693 44.0919 247.407 44.0919C250.501 44.0919 252.896 46.0479 253.874 48.932C255.121 46.1078 257.566 44.0919 260.72 44.0919C265.181 44.0919 267.735 47.944 267.735 52.0755Z"/>
</mask>
<path d="M90.6997 53.4726C90.6997 53.9017 90.3404 54.251 89.9113 54.251H74.7225C75.1018 58.0033 77.9259 61.4263 81.8978 61.4263C84.6122 61.4263 86.628 60.3884 88.1449 58.2228C88.3645 57.9235 88.6938 57.7339 89.1129 57.9135C89.3425 58.0133 89.5021 58.2228 89.5421 58.4624C89.582 58.7118 89.5121 58.8515 89.4423 58.9913C87.9154 61.6558 84.8717 62.9631 81.8878 62.9631C76.7783 62.9631 73.1358 58.3925 73.1358 53.5025C73.1358 48.6126 76.7783 44.042 81.8878 44.042C86.9973 44.032 90.6897 48.5927 90.6997 53.4726ZM89.073 52.7341C88.7437 48.9819 85.8696 45.5589 81.8978 45.5589C77.9259 45.5589 75.1018 48.9819 74.7225 52.7341H89.073ZM109.132 44.4113C109.571 44.4113 109.89 44.7905 109.89 45.1697C109.89 45.6088 109.561 45.9281 109.132 45.9281H105.06V61.9053C105.06 62.2845 104.731 62.6637 104.302 62.6637C103.863 62.6637 103.543 62.2845 103.543 61.9053V45.9281H99.6313C99.1922 45.9281 98.8729 45.5988 98.8729 45.1697C98.8729 44.7905 99.2022 44.4113 99.6313 44.4113H103.543V38.5633C103.543 38.194 103.793 37.8547 104.152 37.7949C104.661 37.715 105.06 38.0643 105.06 38.5433V44.4113H109.132ZM133.971 52.1354V61.8155C133.971 62.2545 133.591 62.5739 133.212 62.5739C132.773 62.5739 132.454 62.2446 132.454 61.8155V52.1354C132.454 48.8721 130.608 45.6088 126.965 45.6088C122.295 45.6088 120.279 49.6904 120.548 53.8718C120.548 53.9816 120.598 54.4706 120.598 54.5205V61.7855C120.598 62.1547 120.349 62.4941 119.989 62.5539C119.48 62.6338 119.081 62.2845 119.081 61.8055V30.0109C119.081 29.6317 119.411 29.2524 119.84 29.2524C120.279 29.2524 120.598 29.6317 120.598 30.0109V48.0039C121.905 45.6687 124.241 44.0919 126.955 44.0919C131.416 44.0919 133.971 48.0039 133.971 52.1354ZM161.205 53.4726C161.205 53.9017 160.845 54.251 160.416 54.251H145.218C145.597 58.0033 148.421 61.4263 152.393 61.4263C155.107 61.4263 157.123 60.3884 158.64 58.2228C158.859 57.9235 159.189 57.7339 159.608 57.9135C159.837 58.0133 159.997 58.2228 160.037 58.4624C160.077 58.7118 160.007 58.8515 159.937 58.9913C158.41 61.6558 155.367 62.9631 152.383 62.9631C147.273 62.9631 143.631 58.3925 143.631 53.5025C143.631 48.6126 147.273 44.042 152.383 44.042C157.502 44.032 161.195 48.5927 161.205 53.4726ZM159.568 52.7341C159.239 48.9819 156.365 45.5589 152.393 45.5589C148.421 45.5589 145.597 48.9819 145.218 52.7341H159.568ZM179.846 45.1198C179.846 45.6088 179.577 45.8782 179.138 45.9381C174.677 46.5868 172.671 50.2293 172.671 54.4706V61.7356C172.671 62.1049 172.422 62.4442 172.062 62.504C171.553 62.5839 171.154 62.2346 171.154 61.7556V45.1996C171.154 44.8304 171.404 44.4911 171.763 44.4312C172.272 44.3514 172.671 44.7007 172.671 45.1797V48.5527C173.918 46.4371 176.423 44.4212 179.028 44.4212C179.407 44.4113 179.846 44.6907 179.846 45.1198ZM204.795 53.4726C204.795 53.9017 204.436 54.251 204.007 54.251H188.818C189.197 58.0033 192.021 61.4263 195.993 61.4263C198.707 61.4263 200.723 60.3884 202.24 58.2228C202.46 57.9235 202.789 57.7339 203.208 57.9135C203.438 58.0133 203.597 58.2228 203.637 58.4624C203.677 58.7118 203.607 58.8515 203.538 58.9913C202.011 61.6558 198.967 62.9631 195.983 62.9631C190.874 62.9631 187.231 58.3925 187.231 53.5025C187.231 48.6126 190.874 44.042 195.983 44.042C201.093 44.032 204.785 48.5927 204.795 53.4726ZM203.168 52.7341C202.839 48.9819 199.965 45.5589 195.993 45.5589C192.021 45.5589 189.197 48.9819 188.818 52.7341H203.168ZM229.315 45.3094V61.9053C229.315 62.3444 228.935 62.6637 228.556 62.6637C228.117 62.6637 227.798 62.3344 227.798 61.9053V58.7518C226.55 61.2566 224.315 63.0429 221.491 63.0429C216.98 63.0429 214.475 59.131 214.475 54.9995V45.2695C214.475 44.8903 214.804 44.511 215.233 44.511C215.673 44.511 215.992 44.8903 215.992 45.2695V54.9995C215.992 58.2628 217.838 61.526 221.481 61.526C226.59 61.526 227.788 56.7459 227.788 51.4667V45.2695C227.788 44.8304 228.227 44.3813 228.766 44.541C229.095 44.6508 229.315 44.9701 229.315 45.3094ZM267.735 52.0755V61.8055C267.735 62.2446 267.356 62.5639 266.977 62.5639C266.538 62.5639 266.219 62.2346 266.219 61.8055V52.0755C266.219 48.8122 264.372 45.6088 260.73 45.6088C256.159 45.6088 254.423 50.4987 254.423 54.3009V61.8055C254.423 62.2446 254.044 62.5639 253.664 62.5639C253.225 62.5639 252.906 62.2346 252.906 61.8055V52.0755C252.906 48.8122 251.06 45.6088 247.417 45.6088C242.797 45.6088 240.891 49.2513 241.06 54.0913C241.06 54.2011 241.11 54.4207 241.06 54.4706V61.7855C241.06 62.1547 240.811 62.4941 240.442 62.5539C239.933 62.6338 239.533 62.2845 239.533 61.8055V45.1996C239.533 44.8304 239.783 44.4911 240.142 44.4312C240.651 44.3514 241.05 44.7007 241.05 45.1797V47.954C242.358 45.6188 244.693 44.0919 247.407 44.0919C250.501 44.0919 252.896 46.0479 253.874 48.932C255.121 46.1078 257.566 44.0919 260.72 44.0919C265.181 44.0919 267.735 47.944 267.735 52.0755Z" fill="white"/>
<path d="M74.7225 54.251V53.4676H73.856L73.9431 54.3298L74.7225 54.251ZM88.1449 58.2228L87.5132 57.7596L87.5082 57.7664L87.5033 57.7734L88.1449 58.2228ZM89.1129 57.9135L89.4253 57.195L89.4215 57.1934L89.1129 57.9135ZM89.5421 58.4624L90.3156 58.3386L90.3148 58.3336L89.5421 58.4624ZM89.4423 58.9913L90.122 59.3807L90.133 59.3615L90.1429 59.3416L89.4423 58.9913ZM81.8878 44.042V44.8254L81.8893 44.8254L81.8878 44.042ZM89.073 52.7341V53.5175H89.9282L89.8534 52.6656L89.073 52.7341ZM74.7225 52.7341L73.9431 52.6554L73.856 53.5175H74.7225V52.7341ZM105.06 45.9281V45.1447H104.277V45.9281H105.06ZM103.543 45.9281H104.327V45.1447H103.543V45.9281ZM103.543 44.4113V45.1946H104.327V44.4113H103.543ZM104.152 37.7949L104.031 37.0209L104.023 37.0221L104.152 37.7949ZM105.06 44.4113H104.277V45.1946H105.06V44.4113ZM120.548 53.8718H121.332V53.8466L121.33 53.8214L120.548 53.8718ZM119.989 62.5539L120.111 63.3279L120.118 63.3267L119.989 62.5539ZM120.598 48.0039H119.815V51.0069L121.282 48.3865L120.598 48.0039ZM145.218 54.251V53.4676H144.351L144.438 54.3298L145.218 54.251ZM158.64 58.2228L158.008 57.7596L158.003 57.7664L157.998 57.7734L158.64 58.2228ZM159.608 57.9135L159.92 57.195L159.917 57.1934L159.608 57.9135ZM160.037 58.4624L160.811 58.3386L160.81 58.3336L160.037 58.4624ZM159.937 58.9913L160.617 59.3807L160.628 59.3615L160.638 59.3416L159.937 58.9913ZM152.383 44.042V44.8254L152.384 44.8254L152.383 44.042ZM159.568 52.7341V53.5175H160.423L160.348 52.6656L159.568 52.7341ZM145.218 52.7341L144.438 52.6554L144.351 53.5175H145.218V52.7341ZM179.138 45.9381L179.032 45.1619L179.025 45.1629L179.138 45.9381ZM172.062 62.504L172.184 63.278L172.191 63.2768L172.062 62.504ZM171.763 44.4312L171.642 43.6573L171.634 43.6585L171.763 44.4312ZM172.671 48.5527H171.888V51.4238L173.346 48.9506L172.671 48.5527ZM179.028 44.4212V45.2046H179.038L179.049 45.2043L179.028 44.4212ZM188.818 54.251V53.4676H187.951L188.038 54.3298L188.818 54.251ZM202.24 58.2228L201.608 57.7596L201.603 57.7664L201.599 57.7734L202.24 58.2228ZM203.208 57.9135L203.521 57.195L203.517 57.1934L203.208 57.9135ZM203.637 58.4624L204.411 58.3386L204.41 58.3336L203.637 58.4624ZM203.538 58.9913L204.217 59.3807L204.228 59.3615L204.238 59.3416L203.538 58.9913ZM195.983 44.042V44.8254L195.985 44.8254L195.983 44.042ZM188.818 52.7341L188.038 52.6554L187.951 53.5175H188.818V52.7341ZM227.798 58.7518H228.581L227.096 58.4025L227.798 58.7518ZM228.766 44.541L229.013 43.7978L229.001 43.7936L228.988 43.7899L228.766 44.541ZM241.06 54.0913H241.844V54.0776L241.843 54.0639L241.06 54.0913ZM241.06 54.4706L240.506 53.9166L240.277 54.1461V54.4706H241.06ZM240.442 62.5539L240.563 63.3279L240.567 63.3272L240.442 62.5539ZM240.142 44.4312L240.021 43.6573L240.013 43.6585L240.142 44.4312ZM241.05 47.954H240.267V50.957L241.734 48.3366L241.05 47.954ZM253.874 48.932L253.132 49.1835L253.778 51.0882L254.591 49.2485L253.874 48.932ZM89.9163 53.4726C89.9163 53.4714 89.9164 53.4697 89.9168 53.4678C89.9172 53.4659 89.9177 53.4645 89.9182 53.4635C89.9189 53.4617 89.9191 53.4623 89.9173 53.4639C89.9156 53.4657 89.9137 53.4668 89.9124 53.4673C89.9117 53.4677 89.9116 53.4676 89.9113 53.4676V55.0344C90.76 55.0344 91.4831 54.3473 91.4831 53.4726H89.9163ZM89.9113 53.4676H74.7225V55.0344H89.9113V53.4676ZM73.9431 54.3298C74.351 58.3661 77.417 62.2096 81.8978 62.2096V60.6429C78.4349 60.6429 75.8525 57.6404 75.502 54.1722L73.9431 54.3298ZM81.8978 62.2096C84.861 62.2096 87.1193 61.0526 88.7866 58.6723L87.5033 57.7734C86.1368 59.7242 84.3634 60.6429 81.8978 60.6429V62.2096ZM88.7767 58.6861C88.8003 58.6539 88.8198 58.6344 88.8322 58.6241C88.8441 58.6141 88.8456 58.6158 88.8353 58.6197C88.8301 58.6217 88.8232 58.6238 88.8148 58.6252C88.8064 58.6267 88.7986 58.6272 88.7922 58.627C88.7779 58.6265 88.7807 58.6234 88.8043 58.6335L89.4215 57.1934C89.0361 57.0283 88.6372 57.0172 88.2729 57.1574C87.9297 57.2893 87.6817 57.5298 87.5132 57.7596L88.7767 58.6861ZM88.8006 58.6319C88.7918 58.6281 88.7847 58.6222 88.7798 58.6159C88.7751 58.6099 88.7711 58.6018 88.7693 58.5911L90.3148 58.3336C90.2318 57.8355 89.9013 57.402 89.4253 57.1951L88.8006 58.6319ZM88.7685 58.5861C88.771 58.6015 88.7701 58.6049 88.7704 58.5991C88.7706 58.5927 88.7718 58.5839 88.774 58.5753C88.776 58.5676 88.7772 58.5662 88.7732 58.5754C88.7711 58.5804 88.7678 58.5876 88.7625 58.5986C88.7569 58.6103 88.7507 58.6226 88.7416 58.6409L90.1429 59.3416C90.232 59.1635 90.3955 58.8382 90.3156 58.3386L88.7685 58.5861ZM88.7626 58.6018C87.4111 60.9602 84.6711 62.1797 81.8878 62.1797V63.7465C85.0722 63.7465 88.4197 62.3513 90.122 59.3807L88.7626 58.6018ZM81.8878 62.1797C77.2995 62.1797 73.9192 58.054 73.9192 53.5025H72.3524C72.3524 58.731 76.2572 63.7465 81.8878 63.7465V62.1797ZM73.9192 53.5025C73.9192 48.9511 77.2995 44.8254 81.8878 44.8254V43.2586C76.2572 43.2586 72.3524 48.2741 72.3524 53.5025H73.9192ZM81.8893 44.8254C86.483 44.8164 89.907 48.9387 89.9163 53.4742L91.4831 53.471C91.4724 48.2466 87.5116 43.2476 81.8863 43.2586L81.8893 44.8254ZM89.8534 52.6656C89.4976 48.6118 86.3715 44.7755 81.8978 44.7755V46.3423C85.3678 46.3423 87.9898 49.3519 88.2926 52.8026L89.8534 52.6656ZM81.8978 44.7755C77.417 44.7755 74.351 48.619 73.9431 52.6554L75.502 52.8129C75.8525 49.3447 78.4349 46.3423 81.8978 46.3423V44.7755ZM74.7225 53.5175H89.073V51.9507H74.7225V53.5175ZM109.132 45.1946C109.13 45.1946 109.127 45.1944 109.123 45.1936C109.119 45.1927 109.116 45.1915 109.113 45.1902C109.107 45.1876 109.106 45.1857 109.107 45.187C109.107 45.1876 109.108 45.1885 109.109 45.1895C109.109 45.1905 109.11 45.191 109.11 45.1909C109.11 45.1907 109.109 45.1892 109.108 45.1859C109.108 45.1827 109.107 45.1772 109.107 45.1697H110.674C110.674 44.3983 110.043 43.6279 109.132 43.6279V45.1946ZM109.107 45.1697C109.107 45.1807 109.105 45.1818 109.107 45.1763C109.109 45.1711 109.114 45.1639 109.121 45.1571C109.127 45.1504 109.134 45.1466 109.138 45.1449C109.143 45.1431 109.141 45.1447 109.132 45.1447V46.7115C109.987 46.7115 110.674 46.0482 110.674 45.1697H109.107ZM109.132 45.1447H105.06V46.7115H109.132V45.1447ZM104.277 45.9281V61.9053H105.844V45.9281H104.277ZM104.277 61.9053C104.277 61.896 104.278 61.8892 104.279 61.885C104.279 61.8809 104.28 61.8789 104.28 61.8787C104.281 61.8785 104.28 61.8793 104.279 61.8809C104.278 61.8824 104.277 61.884 104.276 61.8853C104.273 61.8883 104.272 61.8875 104.277 61.8854C104.283 61.8828 104.292 61.8803 104.302 61.8803V63.4471C105.196 63.4471 105.844 62.6837 105.844 61.9053H104.277ZM104.302 61.8803C104.303 61.8803 104.307 61.8805 104.311 61.8814C104.314 61.8822 104.318 61.8835 104.321 61.8848C104.326 61.8873 104.328 61.8892 104.327 61.8879C104.326 61.8874 104.325 61.8865 104.325 61.8855C104.324 61.8845 104.324 61.8839 104.324 61.8841C104.324 61.8842 104.325 61.8858 104.325 61.889C104.326 61.8923 104.327 61.8977 104.327 61.9053H102.76C102.76 62.6767 103.391 63.4471 104.302 63.4471V61.8803ZM104.327 61.9053V45.9281H102.76V61.9053H104.327ZM103.543 45.1447H99.6313V46.7115H103.543V45.1447ZM99.6313 45.1447C99.6203 45.1447 99.6192 45.1429 99.6246 45.1451C99.6299 45.1473 99.6371 45.1516 99.6439 45.1585C99.6506 45.1652 99.6544 45.1719 99.6561 45.1762C99.6579 45.1805 99.6562 45.1792 99.6562 45.1697H98.0895C98.0895 46.0246 98.7527 46.7115 99.6313 46.7115V45.1447ZM99.6562 45.1697C99.6562 45.179 99.6552 45.1858 99.6544 45.1899C99.6535 45.194 99.6527 45.1961 99.6526 45.1963C99.6525 45.1965 99.6528 45.1956 99.6539 45.1941C99.6549 45.1925 99.6561 45.191 99.6574 45.1897C99.6603 45.1866 99.6606 45.1875 99.656 45.1896C99.6503 45.1922 99.6411 45.1946 99.6313 45.1946V43.6279C98.7368 43.6279 98.0895 44.3913 98.0895 45.1697H99.6562ZM99.6313 45.1946H103.543V43.6279H99.6313V45.1946ZM104.327 44.4113V38.5633H102.76V44.4113H104.327ZM104.327 38.5633C104.327 38.5591 104.327 38.5543 104.329 38.5497C104.331 38.545 104.332 38.5427 104.332 38.5429C104.332 38.5431 104.328 38.5477 104.319 38.5534C104.309 38.5594 104.296 38.5651 104.281 38.5676L104.023 37.0221C103.229 37.1545 102.76 37.8724 102.76 38.5633H104.327ZM104.273 38.5688C104.286 38.5668 104.295 38.5667 104.3 38.567C104.302 38.5671 104.304 38.5673 104.305 38.5675C104.307 38.5677 104.307 38.5678 104.307 38.5678C104.307 38.5678 104.307 38.5677 104.306 38.5674C104.305 38.5671 104.304 38.5666 104.303 38.5659C104.3 38.5645 104.297 38.5624 104.293 38.5595C104.286 38.5533 104.281 38.546 104.278 38.5399C104.275 38.5335 104.277 38.5334 104.277 38.5433H105.844C105.844 37.5687 105 36.8688 104.031 37.0209L104.273 38.5688ZM104.277 38.5433V44.4113H105.844V38.5433H104.277ZM105.06 45.1946H109.132V43.6279H105.06V45.1946ZM133.187 52.1354V61.8155H134.754V52.1354H133.187ZM133.187 61.8155C133.187 61.8137 133.187 61.8106 133.188 61.8066C133.189 61.8027 133.19 61.7992 133.192 61.7963C133.194 61.7907 133.196 61.7894 133.195 61.7906C133.194 61.7912 133.193 61.7919 133.192 61.7925C133.191 61.7932 133.191 61.7934 133.191 61.7933C133.191 61.7933 133.193 61.7926 133.196 61.792C133.199 61.7913 133.205 61.7905 133.212 61.7905V63.3573C133.984 63.3573 134.754 62.7266 134.754 61.8155H133.187ZM133.212 61.7905C133.201 61.7905 133.2 61.7886 133.206 61.7909C133.211 61.793 133.218 61.7974 133.225 61.8042C133.232 61.811 133.235 61.8176 133.237 61.8219C133.239 61.8263 133.237 61.825 133.237 61.8155H131.67C131.67 62.6704 132.334 63.3573 133.212 63.3573V61.7905ZM133.237 61.8155V52.1354H131.67V61.8155H133.237ZM133.237 52.1354C133.237 50.3681 132.739 48.5626 131.702 47.1786C130.649 45.7729 129.052 44.8254 126.965 44.8254V46.3922C128.521 46.3922 129.668 47.0763 130.448 48.1181C131.245 49.1815 131.67 50.6393 131.67 52.1354H133.237ZM126.965 44.8254C124.367 44.8254 122.455 45.977 121.257 47.7304C120.081 49.4527 119.624 51.7043 119.766 53.9222L121.33 53.8214C121.204 51.8579 121.619 49.978 122.551 48.6141C123.461 47.2814 124.893 46.3922 126.965 46.3922V44.8254ZM119.765 53.8718C119.765 53.9339 119.771 54.0148 119.775 54.0713C119.78 54.1385 119.787 54.2155 119.793 54.287C119.799 54.3612 119.805 54.4265 119.81 54.4804C119.812 54.5069 119.814 54.527 119.815 54.5408C119.817 54.567 119.815 54.5491 119.815 54.5205H121.382C121.382 54.4794 121.378 54.4353 121.377 54.4247C121.376 54.4018 121.373 54.3746 121.371 54.3466C121.366 54.2913 121.36 54.2181 121.354 54.1501C121.347 54.0795 121.342 54.0105 121.337 53.9536C121.332 53.8859 121.332 53.8646 121.332 53.8718H119.765ZM119.815 54.5205V61.7855H121.382V54.5205H119.815ZM119.815 61.7855C119.815 61.7897 119.814 61.7945 119.812 61.7991C119.811 61.8038 119.809 61.8061 119.809 61.8059C119.809 61.8057 119.813 61.8011 119.822 61.7954C119.832 61.7894 119.845 61.7837 119.861 61.7812L120.118 63.3267C120.913 63.1943 121.382 62.4764 121.382 61.7855H119.815ZM119.868 61.78C119.855 61.782 119.847 61.7821 119.842 61.7818C119.839 61.7817 119.837 61.7815 119.836 61.7813C119.835 61.7811 119.834 61.781 119.834 61.781C119.834 61.781 119.835 61.7811 119.835 61.7814C119.836 61.7817 119.837 61.7822 119.839 61.7829C119.841 61.7843 119.845 61.7864 119.848 61.7893C119.856 61.7955 119.861 61.8028 119.864 61.8089C119.867 61.8153 119.865 61.8154 119.865 61.8055H118.298C118.298 62.7801 119.141 63.48 120.111 63.3279L119.868 61.78ZM119.865 61.8055V30.0109H118.298V61.8055H119.865ZM119.865 30.0109C119.865 30.0202 119.864 30.0269 119.863 30.0311C119.862 30.0352 119.861 30.0373 119.861 30.0375C119.861 30.0377 119.861 30.0368 119.862 30.0353C119.863 30.0337 119.865 30.0322 119.866 30.0308C119.869 30.0278 119.869 30.0287 119.864 30.0308C119.859 30.0334 119.85 30.0358 119.84 30.0358V28.4691C118.945 28.4691 118.298 29.2325 118.298 30.0109H119.865ZM119.84 30.0358C119.838 30.0358 119.835 30.0356 119.831 30.0347C119.827 30.0339 119.823 30.0327 119.821 30.0314C119.815 30.0288 119.814 30.0269 119.815 30.0282C119.815 30.0288 119.816 30.0296 119.817 30.0306C119.817 30.0317 119.818 30.0322 119.818 30.0321C119.818 30.0319 119.817 30.0303 119.816 30.0271C119.816 30.0239 119.815 30.0184 119.815 30.0109H121.382C121.382 29.2394 120.751 28.4691 119.84 28.4691V30.0358ZM119.815 30.0109V48.0039H121.382V30.0109H119.815ZM121.282 48.3865C122.471 46.2629 124.563 44.8753 126.955 44.8753V43.3085C123.918 43.3085 121.34 45.0744 119.915 47.6212L121.282 48.3865ZM126.955 44.8753C130.83 44.8753 133.187 48.2649 133.187 52.1354H134.754C134.754 47.7429 132.002 43.3085 126.955 43.3085V44.8753ZM160.421 53.4726C160.421 53.4714 160.421 53.4697 160.422 53.4678C160.422 53.4659 160.423 53.4645 160.423 53.4635C160.424 53.4617 160.424 53.4623 160.422 53.4639C160.421 53.4657 160.419 53.4668 160.417 53.4673C160.417 53.4677 160.417 53.4676 160.416 53.4676V55.0344C161.265 55.0344 161.988 54.3473 161.988 53.4726H160.421ZM160.416 53.4676H145.218V55.0344H160.416V53.4676ZM144.438 54.3298C144.846 58.3661 147.912 62.2096 152.393 62.2096V60.6429C148.93 60.6429 146.347 57.6404 145.997 54.1722L144.438 54.3298ZM152.393 62.2096C155.356 62.2096 157.614 61.0526 159.282 58.6723L157.998 57.7734C156.632 59.7242 154.858 60.6429 152.393 60.6429V62.2096ZM159.272 58.6861C159.295 58.6539 159.315 58.6344 159.327 58.6241C159.339 58.6141 159.341 58.6158 159.33 58.6197C159.325 58.6217 159.318 58.6238 159.31 58.6252C159.301 58.6267 159.294 58.6272 159.287 58.627C159.273 58.6265 159.276 58.6234 159.299 58.6335L159.917 57.1934C159.531 57.0283 159.132 57.0172 158.768 57.1574C158.425 57.2893 158.177 57.5298 158.008 57.7596L159.272 58.6861ZM159.296 58.6319C159.287 58.6281 159.28 58.6222 159.275 58.6159C159.27 58.6099 159.266 58.6018 159.264 58.5911L160.81 58.3336C160.727 57.8355 160.396 57.402 159.92 57.1951L159.296 58.6319ZM159.263 58.5861C159.266 58.6015 159.265 58.6049 159.265 58.5991C159.266 58.5927 159.267 58.5839 159.269 58.5753C159.271 58.5676 159.272 58.5662 159.268 58.5754C159.266 58.5804 159.263 58.5876 159.257 58.5986C159.252 58.6103 159.246 58.6226 159.237 58.6409L160.638 59.3416C160.727 59.1635 160.891 58.8382 160.811 58.3386L159.263 58.5861ZM159.258 58.6018C157.906 60.9602 155.166 62.1797 152.383 62.1797V63.7465C155.567 63.7465 158.915 62.3513 160.617 59.3807L159.258 58.6018ZM152.383 62.1797C147.794 62.1797 144.414 58.054 144.414 53.5025H142.847C142.847 58.731 146.752 63.7465 152.383 63.7465V62.1797ZM144.414 53.5025C144.414 48.9511 147.794 44.8254 152.383 44.8254V43.2586C146.752 43.2586 142.847 48.2741 142.847 53.5025H144.414ZM152.384 44.8254C156.988 44.8164 160.412 48.9393 160.421 53.4742L161.988 53.471C161.977 48.246 158.016 43.2476 152.381 43.2586L152.384 44.8254ZM160.348 52.6656C159.993 48.6118 156.866 44.7755 152.393 44.7755V46.3423C155.863 46.3423 158.485 49.3519 158.788 52.8026L160.348 52.6656ZM152.393 44.7755C147.912 44.7755 144.846 48.619 144.438 52.6554L145.997 52.8129C146.347 49.3447 148.93 46.3423 152.393 46.3423V44.7755ZM145.218 53.5175H159.568V51.9507H145.218V53.5175ZM179.063 45.1198C179.063 45.1706 179.056 45.1927 179.055 45.1945C179.055 45.1953 179.056 45.1921 179.059 45.1861C179.063 45.1801 179.068 45.1731 179.074 45.1661C179.088 45.1509 179.099 45.1454 179.098 45.1461C179.095 45.1475 179.075 45.156 179.032 45.1619L179.244 46.7143C179.596 46.6663 179.962 46.5215 180.239 46.2136C180.519 45.9023 180.63 45.5106 180.63 45.1198H179.063ZM179.025 45.1629C176.585 45.5177 174.774 46.7057 173.589 48.4096C172.415 50.0953 171.888 52.2347 171.888 54.4706H173.454C173.454 52.4652 173.93 50.6626 174.875 49.3046C175.807 47.9648 177.23 47.0072 179.25 46.7134L179.025 45.1629ZM171.888 54.4706V61.7356H173.454V54.4706H171.888ZM171.888 61.7356C171.888 61.7398 171.887 61.7446 171.885 61.7492C171.884 61.7539 171.882 61.7562 171.882 61.756C171.882 61.7558 171.886 61.7512 171.895 61.7455C171.905 61.7395 171.918 61.7338 171.934 61.7313L172.191 63.2768C172.986 63.1444 173.454 62.4265 173.454 61.7356H171.888ZM171.941 61.7301C171.928 61.7321 171.92 61.7322 171.914 61.7319C171.912 61.7318 171.91 61.7316 171.909 61.7314C171.908 61.7312 171.907 61.7311 171.907 61.7311C171.907 61.7311 171.908 61.7312 171.908 61.7315C171.909 61.7318 171.91 61.7323 171.912 61.733C171.914 61.7344 171.918 61.7365 171.921 61.7394C171.928 61.7456 171.934 61.7529 171.936 61.759C171.939 61.7654 171.938 61.7655 171.938 61.7556H170.371C170.371 62.7303 171.214 63.4301 172.184 63.278L171.941 61.7301ZM171.938 61.7556V45.1996H170.371V61.7556H171.938ZM171.938 45.1996C171.938 45.1954 171.938 45.1907 171.94 45.1861C171.941 45.1813 171.943 45.179 171.943 45.1792C171.943 45.1795 171.939 45.1841 171.93 45.1897C171.92 45.1958 171.907 45.2014 171.892 45.204L171.634 43.6585C170.84 43.7909 170.371 44.5087 170.371 45.1996H171.938ZM171.884 45.2051C171.897 45.2032 171.906 45.2031 171.911 45.2033C171.913 45.2034 171.915 45.2037 171.916 45.2038C171.917 45.204 171.918 45.2042 171.918 45.2042C171.918 45.2042 171.918 45.2041 171.917 45.2038C171.916 45.2034 171.915 45.203 171.914 45.2023C171.911 45.2008 171.908 45.1987 171.904 45.1958C171.897 45.1897 171.892 45.1823 171.889 45.1762C171.886 45.1698 171.888 45.1697 171.888 45.1797H173.454C173.454 44.205 172.611 43.5052 171.642 43.6573L171.884 45.2051ZM171.888 45.1797V48.5527H173.454V45.1797H171.888ZM173.346 48.9506C174.51 46.9764 176.798 45.2046 179.028 45.2046V43.6378C176.049 43.6378 173.327 45.8978 171.996 48.1548L173.346 48.9506ZM179.049 45.2043C179.045 45.2044 179.053 45.204 179.068 45.209C179.083 45.2139 179.094 45.2205 179.098 45.2242C179.103 45.2278 179.095 45.2228 179.084 45.2032C179.078 45.1931 179.073 45.18 179.069 45.1646C179.065 45.1489 179.063 45.1335 179.063 45.1198H180.63C180.63 44.6144 180.366 44.2252 180.06 43.9875C179.764 43.7569 179.383 43.6282 179.007 43.6381L179.049 45.2043ZM204.012 53.4726C204.012 53.4714 204.012 53.4697 204.012 53.4678C204.012 53.4659 204.013 53.4645 204.013 53.4635C204.014 53.4617 204.014 53.4623 204.013 53.464C204.011 53.4657 204.009 53.4668 204.008 53.4673C204.007 53.4677 204.007 53.4676 204.007 53.4676V55.0344C204.855 55.0344 205.578 54.3473 205.578 53.4726H204.012ZM204.007 53.4676H188.818V55.0344H204.007V53.4676ZM188.038 54.3298C188.446 58.3661 191.512 62.2096 195.993 62.2096V60.6429C192.53 60.6429 189.948 57.6404 189.597 54.1722L188.038 54.3298ZM195.993 62.2096C198.956 62.2096 201.215 61.0526 202.882 58.6723L201.599 57.7734C200.232 59.7242 198.459 60.6429 195.993 60.6429V62.2096ZM202.872 58.6861C202.896 58.6539 202.915 58.6344 202.927 58.6241C202.939 58.6141 202.941 58.6158 202.931 58.6197C202.925 58.6217 202.918 58.6238 202.91 58.6252C202.902 58.6267 202.894 58.6272 202.887 58.627C202.873 58.6265 202.876 58.6234 202.9 58.6335L203.517 57.1934C203.131 57.0283 202.733 57.0172 202.368 57.1574C202.025 57.2893 201.777 57.5298 201.608 57.7596L202.872 58.6861ZM202.896 58.6319C202.887 58.6281 202.88 58.6222 202.875 58.6159C202.87 58.6099 202.866 58.6018 202.865 58.5911L204.41 58.3336C204.327 57.8355 203.997 57.402 203.521 57.1951L202.896 58.6319ZM202.864 58.5861C202.866 58.6015 202.865 58.6049 202.866 58.5991C202.866 58.5927 202.867 58.5839 202.869 58.5753C202.871 58.5676 202.872 58.5662 202.868 58.5754C202.866 58.5804 202.863 58.5876 202.858 58.5986C202.852 58.6103 202.846 58.6226 202.837 58.6409L204.238 59.3416C204.327 59.1635 204.491 58.8382 204.411 58.3386L202.864 58.5861ZM202.858 58.6018C201.506 60.9602 198.766 62.1797 195.983 62.1797V63.7465C199.167 63.7465 202.515 62.3513 204.217 59.3807L202.858 58.6018ZM195.983 62.1797C191.395 62.1797 188.014 58.054 188.014 53.5025H186.448C186.448 58.731 190.352 63.7465 195.983 63.7465V62.1797ZM188.014 53.5025C188.014 48.9511 191.395 44.8254 195.983 44.8254V43.2586C190.352 43.2586 186.448 48.2741 186.448 53.5025H188.014ZM195.985 44.8254C200.578 44.8164 204.002 48.9387 204.012 53.4742L205.578 53.471C205.568 48.2466 201.607 43.2476 195.982 43.2586L195.985 44.8254ZM203.949 52.6656C203.593 48.6118 200.467 44.7755 195.993 44.7755V46.3423C199.463 46.3423 202.085 49.3519 202.388 52.8026L203.949 52.6656ZM195.993 44.7755C191.512 44.7755 188.446 48.619 188.038 52.6554L189.597 52.8129C189.948 49.3447 192.53 46.3423 195.993 46.3423V44.7755ZM188.818 53.5175H203.168V51.9507H188.818V53.5175ZM228.531 45.3094V61.9053H230.098V45.3094H228.531ZM228.531 61.9053C228.531 61.9035 228.531 61.9004 228.532 61.8964C228.533 61.8925 228.534 61.889 228.536 61.8861C228.538 61.8805 228.54 61.8792 228.539 61.8804C228.538 61.881 228.537 61.8817 228.536 61.8823C228.535 61.883 228.535 61.8832 228.535 61.8831C228.535 61.8831 228.537 61.8824 228.54 61.8818C228.543 61.8811 228.549 61.8803 228.556 61.8803V63.4471C229.327 63.4471 230.098 62.8164 230.098 61.9053H228.531ZM228.556 61.8803C228.545 61.8803 228.544 61.8784 228.549 61.8807C228.555 61.8828 228.562 61.8872 228.569 61.894C228.575 61.9008 228.579 61.9075 228.581 61.9117C228.583 61.9161 228.581 61.9148 228.581 61.9053H227.014C227.014 62.7602 227.678 63.4471 228.556 63.4471V61.8803ZM228.581 61.9053V58.7518H227.014V61.9053H228.581ZM227.096 58.4025C225.945 60.7153 223.943 62.2595 221.491 62.2595V63.8263C224.686 63.8263 227.156 61.7979 228.499 59.101L227.096 58.4025ZM221.491 62.2595C219.487 62.2595 217.954 61.4008 216.904 60.0825C215.841 58.7473 215.258 56.9161 215.258 54.9995H213.692C213.692 57.2143 214.362 59.4049 215.678 61.0585C217.009 62.7291 218.983 63.8263 221.491 63.8263V62.2595ZM215.258 54.9995V45.2695H213.692V54.9995H215.258ZM215.258 45.2695C215.258 45.2788 215.257 45.2856 215.257 45.2897C215.256 45.2938 215.255 45.2959 215.255 45.2961C215.255 45.2963 215.255 45.2954 215.256 45.2939C215.257 45.2923 215.258 45.2908 215.26 45.2894C215.262 45.2864 215.263 45.2873 215.258 45.2894C215.252 45.292 215.243 45.2944 215.233 45.2944V43.7277C214.339 43.7277 213.692 44.4911 213.692 45.2695H215.258ZM215.233 45.2944C215.232 45.2944 215.229 45.2942 215.225 45.2934C215.221 45.2925 215.217 45.2913 215.214 45.29C215.209 45.2874 215.207 45.2855 215.209 45.2868C215.209 45.2874 215.21 45.2882 215.211 45.2892C215.211 45.2903 215.211 45.2908 215.211 45.2907C215.211 45.2905 215.211 45.289 215.21 45.2857C215.209 45.2825 215.209 45.277 215.209 45.2695H216.775C216.775 44.4981 216.145 43.7277 215.233 43.7277V45.2944ZM215.209 45.2695V54.9995H216.775V45.2695H215.209ZM215.209 54.9995C215.209 56.7667 215.706 58.5722 216.743 59.9562C217.797 61.3619 219.394 62.3094 221.481 62.3094V60.7427C219.925 60.7427 218.778 60.0585 217.997 59.0168C217.201 57.9533 216.775 56.4955 216.775 54.9995H215.209ZM221.481 62.3094C222.885 62.3094 224.069 61.9794 225.043 61.3569C226.016 60.736 226.731 59.8553 227.249 58.8296C228.273 56.8051 228.571 54.1373 228.571 51.4667H227.004C227.004 54.0754 226.703 56.4371 225.851 58.1225C225.432 58.9517 224.889 59.5961 224.2 60.0364C223.513 60.4752 222.631 60.7427 221.481 60.7427V62.3094ZM228.571 51.4667V45.2695H227.004V51.4667H228.571ZM228.571 45.2695C228.571 45.2798 228.57 45.2866 228.569 45.2897C228.568 45.2929 228.568 45.2935 228.568 45.2922C228.569 45.291 228.57 45.289 228.572 45.287C228.573 45.2849 228.575 45.2837 228.575 45.2832C228.576 45.2823 228.571 45.2869 228.559 45.2897C228.553 45.2911 228.547 45.2915 228.542 45.2914C228.538 45.2912 228.538 45.2906 228.543 45.2921L228.988 43.7899C227.862 43.4562 227.004 44.3992 227.004 45.2695H228.571ZM228.518 45.2842C228.514 45.283 228.518 45.2828 228.524 45.2911C228.527 45.2951 228.529 45.2993 228.53 45.3032C228.531 45.307 228.531 45.3091 228.531 45.3094H230.098C230.098 44.6452 229.674 44.018 229.013 43.7978L228.518 45.2842ZM266.952 52.0755V61.8055H268.519V52.0755H266.952ZM266.952 61.8055C266.952 61.8037 266.952 61.8006 266.953 61.7966C266.954 61.7927 266.955 61.7892 266.957 61.7863C266.959 61.7807 266.961 61.7794 266.96 61.7807C266.959 61.7812 266.958 61.7819 266.957 61.7825C266.956 61.7832 266.956 61.7834 266.956 61.7833C266.956 61.7833 266.958 61.7826 266.961 61.782C266.964 61.7813 266.969 61.7805 266.977 61.7805V63.3473C267.748 63.3473 268.519 62.7166 268.519 61.8055H266.952ZM266.977 61.7805C266.966 61.7805 266.965 61.7786 266.97 61.7809C266.976 61.783 266.983 61.7874 266.99 61.7942C266.996 61.801 267 61.8077 267.002 61.8119C267.004 61.8163 267.002 61.815 267.002 61.8055H265.435C265.435 62.6604 266.099 63.3473 266.977 63.3473V61.7805ZM267.002 61.8055V52.0755H265.435V61.8055H267.002ZM267.002 52.0755C267.002 50.3078 266.504 48.5154 265.464 47.145C264.408 45.753 262.811 44.8254 260.73 44.8254V46.3922C262.291 46.3922 263.438 47.0663 264.216 48.0918C265.01 49.139 265.435 50.5799 265.435 52.0755H267.002ZM260.73 44.8254C258.107 44.8254 256.301 46.2516 255.188 48.1298C254.093 49.9796 253.639 52.3006 253.639 54.3009H255.206C255.206 52.4991 255.621 50.474 256.536 48.9282C257.435 47.4109 258.782 46.3922 260.73 46.3922V44.8254ZM253.639 54.3009V61.8055H255.206V54.3009H253.639ZM253.639 61.8055C253.639 61.8037 253.64 61.8006 253.641 61.7966C253.641 61.7927 253.643 61.7892 253.644 61.7863C253.646 61.7807 253.648 61.7794 253.647 61.7807C253.646 61.7812 253.646 61.7819 253.645 61.7825C253.644 61.7832 253.643 61.7834 253.643 61.7833C253.643 61.7833 253.645 61.7826 253.648 61.782C253.651 61.7813 253.657 61.7805 253.664 61.7805V63.3473C254.436 63.3473 255.206 62.7166 255.206 61.8055H253.639ZM253.664 61.7805C253.653 61.7805 253.652 61.7786 253.658 61.7809C253.663 61.783 253.67 61.7874 253.677 61.7942C253.684 61.801 253.688 61.8077 253.689 61.8119C253.691 61.8163 253.689 61.815 253.689 61.8055H252.123C252.123 62.6604 252.786 63.3473 253.664 63.3473V61.7805ZM253.689 61.8055V52.0755H252.123V61.8055H253.689ZM253.689 52.0755C253.689 50.3078 253.191 48.5154 252.152 47.145C251.096 45.753 249.498 44.8254 247.417 44.8254V46.3922C248.979 46.3922 250.126 47.0663 250.903 48.0918C251.698 49.139 252.123 50.5799 252.123 52.0755H253.689ZM247.417 44.8254C244.87 44.8254 242.986 45.8463 241.795 47.5939C240.633 49.299 240.189 51.6079 240.277 54.1188L241.843 54.0639C241.762 51.7347 242.186 49.8024 243.09 48.4762C243.965 47.1925 245.344 46.3922 247.417 46.3922V44.8254ZM240.277 54.0913C240.277 54.1654 240.285 54.2379 240.288 54.2724C240.294 54.3234 240.296 54.3426 240.298 54.3685C240.301 54.3957 240.298 54.3797 240.3 54.3434C240.302 54.3243 240.307 54.2755 240.326 54.2123C240.345 54.1532 240.391 54.0319 240.506 53.9166L241.614 55.0245C241.742 54.8968 241.798 54.7576 241.823 54.6766C241.849 54.5914 241.858 54.5164 241.862 54.468C241.87 54.3731 241.864 54.286 241.86 54.2383C241.856 54.1893 241.849 54.13 241.846 54.1074C241.842 54.0683 241.844 54.0722 241.844 54.0913H240.277ZM240.277 54.4706V61.7855H241.844V54.4706H240.277ZM240.277 61.7855C240.277 61.7897 240.276 61.794 240.275 61.7978C240.274 61.8018 240.272 61.8033 240.273 61.8025C240.274 61.8015 240.277 61.7971 240.286 61.792C240.295 61.7865 240.306 61.7824 240.316 61.7806L240.567 63.3272C241.369 63.1972 241.844 62.4825 241.844 61.7855H240.277ZM240.32 61.78C240.308 61.782 240.299 61.7821 240.294 61.7818C240.291 61.7817 240.289 61.7815 240.288 61.7813C240.287 61.7811 240.286 61.781 240.286 61.781C240.286 61.781 240.287 61.7811 240.288 61.7814C240.288 61.7817 240.29 61.7822 240.291 61.7829C240.294 61.7843 240.297 61.7864 240.3 61.7893C240.308 61.7955 240.313 61.8028 240.316 61.8089C240.319 61.8153 240.317 61.8154 240.317 61.8055H238.75C238.75 62.7801 239.593 63.48 240.563 63.3279L240.32 61.78ZM240.317 61.8055V45.1996H238.75V61.8055H240.317ZM240.317 45.1996C240.317 45.1954 240.318 45.1907 240.319 45.1861C240.321 45.1813 240.323 45.179 240.322 45.1792C240.322 45.1795 240.319 45.184 240.309 45.1897C240.3 45.1958 240.286 45.2014 240.271 45.204L240.013 43.6585C239.219 43.7909 238.75 44.5087 238.75 45.1996H240.317ZM240.264 45.2051C240.276 45.2032 240.285 45.2031 240.29 45.2033C240.293 45.2034 240.294 45.2037 240.296 45.2038C240.297 45.204 240.297 45.2042 240.297 45.2042C240.297 45.2042 240.297 45.2041 240.296 45.2038C240.295 45.2034 240.294 45.203 240.293 45.2023C240.29 45.2008 240.287 45.1987 240.283 45.1958C240.276 45.1897 240.271 45.1823 240.268 45.1762C240.265 45.1698 240.267 45.1697 240.267 45.1797H241.834C241.834 44.205 240.991 43.5052 240.021 43.6573L240.264 45.2051ZM240.267 45.1797V47.954H241.834V45.1797H240.267ZM241.734 48.3366C242.918 46.2222 245.006 44.8753 247.407 44.8753V43.3085C244.38 43.3085 241.798 45.0153 240.367 47.5713L241.734 48.3366ZM247.407 44.8753C250.125 44.8753 252.248 46.5772 253.132 49.1835L254.616 48.6804C253.544 45.5186 250.877 43.3085 247.407 43.3085V44.8753ZM254.591 49.2485C255.743 46.6387 257.946 44.8753 260.72 44.8753V43.3085C257.187 43.3085 254.5 45.5769 253.157 48.6154L254.591 49.2485ZM260.72 44.8753C264.601 44.8753 266.952 48.213 266.952 52.0755H268.519C268.519 47.675 265.761 43.3085 260.72 43.3085V44.8753Z" fill="#5D5D5D" mask="url(#path-7-outside-1)"/>
</svg>
