<svg width="232" height="64" viewBox="0 0 232 64" fill="none" xmlns="http://www.w3.org/2000/svg">
<path d="M39.0544 8.33841C35.9025 17.2753 32.7507 26.0925 29.5988 34.9495C29.1999 36.0666 28.8009 37.1837 28.3222 38.3009C28.1227 38.8195 28.2823 38.9791 28.761 38.9392C32.9502 38.9392 37.0994 38.9791 41.2886 38.8993C41.6477 38.8993 42.2062 38.3806 42.3658 37.9418C43.7622 34.1915 45.0788 30.4013 46.4353 26.6111C47.2731 24.2971 48.1109 21.9831 48.9488 19.6691C49.1083 19.1903 49.1482 18.6318 49.2679 18.1131C49.3078 17.9136 49.5073 17.754 49.5871 17.5546C49.7467 17.7141 49.9462 17.8338 49.9861 17.9934C51.4622 22.3023 52.8586 26.6111 54.3348 30.8801C55.5716 34.5107 56.9281 38.1413 58.2048 41.7719C60.7183 48.7937 63.2717 55.8155 65.7453 62.8373C66.0245 63.5954 66.5432 63.7151 67.1417 63.7151C71.2111 63.755 75.2806 63.7151 79.3501 63.755C79.9884 63.755 79.9485 63.5156 79.7889 62.9969C77.9537 57.9699 76.1583 52.9429 74.363 47.916C71.5303 40.0563 68.6976 32.1967 65.865 24.2971C64.3489 20.0681 62.8727 15.7991 61.3566 11.5302C60.1198 8.01924 58.8431 4.54823 57.6063 1.03732C57.367 0.359071 56.9281 0 56.21 0C51.8213 0 47.3928 0 43.0041 0C42.286 0 41.8471 0.359071 41.6078 1.03732C40.8098 3.51091 39.9321 5.90472 39.0544 8.33841Z" fill="white"/>
<path d="M25.8087 32.7556C27.6041 27.7286 29.3994 22.7415 31.1948 17.7943C33.1896 12.2088 35.1845 6.62322 37.2192 1.03767C37.4985 0.279637 37.3389 0.0801539 36.5808 0.120051C32.6311 0.120051 28.7212 0.159947 24.7714 0.120051C23.774 0.120051 23.3351 0.678604 23.0559 1.47654C22.2579 3.71075 21.46 5.98487 20.6621 8.21908C17.7895 16.2383 14.877 24.2576 12.0045 32.2768C10.249 37.224 8.49356 42.2111 6.7381 47.1982C4.82306 52.5044 2.90802 57.8107 0.992975 63.117C0.753595 63.7553 0.913181 63.8351 1.47174 63.8351C5.46141 63.8351 9.49098 63.8351 13.4806 63.8351C14.3584 63.8351 14.877 63.4361 15.1563 62.5983C16.2734 59.4465 17.4304 56.2946 18.4677 53.1029C18.7869 52.1055 19.3854 51.7863 20.303 51.7863C21.3403 51.7863 22.3776 51.7863 23.4149 51.7863C31.7533 51.7863 40.0918 51.7863 48.4302 51.7863C49.2281 51.7863 50.026 51.906 50.824 51.9459C51.2229 51.9858 51.7017 52.0656 51.4224 51.3474C50.425 48.7143 49.3877 46.0811 48.51 43.408C48.1509 42.3707 47.5923 42.1313 46.5949 42.1313C38.9348 42.1712 31.2347 42.1313 23.5745 42.1313C22.3776 42.1313 22.4175 42.1313 22.8165 41.0142C23.8139 38.3411 24.8113 35.5882 25.8087 32.7556Z" fill="#1744FF"/>
<path d="M34.6659 59.486C35.1845 58.1295 35.6234 56.8528 36.142 55.616C36.3415 55.0974 36.142 55.0176 35.7431 55.0176C31.7135 55.0575 27.6839 55.1772 23.6544 55.1772C22.6569 55.1772 22.1782 55.4564 21.859 56.414C21.101 58.728 20.2232 60.9622 19.3854 63.2363C19.2258 63.7151 19.3056 63.8348 19.7445 63.8348C23.8937 63.8348 28.0031 63.8348 32.1524 63.8348C32.8705 63.8348 33.3094 63.4757 33.5487 62.7974C33.9078 61.6803 34.2669 60.643 34.6659 59.486Z" fill="white"/>
<path d="M105.556 4.91371H99.4641L89.6983 30H94.9127L97.0988 24.1585H107.796L109.982 30H115.322L105.556 4.91371ZM102.456 9.85929L106.076 19.5534H98.819L102.456 9.85929ZM125.916 12.1708C120.379 12.1708 116.67 16.0592 116.67 21.3094C116.67 26.5775 120.379 30.448 125.916 30.448C128.819 30.448 131.256 29.2832 132.886 27.1868L129.554 24.3377C128.568 25.4128 127.278 26.0937 125.773 26.0937C123.354 26.0937 121.436 24.2122 121.436 21.3094C121.436 18.4245 123.372 16.5251 125.791 16.5251C127.314 16.5251 128.443 17.1343 129.5 18.2632L132.869 15.45C131.274 13.3535 128.819 12.1708 125.916 12.1708ZM144.08 12.1708C138.543 12.1708 134.834 16.0592 134.834 21.3094C134.834 26.5775 138.543 30.448 144.08 30.448C146.983 30.448 149.42 29.2832 151.05 27.1868L147.717 24.3377C146.732 25.4128 145.442 26.0937 143.936 26.0937C141.517 26.0937 139.6 24.2122 139.6 21.3094C139.6 18.4245 141.535 16.5251 143.954 16.5251C145.478 16.5251 146.606 17.1343 147.664 18.2632L151.032 15.45C149.438 13.3535 146.983 12.1708 144.08 12.1708ZM162.369 12.1708C156.975 12.1708 152.998 16.0771 152.998 21.3094C152.998 26.5417 156.975 30.448 162.369 30.448C167.781 30.448 171.776 26.5417 171.776 21.3094C171.776 16.0771 167.781 12.1708 162.369 12.1708ZM162.369 16.5251C165.003 16.5251 166.992 18.4961 166.992 21.3094C166.992 24.1226 165.003 26.0937 162.369 26.0937C159.735 26.0937 157.764 24.1226 157.764 21.3094C157.764 18.4961 159.735 16.5251 162.369 16.5251ZM191.884 12.6367H187.225V22.1874C187.225 24.9648 185.684 26.0937 183.678 26.0937C181.653 26.0937 180.13 24.9648 180.13 22.1874V12.6367H175.453V22.5995C175.453 28.0827 179.323 30.448 183.678 30.448C188.014 30.448 191.884 28.0827 191.884 22.5995V12.6367ZM206.323 12.1708C204.352 12.1708 202.453 12.8338 201.216 14.6794V12.6367H196.665V30H201.342V20.4851C201.342 17.869 203.008 16.5609 205.015 16.5609C207.147 16.5609 208.402 17.9407 208.402 20.4493V30H213.078V18.9441C213.078 14.9124 210.265 12.1708 206.323 12.1708ZM230.26 12.6367H223.971V7.4761H219.294V12.6367H215.943V16.7939H219.294V23.5134C219.294 28.011 221.498 30.448 225.798 30.448C228.271 30.448 230.027 29.6595 231.55 28.6203L229.83 24.9648C228.88 25.5382 227.68 26.0937 226.569 26.0937C225.118 26.0937 223.971 25.3053 223.971 23.1371V16.7939H230.26V12.6367ZM97.1704 36.9137H92.1711V62H97.1704V51.6788H109.248V62H114.247V36.9137H109.248V47.0199H97.1704V36.9137ZM135.853 44.6367H131.194V54.1874C131.194 56.9648 129.653 58.0937 127.646 58.0937C125.622 58.0937 124.098 56.9648 124.098 54.1874V44.6367H119.422V54.5995C119.422 60.0827 123.292 62.448 127.646 62.448C131.983 62.448 135.853 60.0827 135.853 54.5995V44.6367ZM150.381 44.1708C148.052 44.1708 146.421 45.0847 145.292 46.4465V36.197H140.634V62H145.203V60.0827C146.332 61.4804 147.998 62.448 150.399 62.448C155.184 62.448 158.803 58.5238 158.803 53.3094C158.803 48.095 155.184 44.1708 150.381 44.1708ZM149.521 48.5251C152.281 48.5251 154.001 50.6574 154.001 53.3094C154.001 55.9614 152.281 58.0937 149.521 58.0937C146.869 58.0937 145.059 56.051 145.059 53.3094C145.059 50.5678 146.869 48.5251 149.521 48.5251Z" fill="white"/>
</svg>
