<svg width="141" height="25" viewBox="0 0 141 25" fill="none" xmlns="http://www.w3.org/2000/svg">
<path d="M17.9315 24.1652H11.4874V14.9757H7.31848V24.1652H0.709183V0.46068H7.30575V9.30697H11.4747V0.46068H17.9188V24.1652H17.9315ZM47.4699 24.2668C54.0665 24.2668 59.4556 18.7761 59.4556 12.0905C59.4556 5.30326 54.0665 0.0539551 47.4699 0.0539551C40.7844 0.0539551 37.4035 4.90924 36.59 6.89203C36.59 3.95598 33.654 0.44797 30.2476 0.44797H19.2406V24.1652H29.485C33.654 24.1652 36.59 20.6063 36.59 17.4796C37.5179 19.4116 40.7971 24.2668 47.4699 24.2668ZM28.6716 14.6325C29.6248 14.6325 30.3875 15.5604 30.3875 16.6153C30.3875 17.7211 29.6248 18.6489 28.6716 18.6489H25.3923V14.6325H28.6716ZM28.6716 5.73541C29.6248 5.73541 30.3875 6.66325 30.3875 7.71819C30.3875 8.77314 29.6248 9.70098 28.6716 9.70098H25.3923V5.73541H28.6716ZM33.0058 12.0905C33.7684 12.0397 35.014 11.1627 35.4842 10.6415C35.3063 11.277 35.3063 13.2853 35.4842 13.9208C34.9631 13.1454 33.7684 12.2303 33.0058 12.0905ZM41.458 12.0905C41.458 8.74772 44.178 6.05316 47.5208 6.06587C50.8763 6.09129 53.5454 8.82398 53.5073 12.1795C53.4564 15.4841 50.7873 18.1405 47.4826 18.1405C44.1526 18.1405 41.458 15.446 41.458 12.0905ZM47.4699 16.8441C50.0374 16.8441 52.1981 14.7342 52.1981 12.0905C52.1981 9.44678 50.0374 7.36231 47.4699 7.36231C44.8262 7.36231 42.7163 9.44678 42.7163 12.0905C42.7163 14.7342 44.8262 16.8441 47.4699 16.8441Z" fill="white"/>
<path d="M93.9001 8.84929C93.773 3.10429 89.7058 0.0665577 84.7234 0.0665577C81.9907 0.0665577 79.5249 0.98169 77.8472 2.76112C76.1694 0.98169 73.7037 0.0665577 70.971 0.0665577C65.9886 0.0665577 61.9214 3.117 61.7943 8.862C61.7943 8.87471 61.7943 8.88742 61.7943 8.90013V22.0043C61.7943 23.2118 62.7729 24.1778 63.9677 24.1778H66.0267C66.2301 24.1778 66.3953 24.0125 66.3953 23.8092V8.88742C66.4843 6.05305 68.4925 4.55325 70.971 4.55325C73.4495 4.55325 75.4577 6.05305 75.5467 8.88742V21.9916C75.5467 23.1991 76.5253 24.1651 77.7201 24.1651H79.7792C79.9825 24.1651 80.1477 23.9998 80.1477 23.7965V8.87471C80.2367 6.04034 82.2449 4.54054 84.7234 4.54054C87.2019 4.54054 89.2101 6.04034 89.2991 8.87471V21.9789C89.2991 23.1864 90.2778 24.1524 91.4725 24.1524H93.5316C93.7349 24.1524 93.9001 23.9871 93.9001 23.7838V8.862C93.9129 8.87471 93.9001 8.862 93.9001 8.84929ZM140.254 0.435154H136.759C135.793 0.435154 134.89 0.91814 134.344 1.71888L130.48 7.43846C129.972 8.18836 128.879 8.18836 128.37 7.43846L124.506 1.71888C123.972 0.91814 123.057 0.435154 122.091 0.435154H118.596C118.38 0.435154 118.253 0.676646 118.367 0.854589L125.256 11.0736C125.752 11.8108 125.752 12.7767 125.256 13.5139L118.367 23.7329C118.24 23.9109 118.38 24.1524 118.596 24.1524H122.091C123.057 24.1524 123.96 23.6694 124.506 22.8686L128.37 17.149C128.879 16.3991 129.972 16.3991 130.48 17.149L134.344 22.8686C134.878 23.6694 135.793 24.1524 136.759 24.1524H140.254C140.47 24.1524 140.597 23.9109 140.483 23.7329L133.581 13.5266C133.086 12.7894 133.086 11.8235 133.581 11.0863L140.47 0.867299C140.597 0.689357 140.47 0.435154 140.254 0.435154ZM116.791 0.435154H114.732C113.69 0.435154 112.813 1.17234 112.597 2.15103C110.767 0.752909 108.466 0.0411377 105.988 0.0411377C99.9629 0.0411377 95.0695 4.2355 95.0695 12.1539C95.0695 20.0724 99.9502 24.2667 105.988 24.2667C108.453 24.2667 110.728 23.5677 112.559 22.195C112.66 23.3008 113.588 24.1778 114.732 24.1778H116.791C116.995 24.1778 117.16 24.0125 117.16 23.8092V0.803749C117.147 0.600386 116.995 0.435154 116.791 0.435154ZM105.988 19.7673C102.391 19.7673 99.4672 17.1363 99.4672 12.1667C99.4672 7.19697 102.391 4.56596 105.988 4.56596C109.585 4.56596 112.508 7.19697 112.508 12.1667C112.508 17.1363 109.585 19.7673 105.988 19.7673Z" fill="white"/>
</svg>
