<svg width="117" height="40" viewBox="0 0 117 40" fill="none" xmlns="http://www.w3.org/2000/svg">
<path d="M26.2552 15.3113C28.1796 16.8758 29.1431 19.3181 29.1431 22.639V39.3159H19.9744V23.8663C19.9744 23.1929 19.7217 22.603 19.2165 22.0976C18.711 21.5921 18.121 21.3397 17.4476 21.3397H12.1052C11.4307 21.3397 10.8531 21.5922 10.3726 22.0976C9.89095 22.603 9.65058 23.1929 9.65058 23.8663V39.3159H0.409576V0.980713H9.65047V13.4703C9.79495 13.4229 10.131 13.326 10.6613 13.1815C11.1903 13.0372 11.8884 12.9651 12.7549 12.9651H18.6748C21.8029 12.9649 24.3298 13.7478 26.2552 15.3113ZM55.3497 12.9649H64.5905V29.1365C64.5905 32.1686 63.7602 34.6233 62.0999 36.5003C60.4394 38.3774 58.1889 39.3159 55.3497 39.3159H46.2531C43.0766 39.3159 40.5374 38.4384 38.6367 36.6809C36.7347 34.9245 35.7848 32.4102 35.7848 29.1366V12.9651H45.0257V28.4147C45.0257 29.0893 45.2662 29.6667 45.7477 30.1474C46.2283 30.629 46.8059 30.8693 47.4804 30.8693H52.823C53.4963 30.8693 54.0862 30.629 54.5917 30.1474C55.0972 29.6667 55.3497 29.0892 55.3497 28.4147V12.9649ZM71.5934 0.980713H80.8343V39.3159H71.5934V0.980713ZM116.643 12.9649V29.1365C116.643 32.1686 115.812 34.6233 114.152 36.5003C112.492 38.3774 110.241 39.3159 107.402 39.3159H98.3776C95.1526 39.3159 92.5895 38.4384 90.6889 36.6809C88.7869 34.9245 87.8372 32.4102 87.8372 29.1366V12.9651H97.0781V28.4147C97.0781 29.0893 97.3182 29.6667 97.8 30.1474C98.2806 30.629 98.8582 30.8693 99.5326 30.8693H104.947C105.621 30.8693 106.198 30.629 106.68 30.1474C107.16 29.6667 107.402 29.0892 107.402 28.4147V12.9649H116.643Z" fill="#3DBB3D"/>
</svg>
