<svg width="302" height="91" viewBox="0 0 302 91" fill="none" xmlns="http://www.w3.org/2000/svg">
<rect x="2.51086" y="2.07391" width="297.106" height="87.1686" rx="18.3918" stroke="#345D9D" stroke-width="3.19361"/>
<g clip-path="url(#clip0)">
<path d="M82.2879 18.4477C67.4872 18.4477 55.4868 30.4482 55.4868 45.2488C55.4868 60.0494 67.4872 72.0499 82.2879 72.0499C97.0885 72.0499 109.089 60.0494 109.089 45.2488C109.058 30.4482 97.0885 18.4477 82.2879 18.4477ZM82.6879 46.1104L79.9185 55.5261H94.8114C95.3345 55.5261 95.673 56.0185 95.5499 56.5108L94.2576 60.9725C94.1345 61.4033 93.7345 61.711 93.2729 61.711H70.5028L74.3491 48.6951L70.1027 50.0182L71.0259 46.9412L75.303 45.618L80.7186 27.3404C80.8416 26.9096 81.2417 26.6019 81.7032 26.6019H87.4573C87.9804 26.6019 88.3189 27.0942 88.1958 27.5865L83.611 43.0333L87.8573 41.7102L86.9342 44.818L82.6879 46.1104Z" fill="#345D9D"/>
<path d="M124.567 26.5707H122.905C122.597 26.5707 122.382 26.7554 122.32 27.0631L118.013 61.1875C117.982 61.526 118.074 61.6799 118.413 61.6799H120.074C120.413 61.6799 120.597 61.526 120.659 61.1875L124.997 27.0631C125.09 26.7246 124.905 26.5707 124.567 26.5707Z" fill="#345D9D"/>
<path d="M133.274 36.4171H131.613C131.305 36.4171 131.09 36.5709 131.028 36.9094L127.951 61.2181C127.92 61.5565 128.105 61.7104 128.413 61.7104H130.074C130.382 61.7104 130.597 61.5565 130.659 61.2181L133.705 36.9402C133.736 36.6017 133.613 36.4171 133.274 36.4171Z" fill="#345D9D"/>
<path d="M206.078 36.0171C203.77 36.0171 201.77 36.6633 200.077 37.9864C198.385 39.3095 197.277 41.0327 196.723 43.1866C196.262 44.9405 195.862 47.4022 195.677 49.0638C195.431 51.31 195.216 53.1563 195.216 54.9409C195.246 57.1256 195.954 58.8488 197.277 60.1719C198.631 61.4643 200.477 62.1412 202.816 62.1412C205.093 62.1412 207.093 61.4951 208.785 60.1719C210.478 58.8796 211.586 57.1256 212.139 54.9409C212.509 53.4947 212.878 51.5562 213.186 49.0638C213.493 46.4791 213.647 44.5097 213.647 43.1558C213.647 41.0019 212.97 39.2788 211.616 37.9864C210.232 36.6633 208.385 36.0171 206.078 36.0171ZM210.755 46.6945C210.601 47.9253 210.509 48.7253 210.478 49.0638C210.17 51.587 209.893 53.3716 209.647 54.4486C209.278 56.0487 208.478 57.341 207.278 58.3257C206.078 59.3104 204.662 59.7719 203.093 59.7719C201.493 59.7719 200.231 59.2796 199.277 58.3257C198.323 57.3718 197.862 56.1102 197.862 54.5409C197.862 53.7101 197.954 52.6639 198.108 51.4331C198.262 50.2023 198.354 49.4023 198.385 49.0638C198.693 46.6637 198.97 44.879 199.216 43.6789C199.585 42.0789 200.385 40.7865 201.585 39.8019C202.785 38.8172 204.201 38.3556 205.77 38.3556C207.37 38.3556 208.632 38.848 209.585 39.7711C210.539 40.725 211.001 41.9866 211.001 43.5559C211.001 44.4482 210.909 45.4636 210.755 46.6945Z" fill="#345D9D"/>
<path d="M223.124 36.4171H221.494C221.186 36.4171 220.97 36.6017 220.909 36.9094L217.801 61.2181C217.77 61.5565 217.955 61.7104 218.263 61.7104H219.924C220.232 61.7104 220.447 61.5565 220.509 61.2181L223.555 36.9402C223.586 36.6017 223.463 36.4171 223.124 36.4171Z" fill="#345D9D"/>
<path d="M244.11 37.8635C242.971 36.6635 241.371 36.0789 239.279 36.0789C237.925 36.0789 236.694 36.325 235.556 36.8481C234.417 37.3712 233.463 38.1405 232.663 39.1867C232.509 39.3098 232.448 39.279 232.448 39.0944L232.694 36.9404C232.725 36.6327 232.602 36.4481 232.294 36.4481H230.632C230.325 36.4481 230.109 36.6327 230.048 36.9404L227.001 61.2184C226.971 61.5261 227.063 61.7107 227.401 61.7107H229.063C229.371 61.7107 229.586 61.5261 229.617 61.2184L231.832 43.8023C232.202 42.1714 232.971 40.8483 234.109 39.8944C235.248 38.9405 236.602 38.4482 238.202 38.4482C239.679 38.4482 240.848 38.9097 241.71 39.8329C242.571 40.756 243.002 41.9868 243.002 43.5561C243.002 44.0176 242.971 44.3869 242.941 44.6638L240.817 61.2184C240.817 61.3722 240.817 61.4645 240.879 61.5568C240.971 61.6491 241.094 61.7107 241.279 61.7107H242.941C243.248 61.7107 243.464 61.5568 243.494 61.2184L245.618 44.2638C245.679 43.5869 245.71 43.0945 245.71 42.7561C245.802 40.6637 245.248 39.0328 244.11 37.8635Z" fill="#345D9D"/>
<path d="M134.352 26.6013C133.367 26.0782 132.105 26.4474 131.613 27.4628C131.09 28.4475 131.49 29.7091 132.475 30.2322C133.459 30.7553 134.69 30.3553 135.213 29.3706C135.736 28.3552 135.367 27.1244 134.352 26.6013Z" fill="#345D9D"/>
<path d="M224.324 26.6013C223.34 26.0782 222.078 26.4474 221.586 27.4628C221.063 28.4475 221.463 29.7091 222.447 30.2322C223.432 30.7553 224.694 30.3553 225.217 29.3706C225.709 28.3552 225.309 27.1244 224.324 26.6013Z" fill="#345D9D"/>
<path d="M184.415 36.0171C182.107 36.0171 180.107 36.694 178.415 37.9864C176.722 39.3095 175.615 41.0327 175.061 43.1866C174.599 44.9405 174.168 47.7099 174.015 49.0638C173.799 51.0331 173.553 53.1563 173.553 54.9409C173.584 57.1256 174.292 58.8488 175.615 60.1719C176.969 61.4643 178.815 62.1412 181.153 62.1412C183.43 62.1412 185.43 61.4951 187.123 60.1719C188.815 58.8796 189.923 57.1256 190.477 54.9409C190.508 54.7563 190.569 54.5717 190.6 54.3871C190.631 54.2332 190.508 54.1101 190.385 54.1101H188.323C188.2 54.1101 188.046 54.1717 188.015 54.3563C188.015 54.3871 187.984 54.4486 187.984 54.4486C187.615 56.0487 186.815 57.341 185.615 58.3257C184.415 59.3104 183 59.7719 181.43 59.7719C179.83 59.7719 178.569 59.2796 177.615 58.3257C176.661 57.3718 176.199 56.1102 176.199 54.5409C176.199 53.7101 176.292 52.6639 176.445 51.4331C176.569 50.3869 176.692 49.4023 176.722 49.0638C177.03 46.6637 177.307 44.879 177.553 43.6789C177.922 42.0789 178.723 40.7865 179.923 39.8019C181.123 38.8172 182.538 38.3556 184.107 38.3556C185.677 38.3556 186.969 38.8172 187.923 39.7711C188.877 40.725 189.338 41.9866 189.338 43.5559V43.5866C189.338 43.802 189.523 43.9866 189.738 43.9866H191.677C191.831 43.9866 191.985 43.8636 191.985 43.6789C191.985 43.4635 191.985 43.2789 191.985 43.0943C191.985 40.9404 191.308 39.2172 189.954 37.9249C188.569 36.6633 186.754 36.0171 184.415 36.0171Z" fill="#345D9D"/>
<path d="M167.707 37.9864C166.353 36.694 164.507 36.0171 162.199 36.0171C159.891 36.0171 157.891 36.6633 156.199 37.9864C154.506 39.3095 153.398 41.0327 152.845 43.1866C152.383 44.9405 152.168 46.5098 151.798 49.0638C151.46 51.587 151.337 53.1563 151.337 54.9409C151.368 57.1256 152.075 58.8488 153.398 60.1719C154.752 61.4643 156.599 62.1412 158.937 62.1412C161.214 62.1412 163.214 61.4951 164.907 60.1719C166.599 58.8796 167.707 57.1256 168.261 54.9409C168.291 54.7563 168.353 54.5717 168.384 54.3871C168.414 54.2332 168.322 54.1101 168.168 54.1101H166.107C165.984 54.1101 165.83 54.1717 165.799 54.3563C165.799 54.3871 165.768 54.4486 165.768 54.4486C165.399 56.0487 164.599 57.341 163.399 58.3257C162.199 59.3104 160.783 59.7719 159.214 59.7719C157.614 59.7719 156.352 59.2796 155.399 58.3257C154.445 57.3718 153.983 56.1102 153.983 54.5409C153.983 53.8024 154.045 52.8793 154.168 51.8331L169.122 47.1868C169.43 47.0945 169.553 46.9406 169.614 46.5714C169.707 45.8021 169.768 44.479 169.768 43.1251C169.738 41.1865 169.061 39.2788 167.707 37.9864ZM167.122 44.9713C167.122 45.1252 167.03 45.2482 166.876 45.279L154.475 49.1253C154.475 49.0945 154.475 49.0945 154.475 49.0638C154.783 46.6637 155.06 44.879 155.306 43.6789C155.675 42.0789 156.475 40.7865 157.676 39.8019C158.876 38.8172 160.291 38.3556 161.86 38.3556C163.46 38.3556 164.722 38.848 165.676 39.7711C167.184 41.3404 167.214 42.9405 167.122 44.9713Z" fill="#345D9D"/>
<path d="M145.644 59.0335C145.952 58.8797 146.29 59.0951 146.229 59.4335L146.013 61.0952C145.982 61.3106 145.829 61.4952 145.644 61.5875C144.167 62.1414 142.105 62.3875 140.444 61.649C138.536 60.7875 138.044 58.9104 138.321 56.5719L140.505 38.7558L140.813 36.2018L141.552 30.5401C141.582 30.2016 141.798 30.0477 142.136 30.0477H143.736C144.105 30.0477 144.198 30.2631 144.136 30.5401L143.182 38.6019H148.383C148.69 38.6019 148.813 38.7865 148.813 39.0943L148.659 40.2635C148.629 40.4482 148.598 40.5405 148.506 40.6635C148.413 40.7559 148.229 40.7866 148.106 40.7866H142.936L141.121 55.4026C140.936 56.9719 140.721 58.3874 141.521 59.1566C142.567 60.0182 144.598 59.5259 145.644 59.0335Z" fill="#345D9D"/>
</g>
<defs>
<clipPath id="clip0">
<rect width="190.623" height="53.8791" fill="white" transform="translate(55.3329 18.2934)"/>
</clipPath>
</defs>
</svg>
