<svg id="Layer_1" data-name="Layer 1" xmlns="http://www.w3.org/2000/svg" viewBox="0 0 676.86 212.61"><defs><style>.cls-1{fill:#fff;}</style></defs><path class="cls-1" d="M528.07,571.28H509.39l-.12-.13a.22.22,0,0,1-.06-.13c0-.39,0-.77,0-1.16l0-157.58c0-.09.08-.17.15-.34H527a25.4,25.4,0,0,1,.12,4.18c0,1.36,0,2.72,0,4.09v16.86c.75-.37,1.26-.61,1.75-.87l33-17.77c3.68-2,7.36-4,11-6a4.92,4.92,0,0,1,2.49-.62c3.84,0,7.69,0,11.53,0,.33,0,.67,0,1.17.08.05,2,0,3.89,0,5.82s0,3.8,0,5.69,0,3.9,0,5.84v5.88c.69-.31,1.16-.5,1.62-.73q22-10.92,44-21.84a6.65,6.65,0,0,1,3.21-.75c3.89,0,7.78,0,11.67,0H650l.17.18s.08.08.08.11q0,79.1.07,158.17c0,.28,0,.57-.06.83-1.15.25-17,.3-18.8.05,0-.58-.06-1.2-.06-1.82q0-33.48,0-67,0-33.78,0-67.56v-1.9a2.82,2.82,0,0,0-1.76.54q-11.4,5.53-22.79,11.1l-16.25,7.91c-.48.23-.94.49-1.5.79V571.13c-1.23.26-17.12.31-18.9.06q0-7.61,0-15.25t0-15.46V433.07a2,2,0,0,0-.27-.16.26.26,0,0,0-.15,0,3.55,3.55,0,0,0-.54.21l-40.47,21.68a4.52,4.52,0,0,0-.62.47c0,5.44,0,11,0,16.51s0,11,0,16.48v83Z" transform="translate(-191.59 -411.82)"/><path class="cls-1" d="M315.56,624.43H297.4a7.42,7.42,0,0,1-.18-.94c0-.44,0-.88,0-1.31V412.23l.21-.23s.07-.08.11-.08c.39,0,.78-.07,1.17-.07h75.45l.21.19s.07.08.07.12q0,79.15,0,158.29c0,.24,0,.48-.06.88l-9.76,0h-49c-.2,3.62-.07,7.1-.09,10.58s0,7.1,0,10.65v31.85Zm.28-196.26a2.19,2.19,0,0,0-.21.41,1.59,1.59,0,0,0-.06.43V553.76c0,.29,0,.58.06.87a.38.38,0,0,0,.06.13,2.6,2.6,0,0,0,.26.24c.3,0,.77.07,1.25.07h37.64c.61,0,1.22-.08,2-.12V430.21c0-.34,0-.68,0-1s-.12-.64-.19-1Z" transform="translate(-191.59 -411.82)"/><path class="cls-1" d="M868.46,571.28H850V432.67c-1.2.26-44.06,21.66-45.69,22.79V571.14c-1.24.25-17.15.29-18.71.07a.32.32,0,0,1-.1-.1.38.38,0,0,1-.06-.13c0-.39-.07-.78-.07-1.16q0-78.65,0-157.28a1.6,1.6,0,0,1,.1-.42s.06-.07.17-.19h17.53c0,4.39,0,8.71,0,13s0,8.63,0,13.13c.56-.23.92-.35,1.25-.52l47.55-25.13a4,4,0,0,1,1.91-.59c4.58,0,9.15,0,13.72,0a6.44,6.44,0,0,1,.78.08Z" transform="translate(-191.59 -411.82)"/><path class="cls-1" d="M407.1,411.94h72.63c.27,1.15.35,89.39.09,91.29a6.67,6.67,0,0,1-.93.17c-.43,0-.87,0-1.31,0h-53a2.83,2.83,0,0,0-.3.27.29.29,0,0,0-.07.12,3.68,3.68,0,0,0-.08.58v49.31a5.22,5.22,0,0,0,.1.65,6.25,6.25,0,0,0,1,.18c.43,0,.87,0,1.31,0H478.3v16.59c-1,.27-69.19.35-71.2.08Zm17.1,15.56a5,5,0,0,0-.09.65v58.33a3.72,3.72,0,0,0,.08.57c0,.05,0,.09.06.13l.09.1c1.68.28,37.81.2,38.86-.08.25-1.4.22-58.59,0-59.7C462,427.21,425.63,427.19,424.2,427.5Z" transform="translate(-191.59 -411.82)"/><path class="cls-1" d="M264.4,571.28H191.87a.94.94,0,0,1-.14-.13.2.2,0,0,1-.06-.12q0-45.88-.08-91.77c0-.53,0-1.06,0-1.6a2.66,2.66,0,0,1,.21-.4h55.74l.24-.25s.06-.08.06-.13c0-.82.08-1.65.08-2.47q0-22.91-.05-45.81c0-.09-.08-.17-.19-.42-.53,0-1.15-.08-1.76-.08H195.28v-16l.09-.11a.37.37,0,0,1,.12-.07,3.68,3.68,0,0,1,.58-.06h67.84a1.8,1.8,0,0,1,.4.1C264.55,413.1,264.64,568.78,264.4,571.28Zm-56.47-15.94c2.13.29,38,.2,39.1-.1V494.05a2.16,2.16,0,0,0-.59-.2q-19,0-37.92,0a2.49,2.49,0,0,0-.59.19Z" transform="translate(-191.59 -411.82)"/><path class="cls-1" d="M680,571.26c-.26-1.17-.31-92.3,0-94,4.62,0,9.28,0,13.93,0h41.91c.54-.55.37-1.11.37-1.63,0-3.3,0-6.61,0-9.92V428.31a7.35,7.35,0,0,0-1.09-.2c-.63,0-1.26,0-1.89,0H683.64a158.28,158.28,0,0,1-.1-16.07c1.1-.22,66.81-.3,69-.08l.1.1a.23.23,0,0,1,.06.12,8.5,8.5,0,0,1,.07.87q0,78.87,0,157.73a2.63,2.63,0,0,1-.12.49Zm16.14-15.92c2.15.29,38,.2,39.11-.1V494.05a2.16,2.16,0,0,0-.59-.2H696.89a3.23,3.23,0,0,0-.74.19Z" transform="translate(-191.59 -411.82)"/></svg>