<svg width="280" height="187" viewBox="0 0 280 187" fill="none" xmlns="http://www.w3.org/2000/svg">
<path d="M198.041 92.4224L158.445 136.769M76.8772 96.382L137.855 67.873L76.8772 96.382ZM76.8772 96.382L158.445 136.769L76.8772 96.382ZM76.8772 96.382L47.5763 147.857L158.445 136.769L76.8772 96.382ZM137.855 67.873L198.041 92.4224L137.855 67.873ZM137.855 67.873L213.879 27.881L198.041 92.4224L137.855 67.873ZM137.855 67.873L158.445 136.769L137.855 67.873Z" stroke="#1744FF" stroke-width="1.4929" stroke-linecap="round" stroke-linejoin="round"/>
<path d="M76.8786 115.581C87.7005 115.581 96.4733 106.808 96.4733 95.9862C96.4733 85.1643 87.7005 76.3915 76.8786 76.3915C66.0568 76.3915 57.284 85.1643 57.284 95.9862C57.284 106.808 66.0568 115.581 76.8786 115.581Z" fill="#10226E" stroke="#176BEA" stroke-width="1.99053"/>
<path d="M137.858 79.1523C144.307 79.1523 149.534 73.9251 149.534 67.4769C149.534 61.0287 144.307 55.8014 137.858 55.8014C131.41 55.8014 126.183 61.0287 126.183 67.4769C126.183 73.9251 131.41 79.1523 137.858 79.1523Z" fill="#10226E" stroke="white" stroke-width="1.99053"/>
<path d="M47.5788 159.136C54.027 159.136 59.2543 153.909 59.2543 147.461C59.2543 141.012 54.027 135.785 47.5788 135.785C41.1306 135.785 35.9033 141.012 35.9033 147.461C35.9033 153.909 41.1306 159.136 47.5788 159.136Z" fill="#10226E" stroke="white" stroke-width="1.99053"/>
<path d="M158.448 151.216C166.645 151.216 173.291 144.571 173.291 136.373C173.291 128.176 166.645 121.53 158.448 121.53C150.25 121.53 143.604 128.176 143.604 136.373C143.604 144.571 150.25 151.216 158.448 151.216Z" fill="#10226E" stroke="#176BEA" stroke-width="1.99053"/>
<path d="M213.881 42.7241C222.079 42.7241 228.724 36.0786 228.724 27.881C228.724 19.6833 222.079 13.0378 213.881 13.0378C205.683 13.0378 199.038 19.6833 199.038 27.881C199.038 36.0786 205.683 42.7241 213.881 42.7241Z" fill="#10226E" stroke="#176BEA" stroke-width="1.99053"/>
<path d="M198.043 104.697C205.041 104.697 210.714 99.0241 210.714 92.0262C210.714 85.0283 205.041 79.3555 198.043 79.3555C191.045 79.3555 185.372 85.0283 185.372 92.0262C185.372 99.0241 191.045 104.697 198.043 104.697Z" fill="#10226E" stroke="#345DED" stroke-width="2.9858"/>
</svg>
