<svg width="141" height="39" viewBox="0 0 141 39" fill="none" xmlns="http://www.w3.org/2000/svg">
<g clip-path="url(#clip0)">
<path d="M19.661 35.6537C17.5577 36.023 15.4175 36.1338 13.2035 36.4287L6.45051 16.6501V37.2775C4.34725 37.4989 2.42845 37.7941 0.435791 38.0893V0.302979H6.04485L13.72 21.7426V0.302979H19.661V35.6537ZM31.2848 14.1407C33.5728 14.1407 37.0783 14.03 39.1816 14.03V19.934C36.5615 19.934 33.4989 19.934 31.2848 20.0447V28.8272C34.7536 28.6059 38.2222 28.3104 41.7276 28.1997V33.8821L25.3805 35.1739V0.302979H41.7276V6.2071H31.2848V14.1407ZM63.6835 6.20723H57.558V33.3661C55.5654 33.3661 53.5727 33.3661 51.6542 33.4397V6.20723H45.5287V0.302979H63.6838L63.6835 6.20723ZM73.2776 13.7349H81.359V19.6389H73.2776V33.034H67.4838V0.302979H83.9789V6.2071H73.2776V13.7349ZM93.573 27.8678C96.9311 27.9414 100.326 28.2001 103.61 28.3843V34.2147C98.3333 33.8824 93.0565 33.5507 87.669 33.4397V0.302979H93.573V27.8678ZM108.592 34.6206C110.474 34.7315 112.466 34.8422 114.385 35.0633V0.302979H108.592V34.6206ZM140.253 0.302979L132.762 18.2737L140.253 38.0893C138.038 37.7941 135.824 37.3881 133.61 37.0191L129.367 26.0967L125.05 36.1338C122.909 35.7644 120.843 35.6537 118.703 35.3585L126.304 18.0521L119.441 0.302979H125.787L129.662 10.2293L133.795 0.302979H140.253V0.302979Z" fill="#D81F26"/>
</g>
<defs>
<clipPath id="clip0">
<rect width="139.817" height="37.7863" fill="white" transform="translate(0.435791 0.302979)"/>
</clipPath>
</defs>
</svg>
