<svg width="65" height="65" viewBox="0 0 65 65" fill="none" xmlns="http://www.w3.org/2000/svg">
<path d="M29.4778 64.499C28.3954 64.3982 25.5475 63.9048 24.4911 63.6351C15.3581 61.3032 7.62376 55.0493 3.53078 46.6869C1.28695 42.1026 0.35182 38.0028 0.35551 32.7661C0.359159 27.523 1.3087 23.3411 3.5162 18.8452C5.16957 15.4778 7.07131 12.8399 9.77114 10.169C14.8213 5.17275 21.2183 2.07987 28.4642 1.13102C30.8331 0.820811 35.8477 0.921744 38.0601 1.32417C42.6613 2.16108 46.7923 3.80483 50.4943 6.27178C58.1854 11.3971 63.174 19.2355 64.4746 28.2384C64.753 30.1659 64.9142 34.1771 64.7266 34.5122C64.6244 34.695 64.5712 34.5035 64.5042 33.7112C64.1722 29.7833 62.4731 25.0338 60.1289 21.4807C53.0037 10.6812 39.7101 6.09942 27.4019 10.2011C17.9018 13.3669 10.7619 21.3989 8.80226 31.1245C7.83328 35.9335 8.12406 40.6472 9.67673 45.3008C12.415 53.5077 18.9685 60.0642 27.2797 62.9114C29.2397 63.5829 31.7569 64.1424 33.4169 64.2756C35.4044 64.4351 34.9035 64.5868 32.4512 64.568C31.1132 64.5578 29.7752 64.5267 29.4778 64.499Z" fill="#F78B24"/>
<path d="M36.303 60.5312C26.0294 59.7829 17.5172 52.1227 15.7408 42.027C15.4174 40.1893 15.3551 36.7542 15.6145 35.0636C17.1547 25.0242 24.8772 17.4076 34.9515 15.9919C36.9934 15.705 40.6321 15.8056 42.5877 16.203C44.2888 16.5487 46.1746 17.1624 47.656 17.8524L48.8048 18.3874L47.7235 18.898C43.8217 20.7407 41.4135 25.0507 41.9788 29.1795C42.5449 33.314 45.4041 36.5592 49.5087 37.7259C50.9864 38.1459 53.2461 38.1457 54.7244 37.7256C56.6359 37.1823 58.1349 36.2938 59.4992 34.8956C59.9598 34.4235 60.3663 34.0858 60.4026 34.145C60.4388 34.2042 60.5441 34.8551 60.6365 35.5913C60.8645 37.4076 60.7306 40.8633 60.3654 42.5886C59.2024 48.0835 56.2718 52.6957 51.7782 56.1035C47.525 59.3289 41.8985 60.9388 36.303 60.5312V60.5312Z" fill="#F78B24"/>
</svg>
