<svg width="301" height="91" viewBox="0 0 301 91" fill="none" xmlns="http://www.w3.org/2000/svg">
<rect x="2.16406" y="1.99157" width="297.106" height="87.1686" rx="18.3918" stroke="#00AFFF" stroke-width="3.19361"/>
<g clip-path="url(#clip0)">
<path d="M128.08 31.3453H118.153C117.474 31.3453 116.896 31.8389 116.79 32.5095L112.775 57.9665C112.695 58.4687 113.084 58.9216 113.593 58.9216H118.333C119.012 58.9216 119.59 58.4281 119.696 57.756L120.779 50.8899C120.883 50.2178 121.463 49.7242 122.14 49.7242H125.283C131.823 49.7242 135.597 46.5597 136.583 40.2887C137.027 37.5452 136.601 35.3895 135.317 33.8799C133.906 32.2221 131.403 31.3453 128.08 31.3453ZM129.226 40.6429C128.683 44.2052 125.961 44.2052 123.329 44.2052H121.831L122.882 37.5524C122.945 37.1503 123.293 36.8542 123.699 36.8542H124.386C126.179 36.8542 127.87 36.8542 128.744 37.8761C129.265 38.4858 129.425 39.3916 129.226 40.6429Z" fill="#253B80"/>
<path d="M157.756 40.5282H153.002C152.597 40.5282 152.247 40.8243 152.185 41.2264L151.974 42.5561L151.642 42.0741C150.612 40.5804 148.317 40.0811 146.027 40.0811C140.773 40.0811 136.286 44.0599 135.413 49.6414C134.958 52.4256 135.604 55.0878 137.184 56.9444C138.632 58.6515 140.705 59.3628 143.171 59.3628C147.404 59.3628 149.752 56.6411 149.752 56.6411L149.54 57.962C149.46 58.4672 149.849 58.9201 150.356 58.9201H154.638C155.319 58.9201 155.893 58.4265 156.001 57.7544L158.57 41.4833C158.651 40.9825 158.264 40.5282 157.756 40.5282ZM151.129 49.7807C150.671 52.4967 148.515 54.3199 145.766 54.3199C144.385 54.3199 143.282 53.8772 142.573 53.0382C141.871 52.2049 141.604 51.019 141.827 49.698C142.256 47.0052 144.447 45.1225 147.155 45.1225C148.505 45.1225 149.602 45.5711 150.325 46.4173C151.049 47.2723 151.337 48.4656 151.129 49.7807Z" fill="#253B80"/>
<path d="M183.075 40.5281H178.298C177.842 40.5281 177.414 40.7546 177.155 41.1335L170.566 50.8389L167.773 41.5123C167.598 40.9288 167.059 40.5281 166.45 40.5281H161.755C161.185 40.5281 160.788 41.0856 160.97 41.6227L166.232 57.0649L161.285 64.0486C160.896 64.5988 161.288 65.3551 161.96 65.3551H166.731C167.184 65.3551 167.608 65.1344 167.865 64.7628L183.754 41.8273C184.135 41.2786 183.744 40.5281 183.075 40.5281Z" fill="#253B80"/>
<path d="M198.892 31.3453H188.963C188.285 31.3453 187.707 31.8389 187.601 32.5095L183.586 57.9665C183.506 58.4687 183.895 58.9216 184.402 58.9216H189.497C189.97 58.9216 190.375 58.5761 190.449 58.1058L191.588 50.8899C191.693 50.2178 192.272 49.7242 192.95 49.7242H196.091C202.632 49.7242 206.405 46.5597 207.392 40.2887C207.838 37.5452 207.41 35.3895 206.125 33.8799C204.715 32.2221 202.214 31.3453 198.892 31.3453ZM200.037 40.6429C199.495 44.2052 196.774 44.2052 194.14 44.2052H192.644L193.696 37.5524C193.759 37.1503 194.104 36.8542 194.512 36.8542H195.199C196.99 36.8542 198.683 36.8542 199.556 37.8761C200.078 38.4858 200.236 39.3916 200.037 40.6429Z" fill="#00AFFF"/>
<path d="M228.565 40.5282H223.814C223.406 40.5282 223.059 40.8243 222.998 41.2264L222.788 42.5561L222.454 42.0741C221.425 40.5804 219.131 40.0811 216.841 40.0811C211.587 40.0811 207.102 44.0599 206.228 49.6414C205.775 52.4256 206.418 55.0878 207.998 56.9444C209.449 58.6515 211.519 59.3628 213.985 59.3628C218.218 59.3628 220.566 56.6411 220.566 56.6411L220.354 57.962C220.274 58.4672 220.663 58.9201 221.172 58.9201H225.453C226.131 58.9201 226.709 58.4265 226.815 57.7544L229.386 41.4833C229.464 40.9825 229.075 40.5282 228.565 40.5282ZM221.939 49.7807C221.483 52.4967 219.324 54.3199 216.575 54.3199C215.198 54.3199 214.091 53.8772 213.383 53.0382C212.68 52.2049 212.416 51.019 212.637 49.698C213.068 47.0052 215.257 45.1225 217.964 45.1225C219.314 45.1225 220.412 45.5711 221.135 46.4173C221.862 47.2723 222.149 48.4656 221.939 49.7807Z" fill="#00AFFF"/>
<path d="M234.17 32.0436L230.096 57.9665C230.016 58.4688 230.405 58.9217 230.911 58.9217H235.008C235.689 58.9217 236.266 58.4281 236.371 57.756L240.389 32.3005C240.469 31.7983 240.08 31.3439 239.573 31.3439H234.986C234.581 31.3454 234.233 31.6415 234.17 32.0436Z" fill="#00AFFF"/>
<path d="M71.5475 63.8688L72.3067 59.0465L70.6155 59.0073H62.5402L68.1522 23.4239C68.1696 23.3165 68.2262 23.2164 68.3089 23.1452C68.3917 23.0741 68.4976 23.0349 68.608 23.0349H82.2241C86.7444 23.0349 89.8639 23.9756 91.4926 25.8322C92.2562 26.7031 92.7425 27.6133 92.9776 28.6149C93.2244 29.6659 93.2288 30.9215 92.9878 32.453L92.9704 32.5648V33.546L93.7339 33.9786C94.377 34.3198 94.888 34.7102 95.2799 35.1573C95.9331 35.902 96.3555 36.8485 96.5341 37.9706C96.7184 39.1246 96.6575 40.4978 96.3555 42.0525C96.0072 43.8409 95.4439 45.3985 94.6833 46.673C93.9836 47.8473 93.0923 48.8214 92.0341 49.5762C91.0238 50.2933 89.8233 50.8377 88.466 51.186C87.1509 51.5286 85.6514 51.7014 84.0067 51.7014H82.947C82.1893 51.7014 81.4533 51.9743 80.8755 52.4635C80.2964 52.9628 79.9131 53.6451 79.7955 54.3912L79.7157 54.8252L78.3744 63.3244L78.3134 63.6365C78.2975 63.7352 78.2699 63.7846 78.2293 63.818C78.193 63.8485 78.1407 63.8688 78.0899 63.8688H71.5475Z" fill="#253B80"/>
<path d="M94.4568 32.6779C94.4162 32.9378 94.3697 33.2034 94.3174 33.4763C92.5218 42.6955 86.3786 45.8803 78.5326 45.8803H74.5378C73.5783 45.8803 72.7697 46.5771 72.6202 47.5236L70.5749 60.4952L69.9957 64.1721C69.8984 64.7934 70.3774 65.3537 71.0045 65.3537H78.0899C78.9289 65.3537 79.6416 64.744 79.7737 63.9166L79.8434 63.5566L81.1774 55.0908L81.2631 54.6263C81.3937 53.796 82.1079 53.1863 82.947 53.1863H84.0066C90.8713 53.1863 96.2452 50.3992 97.8158 42.334C98.472 38.9649 98.1323 36.1516 96.3962 34.1731C95.8707 33.5765 95.2189 33.0815 94.4568 32.6779Z" fill="#00AFFF"/>
<path d="M92.5784 31.9289C92.304 31.8491 92.021 31.7765 91.7307 31.7112C91.4389 31.6473 91.1399 31.5907 90.8321 31.5414C89.755 31.3672 88.5749 31.2844 87.3105 31.2844H76.6382C76.3755 31.2844 76.1258 31.3439 75.9023 31.4514C75.4102 31.688 75.0444 32.1539 74.9558 32.7244L72.6855 47.1041L72.6202 47.5236C72.7697 46.5772 73.5782 45.8804 74.5378 45.8804H78.5326C86.3786 45.8804 92.5218 42.6941 94.3174 33.4764C94.3711 33.2035 94.4161 32.9378 94.4568 32.678C94.0024 32.437 93.5103 32.2309 92.9805 32.0552C92.8499 32.0117 92.7149 31.9696 92.5784 31.9289Z" fill="#222D65"/>
<path d="M74.9558 32.7243C75.0443 32.1538 75.4101 31.6879 75.9022 31.4527C76.1272 31.3453 76.3755 31.2858 76.6382 31.2858H87.3105C88.5748 31.2858 89.755 31.3685 90.8321 31.5427C91.1398 31.592 91.4389 31.6487 91.7306 31.7125C92.021 31.7779 92.304 31.8504 92.5784 31.9303C92.7148 31.9709 92.8498 32.013 92.9819 32.0551C93.5118 32.2308 94.0039 32.4383 94.4582 32.6779C94.9924 29.2709 94.4539 26.9512 92.6118 24.8508C90.581 22.5383 86.9156 21.5483 82.2255 21.5483H68.6093C67.6513 21.5483 66.834 22.2451 66.686 23.193L61.0145 59.1422C60.9027 59.8535 61.4514 60.4951 62.1685 60.4951H70.5748L72.6855 47.104L74.9558 32.7243Z" fill="#253B80"/>
</g>
<defs>
<clipPath id="clip0">
<rect width="180" height="47.9032" fill="white" transform="translate(61 21.5483)"/>
</clipPath>
</defs>
</svg>
