<svg width="141" height="43" viewBox="0 0 141 43" fill="none" xmlns="http://www.w3.org/2000/svg">
<path d="M21.9512 0.40332C10.3715 0.40332 0.983917 9.79067 0.983917 21.3703C0.983917 32.9505 10.3715 42.3371 21.9512 42.3371C33.5321 42.3371 42.9187 32.9505 42.9187 21.3703C42.9187 9.79142 33.5321 0.404322 21.9509 0.404322L21.9512 0.40332ZM31.5666 30.6437C31.191 31.2597 30.3848 31.455 29.7689 31.0769C24.846 28.0699 18.6487 27.3889 11.3502 29.0564C10.6469 29.2166 9.94588 28.7759 9.78564 28.0724C9.62465 27.3688 10.0636 26.6678 10.7686 26.5075C18.7556 24.6828 25.6067 25.4685 31.1335 28.846C31.7494 29.2241 31.9447 30.0278 31.5666 30.6437ZM34.133 24.9347C33.6597 25.7038 32.6532 25.9467 31.8846 25.4735C26.2486 22.0093 17.6575 21.006 10.9912 23.0296C10.1267 23.2907 9.21353 22.8035 8.95114 21.9404C8.69074 21.0759 9.17823 20.1645 10.0413 19.9016C17.656 17.5911 27.1224 18.7103 33.5947 22.6875C34.3633 23.1608 34.6062 24.1673 34.133 24.9349V24.9347ZM34.3533 18.9897C27.5956 14.976 16.4464 14.6069 9.99445 16.5651C8.9584 16.8793 7.86275 16.2944 7.54878 15.2584C7.23481 14.2218 7.81918 13.1269 8.85599 12.812C16.2624 10.5636 28.5746 10.998 36.3548 15.6167C37.2887 16.1698 37.5942 17.3733 37.0408 18.304C36.49 19.2359 35.2832 19.5431 34.3543 18.9897H34.3533ZM58.0289 19.7589C54.4084 18.8956 53.7649 18.2897 53.7649 17.0165C53.7649 15.8137 54.8967 15.0043 56.5817 15.0043C58.2141 15.0043 59.8316 15.6189 61.5291 16.8843C61.5792 16.9226 61.6443 16.9379 61.7069 16.9279C61.772 16.9184 61.8271 16.8836 61.8646 16.8312L63.6323 14.3395C63.7049 14.2369 63.6849 14.0954 63.5872 14.017C61.5667 12.3963 59.2933 11.6084 56.6343 11.6084C52.7259 11.6084 49.9943 13.9542 49.9943 17.3105C49.9943 20.9096 52.3503 22.184 56.4214 23.1678C59.8841 23.9657 60.47 24.6342 60.47 25.829C60.47 27.1535 59.2882 27.9772 57.3854 27.9772C55.2722 27.9772 53.5471 27.2637 51.6192 25.5962C51.5717 25.5536 51.5066 25.5361 51.4465 25.5386C51.3814 25.5436 51.3238 25.5736 51.2837 25.6212L49.3007 27.9797C49.2181 28.0799 49.2281 28.2251 49.3233 28.3102C51.5667 30.3132 54.3258 31.3698 57.3053 31.3698C61.5166 31.3698 64.2382 29.0689 64.2382 25.506C64.2457 22.4998 62.4455 20.8348 58.0364 19.7621L58.0289 19.7589ZM73.7675 16.1885C71.9423 16.1885 70.445 16.9076 69.2082 18.3811V16.7226C69.2082 16.5916 69.103 16.485 68.9728 16.485H65.7304C65.6002 16.485 65.4951 16.5916 65.4951 16.7226V35.1505C65.4951 35.2807 65.6002 35.3884 65.7304 35.3884H68.9728C69.103 35.3884 69.2082 35.2807 69.2082 35.1505V29.3343C70.445 30.7189 71.9423 31.3974 73.7675 31.3974C77.1601 31.3974 80.5953 28.786 80.5953 23.7937C80.6003 18.8005 77.1651 16.1883 73.77 16.1883L73.7675 16.1885ZM76.8246 23.7937C76.8246 26.3348 75.2598 28.1099 73.0164 28.1099C70.8005 28.1099 69.128 26.2547 69.128 23.7937C69.128 21.3325 70.8005 19.4777 73.0164 19.4777C75.2222 19.4775 76.8246 21.2922 76.8246 23.7935V23.7937ZM89.396 16.1885C85.0269 16.1885 81.6043 19.5526 81.6043 23.848C81.6043 28.0974 85.0044 31.4249 89.3434 31.4249C93.7275 31.4249 97.1601 28.0724 97.1601 23.7937C97.1601 19.5296 93.75 16.189 89.396 16.189V16.1885ZM89.396 28.135C87.0725 28.135 85.3199 26.2672 85.3199 23.7925C85.3199 21.3065 87.0124 19.5025 89.3434 19.5025C91.6819 19.5025 93.4446 21.3696 93.4446 23.8468C93.4446 26.3323 91.742 28.135 89.396 28.135ZM106.489 16.485H102.921V12.838C102.921 12.7073 102.816 12.6006 102.686 12.6006H99.4436C99.3134 12.6006 99.2057 12.7073 99.2057 12.838V16.485H97.6484C97.5182 16.485 97.413 16.5916 97.413 16.7226V19.5085C97.413 19.6392 97.5182 19.7461 97.6484 19.7461H99.2057V26.9557C99.2057 29.8676 100.655 31.3448 103.517 31.3448C104.679 31.3448 105.643 31.1044 106.552 30.5887C106.627 30.5486 106.672 30.4685 106.672 30.3834V27.7294C106.672 27.6492 106.629 27.5716 106.559 27.5291C106.489 27.484 106.402 27.4815 106.329 27.5191C105.705 27.832 105.102 27.9772 104.426 27.9772C103.387 27.9772 102.921 27.504 102.921 26.4474V19.7474H106.489C106.619 19.7474 106.725 19.6407 106.725 19.5098V16.7241C106.73 16.5931 106.624 16.4865 106.492 16.4865L106.489 16.485ZM118.918 16.4993V16.0513C118.918 14.7336 119.424 14.146 120.555 14.146C121.231 14.146 121.775 14.2802 122.383 14.483C122.458 14.5065 122.536 14.4947 122.596 14.4499C122.658 14.4051 122.693 14.3332 122.693 14.2571V11.5255C122.693 11.4211 122.628 11.3287 122.526 11.2979C121.885 11.1069 121.064 10.9109 119.832 10.9109C116.84 10.9109 115.255 12.5969 115.255 15.7849V16.471H113.697C113.567 16.471 113.46 16.5776 113.46 16.7083V19.5085C113.46 19.6392 113.567 19.7461 113.697 19.7461H115.255V30.8641C115.255 30.9968 115.362 31.1019 115.493 31.1019H118.733C118.865 31.1019 118.97 30.9968 118.97 30.8641V19.7469H121.997L126.634 30.8641C126.109 32.0308 125.59 32.2637 124.884 32.2637C124.313 32.2637 123.71 32.0934 123.097 31.7554C123.039 31.7254 122.969 31.7204 122.909 31.7379C122.846 31.7604 122.794 31.8055 122.769 31.8656L121.669 34.2767C121.617 34.3919 121.662 34.5246 121.772 34.5847C122.919 35.2056 123.953 35.471 125.232 35.471C127.626 35.471 128.95 34.3543 130.115 31.3548L135.738 16.8237C135.768 16.7506 135.758 16.668 135.713 16.6032C135.67 16.5388 135.598 16.5 135.52 16.5H132.145C132.043 16.5 131.952 16.5643 131.92 16.6592L128.462 26.5326L124.676 16.6527C124.641 16.5608 124.554 16.5 124.456 16.5H118.918V16.4993ZM111.712 16.485H108.47C108.339 16.485 108.232 16.5916 108.232 16.7226V30.8641C108.232 30.9968 108.339 31.1019 108.47 31.1019H111.712C111.842 31.1019 111.95 30.9968 111.95 30.8641V16.7236C111.95 16.5926 111.845 16.486 111.712 16.486V16.485ZM110.11 10.0456C108.825 10.0456 107.784 11.0851 107.784 12.3693C107.784 13.6542 108.825 14.695 110.11 14.695C111.394 14.695 112.433 13.6542 112.433 12.3693C112.433 11.0854 111.392 10.0456 110.11 10.0456ZM138.507 21.0321C137.225 21.0321 136.226 20.0018 136.226 18.7506C136.226 17.4995 137.238 16.4574 138.52 16.4574C139.802 16.4574 140.801 17.4875 140.801 18.7376C140.801 19.9887 139.789 21.0321 138.507 21.0321ZM138.52 16.6843C137.351 16.6843 136.467 17.6132 136.467 18.7506C136.467 19.8876 137.346 20.804 138.507 20.804C139.677 20.804 140.56 19.8758 140.56 18.7376C140.56 17.6007 139.682 16.6843 138.52 16.6843ZM139.026 18.9722L139.671 19.8756H139.126L138.545 19.0468H138.047V19.8756H137.591V17.481H138.657C139.216 17.481 139.581 17.7657 139.581 18.2449C139.584 18.6375 139.356 18.8773 139.028 18.9722H139.026ZM138.64 17.8918H138.047V18.6492H138.64C138.935 18.6492 139.113 18.5043 139.113 18.2702C139.113 18.0238 138.935 17.8918 138.64 17.8918Z" fill="#1ED760"/>
</svg>
