<svg width="280" height="187" viewBox="0 0 280 187" fill="none" xmlns="http://www.w3.org/2000/svg">
<path d="M132.415 78.3528V132.1C132.415 135.397 135.089 138.072 138.387 138.072H175.128" stroke="#5267F8" stroke-width="1.4929"/>
<path d="M173.546 76.3754H205.937C209.235 76.3754 211.908 73.7018 211.908 70.4038V19.0297" stroke="#5267F8" stroke-width="1.4929"/>
<path d="M89.3064 77.562H56.9157C53.6177 77.562 50.9441 80.2355 50.9441 83.5336V134.908" stroke="#5267F8" stroke-width="1.4929"/>
<path d="M88.9116 67.7586C88.9116 63.2993 88.9116 61.0698 89.7794 59.3666C90.5427 57.8684 91.7608 56.6504 93.2589 55.887C94.9621 55.0192 97.1917 55.0192 101.651 55.0192H161.598C166.056 55.0192 168.286 55.0192 169.99 55.887C171.488 56.6504 172.706 57.8684 173.469 59.3666C174.337 61.0698 174.337 63.2993 174.337 67.7586V84.9924C174.337 89.4517 174.337 91.6813 173.469 93.3845C172.706 94.8827 171.488 96.1007 169.99 96.864C168.286 97.7318 166.056 97.7318 161.598 97.7318H101.651C97.1917 97.7318 94.9621 97.7318 93.2589 96.864C91.7608 96.1007 90.5427 94.8827 89.7794 93.3845C88.9116 91.6813 88.9116 89.4517 88.9116 84.9924V67.7586Z" fill="#10226E" stroke="#345DED" stroke-width="2.9858"/>
<path d="M169.593 138.072C169.593 131.082 175.259 125.416 182.248 125.416H217.051C224.041 125.416 229.707 131.082 229.707 138.072C229.707 145.06 224.041 150.727 217.051 150.727H182.248C175.259 150.727 169.593 145.06 169.593 138.072Z" fill="#10226E" stroke="white" stroke-width="1.99053"/>
<path d="M33.5439 134.908C33.5439 125.297 41.3349 117.506 50.9454 117.506C60.556 117.506 68.3468 125.297 68.3468 134.908C68.3468 144.518 60.556 152.309 50.9454 152.309C41.3349 152.309 33.5439 144.518 33.5439 134.908Z" fill="#10226E" stroke="white" stroke-width="1.99053"/>
<path d="M194.901 19.4251C194.901 9.81452 202.692 2.02362 212.304 2.02362C221.914 2.02362 229.705 9.81452 229.705 19.4251C229.705 29.0357 221.914 36.8265 212.304 36.8265C202.692 36.8265 194.901 29.0357 194.901 19.4251Z" fill="#10226E" stroke="white" stroke-width="1.99053"/>
</svg>
