<svg width="26" height="23" viewBox="0 0 26 23" fill="none" xmlns="http://www.w3.org/2000/svg">
<path d="M9.59391 20.9493C8.83392 20.9493 8.96313 20.6624 8.701 19.9388L6.4664 12.5846L23.6677 2.37976" fill="#C6C6C6"/>
<path d="M9.5939 20.9492C10.1803 20.9492 10.4393 20.681 10.7667 20.3628L13.8942 17.3217L9.99305 14.9692" fill="#5A5652"/>
<path d="M9.99264 14.9698L19.4455 21.9537C20.5243 22.5489 21.3027 22.2407 21.5715 20.9523L25.4193 2.82004C25.8131 1.24065 24.8172 0.524058 23.7851 0.992598L1.19086 9.70485C-0.351388 10.3235 -0.3422 11.184 0.909779 11.5673L6.70798 13.3771L20.1314 4.90843C20.7651 4.52414 21.3469 4.73055 20.8695 5.15433" fill="white"/>
</svg>
