<svg width="302" height="91" viewBox="0 0 302 91" fill="none" xmlns="http://www.w3.org/2000/svg">
<rect x="2.34289" y="2.14868" width="297.106" height="87.1686" rx="18.3918" stroke="#26A17B" stroke-width="3.19361"/>
<path d="M82.3363 70.8122C96.2837 70.8122 107.59 59.5056 107.59 45.5583C107.59 31.6109 96.2837 20.3043 82.3363 20.3043C68.3889 20.3043 57.0823 31.6109 57.0823 45.5583C57.0823 59.5056 68.3889 70.8122 82.3363 70.8122Z" fill="#26A17B"/>
<path d="M85.0284 47.8888V47.8848C84.8538 47.8969 83.9525 47.9497 81.9468 47.9497C80.343 47.9497 79.2184 47.9051 78.8205 47.8848V47.8888C72.6531 47.6168 68.053 46.5449 68.053 45.2579C68.053 43.9749 72.6572 42.8989 78.8205 42.6269V46.821C79.2224 46.8494 80.3796 46.9184 81.9752 46.9184C83.8916 46.9184 84.8498 46.8372 85.0284 46.821V42.631C91.1836 42.907 95.7715 43.9789 95.7715 45.2619C95.7715 46.5449 91.1795 47.6168 85.0284 47.8929V47.8888ZM85.0284 42.1965V38.445H93.6156V32.7242H70.2374V38.445H78.8245V42.1965C71.8452 42.5173 66.5995 43.8977 66.5995 45.5542C66.5995 47.2108 71.8492 48.5912 78.8245 48.916V60.9421H85.0325V48.916C91.9996 48.5953 97.2372 47.2148 97.2372 45.5583C97.2372 43.9058 91.9996 42.5213 85.0325 42.2006" fill="white"/>
<path d="M129.042 34.2874V40.3532H134.937V44.9046H129.002V54.1333C129.002 56.1715 130.126 57.1662 131.775 57.1662C132.599 57.1662 133.553 56.9064 134.332 56.5166L135.806 61.0233C134.292 61.6283 133.033 61.8881 131.429 61.9328C126.793 62.1074 123.76 59.4642 123.76 54.1333V44.9046H119.773V40.3532H123.76V34.8517L129.042 34.2874ZM230.679 40.069L231.069 42.5376C232.717 39.8944 234.926 39.5047 237.094 39.5047C239.303 39.5047 241.426 40.3695 242.596 41.5388L240.212 46.1308C239.128 45.2213 238.134 44.7422 236.4 44.7422C233.627 44.7422 231.069 46.216 231.069 50.1584V61.4253H225.783V40.0609L230.679 40.069ZM217.723 48.2583C217.378 45.4852 215.21 44.0967 212.177 44.0967C209.319 44.0967 206.976 45.4852 206.197 48.2583H217.723ZM206.111 52.6351C206.457 55.2782 208.755 57.1865 212.482 57.1865C214.431 57.1865 216.989 56.4476 218.202 55.193L221.581 58.5304C219.327 60.869 215.645 61.9978 212.392 61.9978C205.027 61.9978 200.646 57.4464 200.646 50.601C200.646 44.1007 205.068 39.4194 212.003 39.4194C219.153 39.4194 223.619 43.8409 222.794 52.6351H206.111ZM182.798 31.0961V42.9679C184.706 40.4994 187.045 39.7604 189.473 39.7604C195.539 39.7604 198.227 43.8774 198.227 50.1625V61.4293H192.94V50.2071C192.94 46.3054 190.902 44.661 188.084 44.661C184.962 44.661 182.798 47.3042 182.798 50.5117V61.4334H177.512V31.1002L182.798 31.0961ZM168.758 34.0438V40.1096H174.654V44.661H168.718V53.8897C168.718 55.9279 169.846 56.9226 171.491 56.9226C172.315 56.9226 173.269 56.6628 174.049 56.273L175.522 60.7797C174.008 61.3847 172.749 61.6445 171.146 61.6892C166.509 61.8638 163.476 59.2166 163.476 53.8897V44.661H159.489V40.1096H163.476V34.6081L168.758 34.0438ZM154.154 48.2583C153.809 45.4852 151.641 44.0967 148.608 44.0967C145.75 44.0967 143.407 45.4852 142.627 48.2583H154.154ZM142.542 52.6351C142.887 55.2782 145.185 57.1865 148.912 57.1865C150.861 57.1865 153.419 56.4476 154.633 55.193L158.011 58.5304C155.758 60.869 152.075 61.9978 148.823 61.9978C141.454 61.9978 137.077 57.4464 137.077 50.601C137.077 44.1007 141.499 39.4194 148.429 39.4194C155.579 39.4194 160.041 43.8409 159.221 52.6351H142.542Z" fill="white"/>
</svg>
