<svg width="145" height="20" viewBox="0 0 145 20" fill="none" xmlns="http://www.w3.org/2000/svg">
<path d="M52.8115 18.9159H49.1051V5.77043H44.3118V2.59341H57.6048V5.77043H52.8115V18.9159Z" fill="white"/>
<path d="M72.4228 18.9157H68.6943V2.59326H72.4228V18.9157Z" fill="white"/>
<path d="M138.213 15.6948H144.661V18.9163H134.486V2.59378H138.213V15.6948Z" fill="white"/>
<path d="M84.8338 2.59341H90.8737C95.3296 2.59341 99.7633 4.95319 99.7633 10.7102C99.7633 16.1369 95.4175 18.9159 91.0939 18.9159H84.8338V2.59341ZM88.4513 15.7167H90.7636C93.8739 15.7167 95.9468 13.7761 95.9468 10.688C95.9468 7.75442 93.8517 5.77043 90.8515 5.77043H88.4513V15.7167Z" fill="white"/>
<path d="M120.453 18.9159H124.551L117.827 2.59341H113.978L107.188 18.9159H111.176L112.379 15.6954H119.261L120.453 18.9159ZM113.378 12.7952L115.836 6.41189L118.272 12.7952H113.378Z" fill="white"/>
<path d="M19.3852 4.97161L14.6081 9.74976L9.82992 4.97161L14.6081 0.195477L19.3852 4.97161Z" fill="white"/>
<path d="M19.3852 14.5273L14.6081 19.3054L9.82992 14.5273L14.6081 9.74912L19.3852 14.5273Z" fill="white"/>
<path d="M9.83021 4.97197L5.05206 9.75012L0.274918 4.97197L5.05206 0.194833L9.83021 4.97197Z" fill="white"/>
<path d="M28.94 4.97197L24.1628 9.75012L19.3847 4.97197L24.1628 0.194833L28.94 4.97197Z" fill="white"/>
</svg>
