<svg width="110" height="38" viewBox="0 0 110 38" fill="none" xmlns="http://www.w3.org/2000/svg">
<path d="M8.65707 0.489803H22.6388L15.3019 25.1588C14.7869 26.8894 15.8795 28.3167 17.6795 28.3167C19.4802 28.3167 21.3337 26.8894 21.8481 25.1588L29.1852 0.489803L41.5834 0.489502L33.1118 32.0244C32.3641 34.8061 29.3928 37.0828 26.5087 37.0828H5.05788C1.63042 37.0828 -0.447137 34.3779 0.441276 31.0704L8.65707 0.489803Z" fill="#D20A0A"/>
<path d="M57.1347 13.9648V13.9652H71.4926L68.8845 22.5067H54.5217L50.5345 37.0828H37.0364L43.6366 13.9648H57.1347Z" fill="#D20A0A"/>
<path d="M85.0708 0.119507H103.331C106.002 0.119507 110.536 2.2596 109.608 5.66293L109.242 7.00289H92.948C92.1111 7.00289 91.2402 7.67402 91.0139 8.49386L85.9499 26.832C85.7237 27.652 86.2232 28.3228 87.0603 28.3228H103.429L102.242 32.6743C101.555 35.1954 98.8462 37.2692 96.1763 37.2692H76.8993C73.5017 37.2692 71.4144 34.6382 72.2612 31.4235L79.3707 4.43659C79.9961 2.06193 82.5612 0.119507 85.0708 0.119507Z" fill="#D20A0A"/>
<path d="M72.9336 8.98011H58.6052L58.598 9.00475H45.0999L47.6968 0.0323486C56.9709 0.0323486 66.2452 0.0323486 75.5186 0.0323486L72.9336 8.98011Z" fill="#D20A0A"/>
</svg>
