<svg width="298" height="88" viewBox="0 0 298 88" fill="none" xmlns="http://www.w3.org/2000/svg">
<g clip-path="url(#clip0)">
<path d="M68.2925 65.8803C79.4675 65.8803 88.4578 56.89 88.4578 45.715C88.4578 34.54 79.4675 25.5497 68.2925 25.5497C57.1175 25.5497 48.1272 34.54 48.1272 45.715C48.1272 56.89 57.1175 65.8803 68.2925 65.8803Z" fill="#2775CA"/>
<path d="M73.8377 48.9078C73.8377 45.9671 72.0733 44.9588 68.5443 44.5388C66.0237 44.2026 65.5195 43.5305 65.5195 42.3541C65.5195 41.1776 66.3598 40.4216 68.0402 40.4216C69.5526 40.4216 70.3929 40.9258 70.8129 42.1861C70.897 42.4382 71.1491 42.6061 71.4012 42.6061H72.7454C73.0815 42.6061 73.3336 42.3541 73.3336 42.0181V41.934C72.9974 40.0855 71.485 38.6572 69.5526 38.4892V36.4727C69.5526 36.1365 69.3005 35.8844 68.8805 35.8004H67.6202C67.284 35.8004 67.0319 36.0524 66.9478 36.4727V38.4051C64.4272 38.7413 62.8309 40.4216 62.8309 42.5223C62.8309 45.295 64.5113 46.3871 68.0402 46.8074C70.3929 47.2274 71.1491 47.7316 71.1491 49.076C71.1491 50.4204 69.9726 51.3446 68.3764 51.3446C66.1916 51.3446 65.4355 50.4202 65.1834 49.1599C65.0995 48.8239 64.8474 48.6557 64.5954 48.6557H63.1669C62.8309 48.6557 62.5788 48.9078 62.5788 49.2439V49.328C62.9148 51.4285 64.2592 52.9409 67.0319 53.3611V55.3776C67.0319 55.7136 67.284 55.9656 67.704 56.0497H68.9644C69.3005 56.0497 69.5526 55.7977 69.6367 55.3776V53.3611C72.1574 52.9409 73.8377 51.1764 73.8377 48.9078Z" fill="white"/>
<path d="M64.0071 57.7301C57.4534 55.3776 54.0924 48.0677 56.5292 41.5979C57.7895 38.0689 60.5623 35.3803 64.0071 34.12C64.3433 33.952 64.5112 33.6999 64.5112 33.2797V32.1034C64.5112 31.7673 64.3433 31.5152 64.0071 31.4313C63.923 31.4313 63.755 31.4313 63.671 31.5152C55.6889 34.0359 51.3197 42.5223 53.8404 50.5043C55.3528 55.2095 58.9658 58.8225 63.671 60.3349C64.0071 60.5028 64.3433 60.3349 64.4272 59.9987C64.5112 59.9148 64.5112 59.8307 64.5112 59.6628V58.4863C64.5112 58.2342 64.2592 57.8983 64.0071 57.7301ZM72.9135 31.5152C72.5774 31.3472 72.2412 31.5152 72.1573 31.8514C72.0732 31.9355 72.0732 32.0194 72.0732 32.1875V33.3638C72.0732 33.6999 72.3253 34.0359 72.5774 34.2041C79.1311 36.5565 82.492 43.8665 80.0553 50.3363C78.7949 53.8652 76.0222 56.5539 72.5774 57.8142C72.2412 57.9822 72.0732 58.2342 72.0732 58.6545V59.8307C72.0732 60.1669 72.2412 60.419 72.5774 60.5028C72.6615 60.5028 72.8294 60.5028 72.9135 60.419C80.8956 57.8983 85.2648 49.4119 82.7441 41.4299C81.2317 36.6406 77.5346 33.0276 72.9135 31.5152Z" fill="white"/>
</g>
<path d="M108.365 57.1208C106.635 57.1208 105.074 56.7839 103.681 56.11C102.288 55.4136 101.176 54.3691 100.345 52.9763C99.5366 51.5836 99.1323 49.8202 99.1323 47.6862V33.1298H103.445V47.7199C103.445 49.5619 103.883 50.9321 104.759 51.8307C105.658 52.7292 106.893 53.1785 108.466 53.1785C110.016 53.1785 111.24 52.7292 112.139 51.8307C113.037 50.9321 113.486 49.5619 113.486 47.7199V33.1298H117.799V47.6862C117.799 49.8202 117.373 51.5836 116.519 52.9763C115.665 54.3691 114.52 55.4136 113.082 56.11C111.667 56.7839 110.094 57.1208 108.365 57.1208ZM130.255 57.1208C128.526 57.1208 126.998 56.8288 125.673 56.2448C124.348 55.6382 123.303 54.7846 122.539 53.6839C121.775 52.5607 121.382 51.2017 121.36 49.6068H125.909C125.954 50.7075 126.347 51.6397 127.088 52.4035C127.852 53.1448 128.896 53.5154 130.222 53.5154C131.367 53.5154 132.277 53.2459 132.951 52.7068C133.625 52.1452 133.962 51.4039 133.962 50.4829C133.962 49.5169 133.659 48.7644 133.052 48.2253C132.468 47.6862 131.682 47.2481 130.693 46.9112C129.705 46.5742 128.649 46.2148 127.526 45.8329C125.707 45.2039 124.314 44.3952 123.348 43.4069C122.404 42.4185 121.933 41.1043 121.933 39.4645C121.91 38.0718 122.236 36.8812 122.91 35.8928C123.606 34.8819 124.55 34.107 125.74 33.5678C126.931 33.0062 128.301 32.7255 129.851 32.7255C131.424 32.7255 132.805 33.0062 133.996 33.5678C135.209 34.1294 136.152 34.9156 136.826 35.9265C137.522 36.9374 137.893 38.1392 137.938 39.5319H133.322C133.299 38.7007 132.973 37.9707 132.345 37.3417C131.738 36.6903 130.884 36.3645 129.784 36.3645C128.84 36.3421 128.043 36.5779 127.391 37.0721C126.762 37.5439 126.448 38.2402 126.448 39.1612C126.448 39.9475 126.695 40.5765 127.189 41.0482C127.683 41.4975 128.357 41.8793 129.211 42.1938C130.064 42.5083 131.042 42.8453 132.142 43.2047C133.31 43.609 134.377 44.0808 135.343 44.6199C136.309 45.159 137.084 45.8778 137.668 46.7764C138.252 47.6525 138.544 48.7869 138.544 50.1796C138.544 51.4151 138.23 52.5607 137.601 53.6165C136.972 54.6723 136.04 55.5259 134.804 56.1774C133.569 56.8063 132.052 57.1208 130.255 57.1208ZM142.308 56.7165V33.1298H150.361C153.124 33.1298 155.393 33.624 157.167 34.6124C158.964 35.5783 160.29 36.9486 161.143 38.7232C162.019 40.4754 162.457 42.542 162.457 44.9231C162.457 47.3043 162.019 49.3822 161.143 51.1568C160.29 52.9089 158.964 54.2792 157.167 55.2676C155.393 56.2335 153.124 56.7165 150.361 56.7165H142.308ZM146.621 53.01H150.159C152.135 53.01 153.697 52.6955 154.842 52.0665C155.988 51.4151 156.808 50.4941 157.302 49.3035C157.796 48.0905 158.043 46.6304 158.043 44.9231C158.043 43.2384 157.796 41.7895 157.302 40.5765C156.808 39.3634 155.988 38.4312 154.842 37.7797C153.697 37.1283 152.135 36.8026 150.159 36.8026H146.621V53.01ZM184.973 57.1208C182.592 57.1208 180.548 56.6154 178.841 55.6045C177.133 54.5712 175.819 53.1448 174.898 51.3252C173.977 49.4832 173.517 47.3604 173.517 44.9568C173.517 42.5532 173.977 40.4304 174.898 38.5884C175.819 36.7464 177.133 35.3088 178.841 34.2754C180.548 33.2421 182.592 32.7255 184.973 32.7255C187.804 32.7255 190.117 33.4331 191.914 34.8483C193.734 36.241 194.868 38.2065 195.318 40.7449H190.567C190.275 39.4645 189.646 38.4649 188.68 37.746C187.736 37.0048 186.478 36.6341 184.906 36.6341C182.727 36.6341 181.02 37.3754 179.784 38.858C178.549 40.3406 177.931 42.3735 177.931 44.9568C177.931 47.5401 178.549 49.5731 179.784 51.0557C181.02 52.5158 182.727 53.2459 184.906 53.2459C186.478 53.2459 187.736 52.9089 188.68 52.235C189.646 51.5386 190.275 50.584 190.567 49.3709H195.318C194.868 51.797 193.734 53.6951 191.914 55.0654C190.117 56.4357 187.804 57.1208 184.973 57.1208ZM207.054 57.1208C205.436 57.1208 203.976 56.7502 202.673 56.0089C201.393 55.2676 200.371 54.2455 199.607 52.9426C198.866 51.6173 198.495 50.0898 198.495 48.3601C198.495 46.6304 198.877 45.1141 199.641 43.8112C200.405 42.4859 201.427 41.4525 202.707 40.7112C204.01 39.9699 205.47 39.5993 207.087 39.5993C208.682 39.5993 210.12 39.9699 211.4 40.7112C212.703 41.4525 213.725 42.4859 214.467 43.8112C215.231 45.1141 215.612 46.6304 215.612 48.3601C215.612 50.0898 215.231 51.6173 214.467 52.9426C213.725 54.2455 212.703 55.2676 211.4 56.0089C210.098 56.7502 208.649 57.1208 207.054 57.1208ZM207.054 53.3807C208.177 53.3807 209.154 52.9651 209.985 52.1339C210.816 51.2803 211.232 50.0224 211.232 48.3601C211.232 46.6978 210.816 45.451 209.985 44.6199C209.154 43.7663 208.188 43.3395 207.087 43.3395C205.942 43.3395 204.953 43.7663 204.122 44.6199C203.314 45.451 202.909 46.6978 202.909 48.3601C202.909 50.0224 203.314 51.2803 204.122 52.1339C204.953 52.9651 205.931 53.3807 207.054 53.3807ZM221.794 37.4091C221.007 37.4091 220.356 37.1732 219.839 36.7015C219.345 36.2298 219.098 35.6345 219.098 34.9156C219.098 34.1968 219.345 33.6128 219.839 33.1635C220.356 32.6918 221.007 32.4559 221.794 32.4559C222.58 32.4559 223.22 32.6918 223.714 33.1635C224.231 33.6128 224.489 34.1968 224.489 34.9156C224.489 35.6345 224.231 36.2298 223.714 36.7015C223.22 37.1732 222.58 37.4091 221.794 37.4091ZM219.637 56.7165V40.0036H223.95V56.7165H219.637ZM228.452 56.7165V40.0036H232.259L232.596 42.834C233.113 41.8456 233.854 41.0594 234.82 40.4754C235.809 39.8913 236.966 39.5993 238.291 39.5993C240.358 39.5993 241.964 40.2507 243.109 41.5536C244.255 42.8565 244.828 44.7659 244.828 47.2818V56.7165H240.515V47.6862C240.515 46.2485 240.223 45.1478 239.639 44.384C239.055 43.6203 238.145 43.2384 236.909 43.2384C235.696 43.2384 234.697 43.6652 233.911 44.5188C233.147 45.3724 232.765 46.563 232.765 48.0905V56.7165H228.452Z" fill="white"/>
<rect x="1.49872" y="1.11383" width="295.509" height="85.5718" rx="17.5934" stroke="#2775CA" stroke-width="1.5968"/>
<defs>
<clipPath id="clip0">
<rect width="40.3306" height="40.3306" fill="white" transform="translate(48.1272 25.5497)"/>
</clipPath>
</defs>
</svg>
