<?xml version="1.0" standalone="no"?>
<!DOCTYPE svg PUBLIC "-//W3C//DTD SVG 20010904//EN"
 "http://www.w3.org/TR/2001/REC-SVG-20010904/DTD/svg10.dtd">
<svg version="1.0" xmlns="http://www.w3.org/2000/svg"
 width="586.000000pt" height="586.000000pt" viewBox="0 0 586.000000 586.000000"
 preserveAspectRatio="xMidYMid meet">
<metadata>
Created by potrace 1.11, written by Peter Selinger 2001-2013
</metadata>
<g transform="translate(0.000000,586.000000) scale(0.100000,-0.100000)"
fill="#000000" stroke="none">
<path d="M3084 5287 c-17 -5 -36 -18 -44 -30 -7 -12 -41 -102 -76 -202 -34
-99 -83 -238 -109 -310 -26 -71 -51 -141 -55 -155 -5 -14 -36 -101 -70 -195
-33 -93 -63 -177 -65 -185 -2 -8 -58 -168 -125 -355 -67 -187 -144 -403 -171
-480 -28 -77 -61 -169 -74 -205 -13 -36 -72 -200 -131 -365 -58 -165 -112
-312 -120 -327 -17 -34 -18 -65 -1 -70 10 -4 798 -3 930 1 37 1 53 7 77 30 17
15 30 31 30 35 0 4 34 100 76 214 41 114 77 214 79 222 5 19 117 332 239 668
52 144 98 279 101 300 4 20 11 52 17 70 22 74 38 43 164 -333 67 -198 124
-367 127 -375 3 -8 39 -114 80 -235 41 -121 93 -269 115 -330 22 -60 76 -211
120 -335 44 -124 119 -333 167 -465 163 -452 296 -823 385 -1075 66 -187 75
-207 102 -221 17 -10 137 -13 503 -14 264 -1 486 1 493 3 6 2 12 12 12 21 0 9
-42 133 -94 276 -52 143 -119 330 -149 415 -31 86 -62 173 -71 195 -8 22 -69
193 -136 380 -67 187 -142 396 -167 465 -25 69 -56 157 -70 195 -13 39 -28 79
-33 90 -5 11 -36 99 -70 195 -34 96 -75 210 -91 252 -16 43 -36 99 -45 125 -8
27 -19 57 -24 68 -9 21 -189 528 -305 860 -53 152 -219 617 -387 1087 -11 31
-31 67 -45 80 l-24 23 -518 0 c-284 0 -531 -4 -547 -8z"/>
<path d="M1738 5282 c-34 -9 -61 -29 -75 -56 -13 -26 -178 -476 -188 -516 -3
-8 -17 -51 -33 -95 -65 -178 -177 -488 -224 -620 -27 -77 -56 -156 -63 -175
-13 -31 -106 -288 -170 -470 -13 -36 -44 -121 -68 -190 -101 -280 -249 -700
-273 -770 -14 -41 -29 -84 -34 -95 -5 -11 -27 -72 -49 -135 -55 -161 -250
-710 -262 -740 -6 -14 -34 -88 -61 -165 -104 -291 -137 -383 -173 -480 -64
-177 -69 -195 -57 -207 8 -8 145 -11 492 -11 l480 0 32 25 c28 22 41 48 87
179 30 85 60 168 67 184 7 17 44 124 84 240 39 115 79 218 88 228 9 11 28 24
42 29 29 11 2103 14 2265 3 68 -5 105 -4 109 3 4 6 -26 96 -65 199 -39 103
-93 251 -121 328 -30 87 -58 149 -74 165 l-24 25 -922 3 c-532 1 -926 6 -931
11 -8 8 39 162 65 214 5 10 11 26 13 35 2 9 23 71 48 137 47 125 101 276 103
285 0 3 4 12 7 20 3 8 17 47 30 85 30 84 216 604 224 625 4 8 7 17 8 20 1 3 4
12 8 20 12 31 81 225 84 235 2 11 290 811 300 835 3 8 7 20 8 25 3 10 26 75
121 332 70 191 78 219 61 230 -11 7 -932 12 -959 5z"/>
<path d="M2386 1213 c-1 -1 -168 -4 -372 -7 -204 -3 -382 -10 -396 -15 -36
-13 -47 -36 -122 -246 -38 -104 -80 -219 -94 -255 -27 -73 -39 -130 -26 -131
12 -1 932 -1 961 0 47 2 78 49 126 191 25 74 69 196 97 270 64 166 69 190 44
191 -36 2 -216 4 -218 2z"/>
</g>
</svg>
